<mxfile host="app.diagrams.net" agent="Mozilla/5.0 (Windows NT 10.0; Win64; x64) AppleWebKit/537.36 (KHTML, like Gecko) Chrome/133.0.0.0 Safari/537.36 Edg/133.0.0.0" version="26.0.14">
  <diagram id="C5RBs43oDa-KdzZeNtuy" name="Flowchart SRTF">
    <mxGraphModel dx="1972" dy="869" grid="1" gridSize="10" guides="1" tooltips="1" connect="1" arrows="1" fold="1" page="1" pageScale="1" pageWidth="827" pageHeight="1169" math="0" shadow="0">
      <root>
        <mxCell id="WIyWlLk6GJQsqaUBKTNV-0" />
        <mxCell id="WIyWlLk6GJQsqaUBKTNV-1" parent="WIyWlLk6GJQsqaUBKTNV-0" />
        <mxCell id="GENL_fKybs1PkxHw5dDO-33" style="edgeStyle=orthogonalEdgeStyle;rounded=0;orthogonalLoop=1;jettySize=auto;html=1;entryX=0.5;entryY=0;entryDx=0;entryDy=0;" edge="1" parent="WIyWlLk6GJQsqaUBKTNV-1" source="GENL_fKybs1PkxHw5dDO-29" target="GENL_fKybs1PkxHw5dDO-32">
          <mxGeometry relative="1" as="geometry" />
        </mxCell>
        <mxCell id="GENL_fKybs1PkxHw5dDO-29" value="start" style="ellipse;whiteSpace=wrap;html=1;" vertex="1" parent="WIyWlLk6GJQsqaUBKTNV-1">
          <mxGeometry x="287" y="70" width="120" height="50" as="geometry" />
        </mxCell>
        <mxCell id="GENL_fKybs1PkxHw5dDO-32" value="รับค่า ของแต่ละ Process ประกอบด้วย (burst time,arrival time)" style="shape=parallelogram;html=1;strokeWidth=2;perimeter=parallelogramPerimeter;whiteSpace=wrap;rounded=1;arcSize=12;size=0.23;" vertex="1" parent="WIyWlLk6GJQsqaUBKTNV-1">
          <mxGeometry x="184" y="160" width="326" height="60" as="geometry" />
        </mxCell>
        <mxCell id="GENL_fKybs1PkxHw5dDO-39" style="edgeStyle=orthogonalEdgeStyle;rounded=0;orthogonalLoop=1;jettySize=auto;html=1;entryX=0.5;entryY=0;entryDx=0;entryDy=0;" edge="1" parent="WIyWlLk6GJQsqaUBKTNV-1" source="GENL_fKybs1PkxHw5dDO-34" target="GENL_fKybs1PkxHw5dDO-36">
          <mxGeometry relative="1" as="geometry" />
        </mxCell>
        <mxCell id="GENL_fKybs1PkxHw5dDO-34" value="สร้าง Process ตามข้อมูลที่ได้รับมา" style="rounded=1;whiteSpace=wrap;html=1;absoluteArcSize=1;arcSize=14;strokeWidth=2;" vertex="1" parent="WIyWlLk6GJQsqaUBKTNV-1">
          <mxGeometry x="210" y="270" width="250" height="50" as="geometry" />
        </mxCell>
        <mxCell id="GENL_fKybs1PkxHw5dDO-35" style="edgeStyle=orthogonalEdgeStyle;rounded=0;orthogonalLoop=1;jettySize=auto;html=1;entryX=0.549;entryY=-0.058;entryDx=0;entryDy=0;entryPerimeter=0;" edge="1" parent="WIyWlLk6GJQsqaUBKTNV-1" source="GENL_fKybs1PkxHw5dDO-32" target="GENL_fKybs1PkxHw5dDO-34">
          <mxGeometry relative="1" as="geometry" />
        </mxCell>
        <mxCell id="GENL_fKybs1PkxHw5dDO-41" style="edgeStyle=orthogonalEdgeStyle;rounded=0;orthogonalLoop=1;jettySize=auto;html=1;entryX=0.5;entryY=0;entryDx=0;entryDy=0;" edge="1" parent="WIyWlLk6GJQsqaUBKTNV-1" source="GENL_fKybs1PkxHw5dDO-36" target="GENL_fKybs1PkxHw5dDO-40">
          <mxGeometry relative="1" as="geometry" />
        </mxCell>
        <mxCell id="GENL_fKybs1PkxHw5dDO-36" value="หาจำนวน Process&amp;nbsp;&amp;nbsp;" style="rounded=1;whiteSpace=wrap;html=1;absoluteArcSize=1;arcSize=14;strokeWidth=2;" vertex="1" parent="WIyWlLk6GJQsqaUBKTNV-1">
          <mxGeometry x="165" y="360" width="340" height="40" as="geometry" />
        </mxCell>
        <mxCell id="GENL_fKybs1PkxHw5dDO-44" style="edgeStyle=orthogonalEdgeStyle;rounded=0;orthogonalLoop=1;jettySize=auto;html=1;entryX=0.5;entryY=0;entryDx=0;entryDy=0;" edge="1" parent="WIyWlLk6GJQsqaUBKTNV-1" source="GENL_fKybs1PkxHw5dDO-40" target="GENL_fKybs1PkxHw5dDO-43">
          <mxGeometry relative="1" as="geometry" />
        </mxCell>
        <mxCell id="GENL_fKybs1PkxHw5dDO-40" value="เรียกใช้ฟังก์ชัน findavgTime" style="rounded=1;whiteSpace=wrap;html=1;absoluteArcSize=1;arcSize=14;strokeWidth=2;" vertex="1" parent="WIyWlLk6GJQsqaUBKTNV-1">
          <mxGeometry x="220" y="430" width="230" height="60" as="geometry" />
        </mxCell>
        <mxCell id="GENL_fKybs1PkxHw5dDO-46" style="edgeStyle=orthogonalEdgeStyle;rounded=0;orthogonalLoop=1;jettySize=auto;html=1;entryX=0.5;entryY=0;entryDx=0;entryDy=0;" edge="1" parent="WIyWlLk6GJQsqaUBKTNV-1" source="GENL_fKybs1PkxHw5dDO-43" target="GENL_fKybs1PkxHw5dDO-45">
          <mxGeometry relative="1" as="geometry" />
        </mxCell>
        <mxCell id="GENL_fKybs1PkxHw5dDO-43" value="ประกาศอาร์เรย์ &lt;code data-end=&quot;1989&quot; data-start=&quot;1983&quot;&gt;wt[]&lt;/code&gt; (waiting time) และ &lt;code data-end=&quot;2016&quot; data-start=&quot;2009&quot;&gt;tat[]&lt;/code&gt; (turnaround time)" style="rounded=1;whiteSpace=wrap;html=1;absoluteArcSize=1;arcSize=14;strokeWidth=2;" vertex="1" parent="WIyWlLk6GJQsqaUBKTNV-1">
          <mxGeometry x="125" y="520" width="420" height="50" as="geometry" />
        </mxCell>
        <mxCell id="GENL_fKybs1PkxHw5dDO-59" style="edgeStyle=orthogonalEdgeStyle;rounded=0;orthogonalLoop=1;jettySize=auto;html=1;entryX=0;entryY=0.5;entryDx=0;entryDy=0;" edge="1" parent="WIyWlLk6GJQsqaUBKTNV-1" source="GENL_fKybs1PkxHw5dDO-45" target="GENL_fKybs1PkxHw5dDO-58">
          <mxGeometry relative="1" as="geometry" />
        </mxCell>
        <mxCell id="GENL_fKybs1PkxHw5dDO-45" value="รียกฟังก์ชัน &lt;code data-end=&quot;2085&quot; data-start=&quot;2055&quot;&gt;findWaitingTime&lt;/code&gt;เพื่อคำนวณเวลารอ โดยจะส่ง ตัวแปร&amp;nbsp;&lt;span style=&quot;font-family: monospace;&quot;&gt;proc, n, wt&lt;/span&gt;" style="rounded=1;whiteSpace=wrap;html=1;absoluteArcSize=1;arcSize=14;strokeWidth=2;" vertex="1" parent="WIyWlLk6GJQsqaUBKTNV-1">
          <mxGeometry x="125" y="590" width="420" height="50" as="geometry" />
        </mxCell>
        <mxCell id="GENL_fKybs1PkxHw5dDO-47" value="" style="shape=image;verticalLabelPosition=bottom;labelBackgroundColor=default;verticalAlign=top;aspect=fixed;imageAspect=0;image=data:image/png,iVBORw0KGgoAAAANSUhEUgAAAaUAAAInCAYAAAA4QkbgAAAAAXNSR0IArs4c6QAAAARnQU1BAACxjwv8YQUAAAAJcEhZcwAADsMAAA7DAcdvqGQAAH7zSURBVHhe7d13fBRF/wfwz16/y6UXQgkdQg8Qeu8gVbqAICiIiiJFUEAfReyABRWRooACUkV67x1CCwFCCAQS0uvl+u3u/P74kZMsoKgJudx936/Xvh6fndm943J3n5vZ2RmOMcZACCGEuACZdAchhBBSUiiUCCGEuAwKJUIIIS6DQokQQojLoFAihBDiMiiUCCGEuAwKJUIIIS6DQokQQojLoFAihBDiMiiUCCGEuAyOphki/4XBYMClS5dw4cIFxMTE4MaNG0hJSZFWIyWgfPnyqF69OmrWrInIyEg0bNgQfn5+0mqEuBQKJfKPiKIIk8mE+Ph4rFq1CuvXr4fJZILVagXP8xAEAaIoSg8jJUAmk0Eul0OhUECtVkOv16NXr14YM2YMatSoAW9vb8hk1FlCXAuFEnkigiDAaDRiz549WL58OaKiomAwGOBwOKDRaBAcHIwqVaogLCwMISEh4DgO5cqVg0KhkJ6KFCNRFJGUlATGGHJzc3H79m0kJCQgLS0NVqsVcrkcer0eDRs2xMiRI9G3b1/o9Xr6OxGXQaFE/hJjDEajEdHR0Vi0aBG2bduGvLw8eHt7o1y5cqhUqRJ69+6NHj16wM/PD2q1GkqlEhzHOf+XPF12ux2MMfA8D5vNhry8POzbtw9bt27FrVu3kJycjLy8POj1enTq1AmTJ09Gw4YNodfrqeVEShyFEnksURRhNpuxYMECLFiwAJmZmVCpVAgMDMQHH3yAzp07o1y5clCpVNJDiQvieR7Jyck4fvw43nvvPSQnJ8NmsyEgIACvvPIKpk2bBi8vL8jlcumhhDw1FErksXJycjB9+nSsXLkSDocDZcuWxcSJE/Hiiy8iODhYWp2UItnZ2Vi2bBkWLFiAe/fuQS6XY8iQIZg3bx7Kli0rrU7IU0OhRB7p9u3bGD16NM6cOQOO49C+fXv88ssv0Ov1UKlU1M1TyjHGYLfbYTAYMHbsWOzfvx88z6NBgwZYuXIlatWqJT2EkKeCQok8JCkpCf3790d0dDTUajVefPFFTJ8+HSEhIdS142ZEUURmZiYWLFiA7777DlarFbVr18amTZtQpUoVaXVCip38gw8++EC6k3gmxhhycnLw9ttv48CBA/Dy8sL06dMxdepUBAUFUevIDXEcBy8vLzRp0gT+/v6IiopCYmIi4uPj0aFDB+j1eukhhBQr+pYhwP1AstlsWLRoEX777TfI5XK88847eOONN+Dv70+j6Nycj48Pxo0bhzlz5kCpVGLXrl346quvYLFYQJ0p5GmiUCLA/fuQNm/ejDlz5oDneTz33HMYN24c/VL2IFqtFoMGDcIbb7wBQRCwYMECrF+/HoIgSKsSUmzomhIBAOTn56NNmzaIjo5G+/bt8fvvv8PX15daSB6moAt35MiR2LlzJ2rUqIHjx48jMDCQ3gvkqaCWEoHNZsPSpUtx7do16HQ6fP/999Dr9fQl5IE4joOvry9++OEH+Pv7Iz4+HgsXLoTdbpdWJaRYUCh5OMYYDAYDfvzxR4iiiOeeew5Vq1alaWc8mFwuR0hICIYPHw5RFLFixQrk5eXRnIbkqaBQ8nB2ux1r1qzBrVu34Ofnh0mTJtEMDQQqlQqTJ09GSEgI7ty5gx9//JFaS+SpoFDycLm5ufjmm28AAC+88ALq1KlT6od+M8bgcDiQn5+P3Nxc5ObmIi8vD1ar1flrv2BuuKL69V/U5ytpMpkMFStWxNixYyGTybBixQrk5ORIqxFS5Er3tw/5z+Lj45GSkgKVSoXhw4e7xXUkQRCwa9cudO/eHSEhIfD390etWrXw9ttvw2w2AwAcDgd2796N5ORk6eH/itVqxc6dO5Geni4tKrXkcjmGDx8OuVyOu3fv4tatW24TusR1USh5MJvNhhMnTsDhcKBSpUqIiIgo9aEkiiLu3buHCRMmQKVS4ddff8XevXvx0ksvoXr16lCpVBAEAQcOHMCYMWOQnp7+n+/D4XkeO3fuxLhx45CZmSktLrU4jkN4eDiaNm0Kxhi2b98Om80mrUZIkaJQ8mAWiwW7du2CXC7HwIED3WJwA8/z2LJlCzIzM7Fs2TL069cP7dq1w4wZMzB27FgolUpnV5vZbH4okArmhDMajTCZTOB5vlC53W6HIAhgjMFqtTq7BB0OB8xms9u1JORyOfr37w+FQoFt27bBYrFIqxBSpGiaIQ+WnJyMzz//HIIg4J133nGLuc4EQcCxY8ewf/9+vPzyywgODoZSqYRKpYJSqYTVasVPP/2EAwcO4OLFi1CpVIiJiUF6ejrCwsLw+++/47fffsP69euxa9cuxMbGomrVqvD29gYAfP/994iLi0NiYiIWL16M2NhYXLhwAYcOHUJ0dDRUKhWio6ORk5ODqlWrlvrrc7gfxL/99hvsdjsGDx5MM8STYlX6PzHkX0tNTYXVaoVSqUT58uWlxaWSXC5Hv3794Ofnh4kTJyI+Ph55eXlwOBzOVtCqVauwe/du5ywWy5Ytw+7du2G1WvHDDz9g8+bNMBqNSE5OxoIFCzB16lQ4HA4AwIkTJzB79my8/vrr2LNnD3Jzc/Hrr79i//79EAQBmzZtwrJly3Dw4EG3aTWVL18ecrkcZrMZGRkZ0mJCihYjHmvTpk1Mp9OxkJAQlpaWJi0utex2O1u1ahULDAxkZcuWZf369WOHDh1iVquViaLIHA4H27p1K/Py8mLnzp1joigyxhjjeZ7Fx8czo9HIeJ5neXl5bMGCBczb25tduXKFMcbYxIkTmUajYQsXLmRGo5ExxpjD4WC//fYb8/b2ZpcuXSr0XNyBwWBgAQEBTKlUss2bN0uLCSlS1FLyYAXXR+RyOXQ6nbS41FIqlRgyZAjOnTuHMWPG4MaNG+jbty++/vprWK1WaXUnuVyOKlWqwGaz4ciRI/j999+Rl5cHjuNw9+5d5/Unf39/dO3a1a1es79SMLsHz/N/+foRUhQolDyYyWRydjG52zpJCoUCFStWxKxZs3Dw4EE0btwY3333Hc6fPy+t6lRwPaply5YYMWIEZs+ejcWLF4Mx5hxKjvsTl2o0mlI/UvFJcRyHMmXKgOM4mpyVFDsKJQ/mbkEkJZPJoNPpEBwcjHnz5gEALl++LK3mlJGRgQkTJqB27dr49ttv8dtvv2HVqlXQaDSFRunJZDKPCaQCNpvtoZGKhBQHCiUPplarIZPJnDMguANBEJCeno7c3Fznr/qCL9OCBe0KJh3F/ZteC+pcv34daWlpeO211/Dss8+iUaNG8PX1hSAIfzlogeM4+Pj4APe/vPHAY7oDURSd3ZhKpVJaTEiRolDyYFqtFnK5HIIgwGg0SotLJZ7nMWfOHEyZMgWxsbHIyclBcnIypkyZAj8/P7Ru3RpyuRzVqlWDRqPBpUuXkJubi+zsbOh0OnAch1u3biEvLw+XL1/G+PHjYbPZkJeXJ30op4LzqVQqXLlyBbm5ucjJyXGbYMrPz4coilAqldBqtdJiQooUhZIHCw0NhUajAc/zbjOvmSiK8PHxwYYNG1CvXj1UqVIFlStXRn5+Pr788kvnvVje3t5o1aoVJk6ciIoVK+Knn35CjRo10KZNG0yaNAnVq1dHu3bt4O/vj5CQEMTFxQH3W0WPEhwcjEaNGmHcuHGoUKECVq9e7Tatz9TUVAiCALVajYCAAGkxIUWKFvnzYPfu3UPr1q2RlZWFDRs2oHv37tIqpY4oirDb7UhJScGlS5eQnZ2NypUro2HDhvD29nZ2P4miCLPZjK1bt0KtVqNz587Q6/WwWq04efIkkpKSUKdOHdSoUQNHjx5FrVq1ULNmTdy+fRt5eXmoXbs21Gq183EFQXCeT6fToVOnTvD29n5siJUme/bswYABA6DX63H06FHUqFFDWoWQIkOh5MHy8/MxevRobNu2DePHj8eCBQukVUotURTB8zwYY5DL5ZDL5Q8FxIPX0pRKJTiOA2PMeQ1JJpNBJpNBFEVwHAe5XA5RFMEYe+Rgh0edzx3Mnj0bn376KZo0aYJt27bBz89PWoWQIkPddx5Mo9GgW7duYIxh27ZtMBgM0iqllkwmg0qlglqthkKheGRAcBwHlUoFlUrlLOc4DgqFAiqVCgqFAjKZDAqFwjlSUSaTPTLgCo6Vnq+0s9vt+OOPPyAIAvr370/XlEixo1DyYEqlEk2bNoVGo0FaWhpOnTrlNhfnyX8niiLOnDmDa9euQa1Wo0ePHrQAJCl2FEoerlKlSqhcuTIcDgeWL19ON0cSJ57nsWLFCvA8j8qVKztvoCWkOFEoeTgfHx/Mnj0bjDFs2rQJJ0+epGAiEAQBV69exZo1ayCKIl5//XXnvViEFCcKJQ+nUCjQoUMHNGjQAA6HA1988QXsdru0GvEwdrsdc+bMgdlsRv369TF06FC6cZY8FRRKHo67P8vBrFmzoFKpsH//fuzfv5+CyYM5HA6cOXMG+/fvh1wux6RJk5wzYRBS3CiUCJRKJbp37442bdrAarVixowZuHPnzkOrrhL3x/M87t27h8mTJyM/Px/NmjXD4MGDqZVEnhoKJQKO46DRaPDRRx/Bx8cHV69exahRo5Cdnf2Xc74R9yKKIgwGA15++WVcvnwZXl5e+PDDDz1qRnRS8iiUCHB//ramTZtiwYIFUCqVOHPmDD744AO3mROP/D2bzYYvv/wSBw8ehFKpxMcff4xOnTq5/WzyxLXIP/jggw+kO4ln4jgOtWvXhtVqxblz53Dx4kVkZ2cjIiKCRl65ufT0dHz66adYsGABZDIZnn/+ecyaNYu67chTR9MMkYdkZWVh9OjR2L9/PziOQ5s2bbBo0SJUrFiRfjW7GcYYUlNTMX78eBw8eBCCIKBx48bYuHEjypQpI61OSLGj7jvykMDAQCxZsgQvvvgiVCoVjhw5gqFDh2Lbtm1utSSDJ2OMIScnB9u3b8fAgQOxd+9ecByHYcOGYe3atQgJCZEeQshTQS0l8lj5+fn45ptvsGDBAuTl5UGj0eDZZ5/FlClTUKVKFeh0usfOA0dcU8Fs5nfv3sX8+fOxceNGWCwW+Pj44JVXXsG0adOcCyASUhIolMhfstls2Lp1K9566y0kJydDFEX4+vqiX79+GD9+PBo0aAC5XO6cUZvjOAopF8EYc26CIEAQBMTFxeGHH37Apk2bkJWVBZlMhsDAQHz11Vd49tlnodFopKch5KmiUCJ/iTEGURSRkZGBRYsWYdmyZbh3754ziOrUqYNOnTqhTZs2qFWrFsLCwqDX66WnISXAZDIhMTERcXFxOH78OA4cOIDo6GjwPA9BEBASEoIXXngBb7zxBkJDQ6nVS1wChRJ5IqIowmq1Ij8/H//73/+wa9cupKWlQRAE51IPSqXSGVYFI/kUCoX0VKSYmc1mxMfHO1tHDofDucnlcgQHB6NTp0748MMPERQUBI1GQwNYiMugUCL/SMGKrQkJCbh+/TqOHTuGnTt3IjMzE1arFXa7HTzPg7u/KB55+gpatwVrSmm1WgQEBKBbt25o164datWqhWrVqkGn00Emo7FOxLVQKJF/jTEGi8WC/Px8HDt2DLdu3cLt27eRk5MjrVpqmM1m7Nu3D2azGaGhoWjfvn2p7dLSarWoWbMmatSogWbNmiEwMBBarbbU/nuIZ6BQIuQBycnJaNGiBRITE9G1a1fs2LGDuiAJeYqo7U4IIcRlUCgRQghxGRRKhBBCXAaFEiGEEJdBoUQIIcRlUCgRQghxGRRKhBBCXAaFEiGEEJdBoUQIIcRlUCgRQghxGRRKhBBCXAaFEvF4TzL9Y8FieYSQ4kWhRDyWIAi4cuUKJk6c6Fz87lHsdjvWrVuHyZMnIzs7m8KJkGJEoUQ8lsPhwLvvvoulS5dizJgxMBqNDwUOz/OIjY3FxIkT8eOPP2LhwoVwOByF6hBCig6FEvFoKpUKNpsNly9fxi+//AK73e5cqoLneRiNRsycORPp6emw2WwICAig9YgIKUYUSsRjKRQKjB8/HlqtFjzP4/PPP0daWpozlKxWK65evYrDhw+D4ziEhYVh2LBhtL4SIcWIQol4LIVCgXbt2uGZZ56BXC5HSkoK1q5dC7vdDgAwGAyYMmUK8vPzoVAo8Oabb8Lb25taSoQUI1p5lng0xhjOnTuHTp06wWg0Qq1Wg+M4WK1WqNVqCIIAURRRrVo1nDlzBr6+vhRKhBQjaikRj8ZxHBo1aoQhQ4ZApVLBbrfDarUCAGw2GwRBgFqtxowZMyiQCHkKKJSIx1MoFJg8eTK8vLykRZDJZKhUqRL69OlDgUTIU0ChRAiA2rVr4/nnn4darS60X6fT4f3330dQUFCh/YSQ4kHXlAi57969e2jbti0SEhLAGINcLkfNmjVx8uRJ+Pr6SqsTQooBtZQIua9cuXIYOnQoVCoVAMDHxwfz5s2jQCLkKaJQIuQ+juMwdepUhIeHQyaToXHjxmjfvr20GiGkGFH3XQkxm81YsmQJli5dClEUpcWkhPA8j5SUFBiNRvj6+qJs2bI0wMGFVKhQAZ988gkiIyOlRcRNUCiVkLS0NDRv3hyJiYkUSoQ8IZVKhV69emHTpk3SIuImKJRKSEJCAiIjI2E0GhEREfHQqC9CSGG3bt1CcnIy2rVrh8OHD0uLiZugUCohBaGkVCoRFRWF8uXLS6sQQh7w5ptvYsGCBRRKbo4GOhBCCHEZFEqEEEJcBoUSIYQQl0GhRAghxGVQKBFCCHEZFEqEEEJcBoUSIYQQl0GhRAghxGVQKBFCCHEZFEqEEEJcBoUSIYQQl0GhRAghxGVQKBFCCHEZFEqEEEJcBoUSIYQQl0GhRAghxGVQKBFCCHEZFEqEEEJcBoUScUkOhwNnz57F5s2bYTKZpMV/i+d5JCUl4fz580hOTobNZpNWKXGCIODevXuIiorCvXv3YLVapVUI8TgUSsQl2e12zJgxA1OnTkVWVpa0+C/Z7XYsX74czz77LIYMGYJ+/fph9erVMJvN0qolxuFwYPXq1ejfv7/zOa5YseJfBTAh7oRCibisxo0bo1GjRvDy8pIWPZYgCIiJicG7776LiIgIfP/992jYsCHef/99nDt3DqIoSg956gRBQGxsLKZPn45atWrhhx9+QLNmzfDxxx/jxIkTLvEcCSkpFErEJXl5eWH27Nn4+eefERAQIC1+LJvNhm+++QZly5bFggUL0K1bN8yfPx9BQUH4448/YLfbpYc8EcYY7HY77HY7GGPO/aIowm63w+FwFKr/V+x2OxYuXIiAgAB899136Nq1Kz7//HNUrFgRmzZt+tfPkRB3QKFEXJIgCPj+++/x1ltv/aMuLbvdjnPnzqFHjx7QaDTgOA7e3t5o2rQp9u7di7y8POkhT8RqtWLcuHF46aWXCj2fW7duYcSIEZg6deoTB5PD4cCpU6fQpUsXaLVacBwHvV6PZs2a4ciRI8jJyZEeQojHoFAiLishIQFXr16FIAhwOBy4du0aTp8+/cjtxo0b4HkegiAgJycH4eHh4DgOAMBxHBo2bIj8/Hykp6dLH+aJqNVqjBw5Env27MHs2bORn5+P7OxsfPLJJ7h69SrefPNNAEBsbOxDz61gu379uvM5ZmRkoGbNmpDJ/v8jyHEc6tevD5PJhLS0NMmjE+I5KJSIyxJF0Xl9RRAEfPTRRxg7duwjt3nz5kEQBIiiCJPJBL1eX+hcZcuWBWMMGRkZhfY/KZlMhvbt22P69OlYtWoVdu7cie+//x4HDhzAzJkzERYWBlEU8cUXXzz03Aq2Tz75BIIggDEGg8EAb2/vQo9RpkwZMMYolIhHo1AipYJcLsf48eMxe/bsR26jR4+GXC6XHuYkCAJwP1z+LaVSiRdffBHNmzfHtGnTsGTJEgwaNAj9+vWDSqWCXC7HmDFjHnpuBdu4ceP+8vEFQQDHcX9ZhxB3R+9+UirI5XI0aNAAbdq0eeRWt25dyGQyyGQy6PV6GAyGQsdnZGSA4ziEhIQU2v9P+fn54f3334fFYoFarcarr77qHB0ok8lQr169h55bwVa/fn3I5XJwHAcfH5+Hrm9lZmYCAEJDQwvtJ8STUCiRUsFiseCVV1556Iu+YJsyZQpsNhvkcjkCAgIQExNTaJTc6dOn4ePjg8DAwELnfdCD9R/HZrNh5syZ4HkemZmZWLp0qXOAg81mw6RJkx56bgXb66+/DqvVCrlcjjJlyiAmJqbQ8O/z589Dr9cjODj4gUckxLNQKJFSQa1WY+DAgZg4ceIjt759+0KpVEKtVqNt27bYtWsXDAYDGGPIysrCuXPn8Mwzz8DPz096agBAeno6tmzZgtzcXGlRIXPnzsXFixexatUqvPPOO/j111/x22+/QRRFKJVKPPvssw89t4Ktf//+UKlUUKlU6NixI/bv34+8vDwwxpCdnY0zZ86gU6dO8Pf3lz4sIZ6DkRJx+/ZtFhAQwMqUKcOSkpKkxR6P53n26quvslatWrHc3FwmiiKz2+3MarU+crPb7UwURcbzPLt69SorV64cGzx4MDt8+DDr378/q1SpEjt58iQTRVH6UIwxxj7++GMWEhLCVq5cyex2u7SY8TzPtmzZwgICAti7777LjEYjy83NZWPGjGHVq1dncXFx/+g53rhxg5UrV47169ePHTlyhA0dOpRVqlSJHT58+LHP0dNNnDiRAWDt2rWTFhE3Qi0l4pI4joOfnx+CgoKgVCrBcZyzJfSoraCOXC5HtWrV8M033+Du3bsYO3YskpKS8PXXXyMiIsI5TFxKp9PBarXi9u3bj5xRIT09Hd9++y06dOiAqVOnQqvVwsfHB++88w4qV66MadOmwWq1PvFzrFy5MhYuXIiMjAy89NJLiI+Px+eff46mTZs+9jkS4gk49iQd6aTIJSQkIDIyEkqlElFRUShfvry0ikdjjMFsNkMUReh0ur8cWfcooijCYDAgPj4eVatWhV6vh1KplFZzSk9PR8+ePfH+++/jmWeegUKhKFTO8zzy8vKg1Wqh0WicI+QEQYDFYoEgCPDy8nrouL8iiiLy8/MRFxeHqlWrwtvb+y+fo6d78803sWDBArRr1w6HDx+WFhM3QS0l4pI4joOXlxe8vb3/cSDh/kg4Pz8/REZGwt/f/2+/7Dds2ABBENC0adNHBotCoUBgYCB0Ol2hIdtyuRx6vR6+vr6PPO6vyGQy+Pr6okmTJggICPjb50iIJ6BQIuR+QGzevPk/DxknhPw3FEqEABgzZgzCwsLoxlVCShh9Agm5P+ScAomQkkefQkIIIS6DQokQQojLoFAihBDiMiiUCCGEuAwKJUIIIS6DQokQQojLoFAihBDiMiiUCCGEuAwKJUIIIS6DQokQQojLoFAihBDiMiiUCCGEuAwKJUIIIS6DQokQQojLoFAihBDiMiiUCCGEuAwKJUIIIS6DY4wx6U5S/BISEhAZGQkAOH78OIKDg6VVCCEPmDFjBpYsWYJ27drh8OHD0mLiJiiUSsidO3fQuHFj5Ofnw9fXFyqVSlqFEPIAg8EAo9FIoeTmKJRKSFJSEpo1a4aUlBRwHAeO46RVCCEPKPiq6tatG3bt2iUtJm6CQqmEWK1WfP/997hw4YLzw0ZKXl5eHo4ePQqDwYDy5cujbdu2kMno0qurUKlUGD16NNq3by8tIm6CQqmEMMbgcDjA87y0iJSgtLQ0tGnTBsnJyejYsSM2b94MhUIhrUZKiEwmg0KhoL+JG6NQIuQBycnJaNGiBRITE9G1a1fs2LGDvgAJeYqoX4IQQojLoFAihBDiMiiUCCGEuAwKJUIIIS6DQokQQojLoFAihBDiMiiUCCGEuAwKJUIIIS6DQokQQojLoFAihBDiMiiUCCGEuAwKJeLRRFGExWKBKIrSIifGGHieh9VqpRndCSlmFErEY4miiISEBHz++ecwGAyPDRxRFHHmzBksXLiQZnUnpJhRKBGPZbVa8frrr+Pzzz/HwIEDYTQapVUgCAJu3LiBIUOGYNasWVi+fDnsdru0GiGkiFAoEY/FcRwsFgtsNhuOHz+Oo0ePwmazFapjNpsxffp0JCcnw2q1Ii8vj1YJJqQYUSgRj6VQKDBmzBgoFArYbDZMnToVWVlZznKHw4H4+HgcO3YMAFC1alUMGzYMcrn8gbMQQooShRLxWAqFAoMGDULTpk0hl8tx69YtHDx40Nk9ZzAY8NZbbyE3NxcKhQJjx45FSEgILY9OSDGilWeJRxNFEVu2bMHw4cNhsVig0+kgCAJsNhvUarVz5F1oaCji4uKg1Wqp+46QYkQ/+YhHk8lk6NGjh7O1ZDabndeVbDYb7HY7VCoVPvjgAwokQp4CCiXi8TQaDT788EPodDppEeRyOSpXroyBAwdSIBHyFFAoEQKgWbNmaNCgAVQqVaH9Op0On3/+Ofz9/QvtJ4QUDwolQgBotVp888038PPzc+5TKBSoVasW2rZtS60kQp4SCiVC7qtfvz6aNWsGhUIBAPDx8cEnn3xCrSRCniIKJULuU6lU+PTTTxEcHAyO4xAZGYm2bdtKqxFCihGFEiEP8PX1Rd26deHv74/XXnvtoWtMhJDiRfcpEY/G8zySkpIQGxuLdevWYe/evcjKygLP8/D390fPnj0xaNAg1K5dG2FhYc6uPUJI8aBQIh6lYKmKnJwcHD9+HLt27cLly5dx8+ZNmM1m4P6IOwCwWCxgjEGr1aJ69eqoX78+nnnmGbRp0wZ+fn7Q6XQ0uwMhRYxCibg9nudhNpuRnp6Oa9eu4dixY9i8eTPu3r0Lu90OhUIBb29vVKxYEXXq1EG3bt0gk8lw8OBBXLhwAXfv3oXRaITdbodarUZYWBh69uyJTp06oVatWggNDYVWq4VSqZQ+NCHkH6JQIm6HMQZBEOBwOMDzPOLi4vDtt99i8+bNMJlMEAQBcrkcSqUSKpUKHTp0wIwZM1C3bl1oNBrnhKsF0w3duHEDc+fOxfbt253n5HkecrkcOp0O3bt3x1tvvYVatWpBoVBAqVRCLpfTMHJC/gUKJeJ2rFYrtmzZgt9++w2XL19GYmIiBEFwri5boUIFPPfcc+jduzfCw8MRGBgImUwGjuMeChLGGBhjEEUR2dnZiIuLw9atW7F27VrcvXsXjDHIZDIoFAqUL18e9evXx8CBAzFw4MBHzhBBCPlrFEqk1BMEAQkJCTh9+jT27duHQ4cOISsrCxaLBYIgQKFQoGHDhmjevDm6deuGli1bQqPRQK1W/6MWTUE42Ww2WCwWREVFYceOHTh16hQuXboEu90OuVwOjUYDPz8/dO7cGV26dEGzZs1QtWpVWvKCkCdAoURKJavViszMTJw7dw5r1qzB2bNnkZ2dDbPZDFEUodPpUK5cOXTt2hUjR45E+fLl4efnB41G42wV/RcPBlRubi6Sk5OxZs0a7NixA8nJyTAajZDJZNDpdAgMDERERARGjhyJpk2bIigoCFqtVnpKQgiFEiktBEGAyWRCeno6zpw5g6NHj+LEiROIj4+H1WqFQqGAXq9HpUqV0K5dO7Ro0QKtWrVCSEgIlEplsY+SE0URDocD2dnZOHbsGE6cOIHTp0/jxo0bMBqNEAQBKpUK1atXdz63li1bokyZMtDr9dSKIuQ+CiXiktj9dYwKWkRJSUlYtWoVNm/ejJycHPA8D5VKBZ1Oh5CQEDRq1AjPP/882rVrB41GU+L3EwmCAKvVihMnTuCXX37B+fPnkZKSArPZDIfDAZlMBn9/f/Tt2xcjRoxApUqVEBgYCI1GA6VS+Z9bcoSUVhRKxKUUDCzgeR779+/HggULcP78eWRlZUEUReeXtZeXF8aNG4dRo0ahUqVK8PX1ddkvcsYYDAYD7ty5g99++w3fffcdTCaTs0wmkyEwMBD16tXDm2++iR49ekChUDxy4AUh7o5CibiMlJQUbNu2DYcOHcKpU6eQmprqHIItl8tRr1499OnTB23btkXDhg3h7e3t7Jpz9S/vgmtQDocDJpMJFy9exKlTp7Bp0yZcvnzZOUxdpVIhJCQEzZo1Q6dOndCrVy9UqFBBejpC3BaFEikxNpsNd+7cwcWLF/HHH3/g0KFDyM/Ph9VqBc/z8PX1RdWqVdGqVSsMHToUNWvWhLe3N1QqVakIosd5MKAMBgPi4uKwceNGHDlyBLdu3UJeXp5zFJ9er0ebNm0wYMAANGrUCJUrV4ZarZaekvwLBTdVq1QqaDQaaTEpIRRK5KkRRREmkwmZmZk4cuQItm/fjmvXruH27duwWq0AAD8/P5QrVw49e/ZE586dUbNmTYSGhj6VwQolpSCg0tLScPPmTRw8eBBbt27FvXv3kJubC8YY1Go1KleujPDwcPTp0wft2rVDcHAw9Hq9274uf8XhcCAnJwcGg0FaBK1WCz8/P3h5eUmLCklKSsKbb76J0aNHo0+fPtJiUkIolEix4nkeRqMRqampiI6OxpEjR7Bjxw4kJSVBEAQolUp4eXmhevXqqFevHnr16oWOHTs6R6SV1tbQv8Xuz0aRn5+PkydPYsuWLc65+fLz8+FwOCCXyxEaGopnnnkGnTp1Qt26dVG+fHl4eXl5zFRHJpMJAwYMwJkzZ+Dl5VXofeLr64vt27ejUqVKhY6Runr1Knr27Il33nkHr7zyirSYlBAKJVKkCgYpOBwO2Gw2XL16FV988QUOHjzonOC04NqJt7c3evbsiSlTpqBq1arObjnyJ8YYbDYb7t69i7lz52Lbtm3OefgEQQDuTyDbrl07TJo0CY0bN3aO4CsYLOGOjEYj+vbtC7PZjNmzZxd636jVajRu3Bh6vb7QMVIUSq6JQokUqdzcXGzYsAHr169HbGwskpOTIQiCc1Rd7dq1MWLECHTu3Bk1atSAr6/vY6f4If+v4LUTRRFGoxFxcXHYt28ffv31V1y7dg0AwHEc5HI5ypQpg1q1amHQoEEYOnRooeXd3YnRaES/fv2g1Wrx+++/P3Sf15O8nyiUXBOFEvlPRFHEtWvXnFP8HD16FLm5ubDZbBAEAWq1GpGRkWjTpg26dOmCiIgIeHl5lfrBCiWlIJzsdjssFgsuXryIgwcP4tixYzh9+jRsNhtkMhk0Gg18fHzQqlUr59RKtWvXfujLu7R6MJT++OOPh/5dPM/j4sWLWLFiBZKTk5GVlYWwsDCMGTMGbdq0gUqlemQoiaKIy5cvY+XKlbhz5w58fX0xbNgwtG/fHkqlEqmpqVi8eDGOHz8Oi8WC6tWrY/LkyahTp06J3xvnLiiUyD/CGIPVakV6ejpOnTqFn3/+GTExMcjLy4PFYgEA6PV6BAUFYfDgwRgwYADCwsLg6+tbaoZvlyYFAWUwGHDv3j38/vvv2LBhA1JTU2E0GiGKovPCf61atTBq1Ci0bdsWZcqUgUajKbV/i4LuO4VCgZUrVxYKJa1WC5VKhR07dmDmzJlo3rw5KlasiK1btyIrKwvHjh1D2bJlcePGjUKhxBhDfn4+2rVrB4VCgT59+iAqKgodO3bEG2+8gaysLPTt2xfp6ekYOnQoNBoNfvvtNygUCuzZswdly5Ytta+nK6FQIn+rYLBCWloajh49iuPHj+PkyZO4c+cO7Ha78/pQjRo10K5dO7Rq1QrNmjVDQECAW1/XcDUF1/Nyc3Nx9uxZnDp1CocOHcL169dhNBphs9mgUqkQFhaGli1bok2bNmjTpg1CQ0Oh1+tL1SAJo9GIPn36ICYmBg0bNix0Taldu3aYMmUKLBYLHA4H/Pz8wBhDbGws2rdvj2HDhmH+/Pm4fft2oVASRRHHjh1Dx44dsX//fjRr1gyiKDpHPy5ZsgRz587F2rVr0ahRI3Ach+vXr6N79+54//33MWbMGKhUqkLPk/xzFErkkex2O2w2G1JTU3Hjxg2sX78ev//+u3PmbZVKBb1ej7Jly6JZs2Z44YUXEBkZ6Zx5m5S8gvWgLl68iDVr1uDw4cPOFlRBN59Op0OPHj3w/PPPIzw8HKGhoVCr1VCpVC79Y6IglAqC5cFQioyMxLBhw6BQKGAymZCYmIjs7GxcuXIF8+fPR0BAAPbv34+kpKSHQunq1ato164d+vbti0mTJqF69erQarXIz8/HkCFDkJOTg/nz5xd6bWbOnInAwED88ssv8Pb2du4n/xIjhDEmiiITBIEJgsCsVitbvXo1a926NfP392dyuZxxHMdkMhmTy+UsJCSEzZgxgyUkJDCj0chEUZSejrgYURSZ0WhkCQkJ7KOPPmJlypRhcrmcyWQyxnEck8vlzM/PjzVt2pT9+uuvzGw2O98Prvj3zc/PZ506dWK9evViPM9LixljjCUlJbFmzZoxHx8fJpfLne/j2rVrs9zcXBYTE8MqVarEvvvuO+cxDoeDLV68mGm1Wubr68ueffZZlpKSwpKTk1lYWJjztZJu1apVY5mZmYUen/w71FIiEEURd+/exR9//IGDBw/i/PnzyMzMhMPhcLaKmjZtil69eqF169aoU6eO854YukZUehQMkuB5HiaTybk0/M6dO52DJOT3V+QNDAxEo0aN0LZtW/Tv3x9Vq1Z1qeH6fzfQwWQy4d1338XatWvx2WefoWnTpihXrhyGDBmC5ORkHDt2DCaTydmd9+GHHwL3XyOHw4HExERs2LABCxYsQPfu3TFr1iw8++yzqFWrFj799NNCjwUAKpUK5cqVo8EORYBCyUOZzWbcunUL58+fx6ZNm3D27FkYDAZYrVYIgoCAgACEh4ejXbt26NevH6pXr+4cNSf9AiClU8EgCaPRiMTERGzcuBGHDh1CXFwcMjIyIJfLoVar4e3tjWbNmjmnOqpaterf3gNU3P4ulLKystC2bVvUqFED69atg1KpBM/zaN++PfLy8nDixAkAQJ8+faDT6bB58+ZCa1wxxmCxWDBhwgQcPnwYe/bswezZs3HmzBkcOXIEISEhDzza/6MfZ0WDQsmD5OXlIScnBzt27MDu3btx/fp1JCYmwm63QyaTwc/PD1WrVkXPnj3RoUMHVK9eHYGBgW49xQ/5fwUtqKysLMTHx+Po0aPYtm0b4uLikJOTA8YYVCoVypcvj/DwcPTo0QO9e/eGn58ffHx8nvr74+9CKS8vD7169cKtW7ewfv16+Pj4YPny5ViyZAmCgoJw4sQJ+Pv746uvvsJ3332HF198EaNHj0ZKSgqOHTuGrl27wmq1Yvz48fD19cUff/yBK1eu4Pnnn0eDBg0wbtw41KtXz/nDrmnTpujQocNDz4P8cxRKbqqgG6LgQu+VK1ewZ88e7Nq1Czk5Oc5uOW9vb4SHhyMyMhLdu3dHmzZtoNFoPHKKH/L/Crr5bDYbjh8/jp07d+LSpUu4cuVKoUES/v7+6N69Ozp16oSGDRuiYsWKzlF8xf3esVgsGD58OPR6PZYvX/5QGDgcDuzbtw8TJkyA1WqFXC5HhQoVUKNGDURFRWH37t2oUKECEhISMGfOHOzfvx/Tpk2DWq3GvHnzYDQawRiDv78/PvvsM/To0QM2mw2rV6/G999/j8zMTOD+a+Xr64sPP/wQ/fr1K1UjGF0VhZIbEUURgiDAbrfDZDLh7NmzmDt3Ls6cOQObzQaO46BQKKBWq+Hj44OhQ4di/PjxqFSp0lP5IilOoigCwFP/xe4JCn7gpKWl4fvvv8fatWuRnZ0Nm80GnuedQ6YjIyMxdepUtGzZEnq93tnVWxx/E/H+JLYF92E9iiAIyMnJweXLlxEUFISaNWsiPz8fdrsdZcqUcV7/4XkeFosFVqsVAQEBMBgMuHjxIhQKBRo2bAgvLy/nv6EgrOPj45GWlgadTof69etDq9U+FIzk36FQciOpqalYt24dNmzYgJs3byIzM7PQFD/16tXD+PHj0bZtW1SuXBleXl5u0SISBAExMTEICgpCuXLlpMVPXUF3qLtd9C5oQZlMJiQkJODkyZP44YcfcOnSJXD3p/WRy+UIDAxElSpVMHDgQAwfPhxly5aVnqrIMMb+8v1b8N6H5JqP9JgH60iPeVzdv6pD/j0KpVJMEARcvnwZR48exaFDh3Dy5Enk5+fDZrNBFEXodDq0bNkS7du3R8eOHVGrVi3odDq3GzV3/PhxPPfccwgPD8f27duLdb2hn3/+GfPnz8fOnTsRFhZWqCw/Px+zZs3C1q1bIYoiOnTogPnz5yMoKKhQvdKuIJwcDgcsFgtu3LiBI0eOYN++fTh58iRMJhNkMplzkETTpk3RpUsXtG7dGhEREW4X1qRoUSgVoczMTKxYsQJ169ZFixYtinwyTFEUYTabkZmZiT179mDNmjW4fv068vLyYLfbwXEcfH19ERYWhgEDBmDEiBHw9fWFt7c3FApFsXSjuIK4uDgMHDgQ4eHhWLNmzV9+6RX8Cv4nrwW73331008/4Z133gHP8zh9+jTq1q3rrGOxWPDOO+9gzZo1mD59OlQqFT755BMMGDAAc+fO/du1fUqzgm5jg8GA7OxsbNy4Eb/99hvu3buHvLw8iKIIlUoFX19fVK9eHSNGjEC3bt0QHBxcqGuMEFAoFa1PPvkEX3zxBWQyGXr16oW33noLNWvWfGyf95NwOBzIz89HYmIijhw5ghMnTuDUqVNITk4Gz/NQqVTw8/ND3bp10a5dO7Rs2RKNGjWCn5+fW3TNPQm73Y7U1FTodLrHtkrY/XnNzp07h8uXL2PSpEnSKo/FGMO+ffvw4osvombNmjh16hROnz6NevXqOcuTkpLQvn17jB07FtOnTwcALF++HLNnz8a2bdsQEREhOat7YvfXgyq4LnPq1CkcOHDAOT+i1WqFQqFAuXLl0KxZM7Rp0wZt27ZFxYoVnasKEw/353205L+aO3cu8/Hxcc5+ULFiRfbzzz+zzMzMx951LiWKIrNarSw7O5tdvXqVrVu3jg0ePJj5+voyhULB5HI50+l0LDQ0lEVGRrIJEyaws2fPOu/A90QWi4X98ssvbP/+/dIixhhjZrOZXbt2jU2bNo2Fhoayl156SVrlL4miyLKzs9k333zDNm3axPz8/Fh0dLSznOd5tmvXLubr68suXrzo3H/79m1Wvnx5tnz5co/92wiCwCwWC4uOjmZTpkxhTZo0YWXLlmU6nY7J5XKmUCiYXq9n/fr1Y2vWrGFXrlxh2dnZzGKxuORMEqT4USgVIZPJxN544w2m0WgYx3EMAFMqlaxRo0bs1q1bj/1iKpjih+d5ZrPZ2JIlS1j9+vWZj4+PcxqYgil+ypcvz+bNm8cSExOZxWKRnsojpaenswYNGrDx48cX2l8wZdInn3zCypQpwwICAtiiRYuYwWBw1uF5/pHb46bX2b59O/P39y8UShaLhc2ePZv5+fkVOrfBYGDVqlVjU6dOZWaz2bnfk1mtVpaSksLmz5/PqlSpwhQKRaH3uLe3N6tXrx779ttvmdls/su/BXFPFEpFSBRFZjab2Z49e1jHjh2dHzaFQsHKlSvH3nrrLZaXl1foA8bzPIuJiWEfffQR69KlCytbtizTaDTOebqUSiXr1q0bW7BgATt16hQzGAzMarXSB/UBjwolu93OFi1axBo3bsz8/f3ZzJkzWWxsLLNarc7XLT8/n1WtWvWRW+3atdn333//wKP8v0eFktFoZKNHj2b+/v6FWsQOh4OFh4ez4cOHFworT1bwA8xms7H8/Hx27tw59t1337FnnnmGqVQq59xyGo2GhYSEsM6dO7MPP/yQRUdHP3FvAyndPPKaktVqxenTp5GVleW8v6UoORwOZGdn46effsL58+eB+8NG1Wo1GjZsiE8++QQNGzbEwYMHsXjxYly8eBFGoxFWqxWMMQQFBaF+/fro2LEj+vbti/Lly0On00FFy4U/UkZGBrp06YKWLVvi+++/x+3bt/Haa6/hypUraNGiBT744ANUrVoVOp2u0OvncDiwYsWKQucqIJfL0ahRIzRs2LDQ/h07duD555/HkSNHnNeUTCYTxo0bh127diErK8t5HY/nedSvXx8NGjTAsmXLSnxqHldUMIrPZDIhJSUF27dvx759+xAdHY309HTn50av16NevXoYOHAgypYt61wK3t1wHIfKlSujXr16xTqK1JV5ZCj9+uuvePvtt5GdnV0soVRAEISHPjwymQwhISF45plnsGfPHqSkpDifA8dxGDt2LPr374/IyEj4+/vTekRPQBpKmzdvxssvvwwvLy8sXrwYrVu3hl6vf+h15Hke2dnZhfYVkMlk0Gq1D42ae1QoWSwWfPjhh1i0aBGSkpKcx5jNZkRERKBnz5749NNPodPpCp2LFMYeWA/qwoUL2Lx5M5YuXQqHwwHc/5sUfFFLP1fuguM4lCtXDtu2bUN4eLhH3pDrkaE0ZswYrFq1yvlmf9oUCgVCQkJQq1YtXLt2DQaDwblqq7+/P7p06YLu3bujQYMGqFKlinMiVOmXKvl/D4bSokWLYLPZsG7dOixduhR37tzB8OHDMXLkSFSuXLnQaqtWqxWjRo2Sng64/zcaPHgw+vfvX2j/o0LJ4XBg48aNeO2113DmzBlUr14dAJCSkoKWLVti8uTJeO2112gKmsdgjMFutzsnCb58+TIOHDiA3bt3IysrC4wxaLVa+Pj4IDQ0FDExMSX22X1alixZglGjRnnkaESPDKURI0Zg3bp1EEURISEhxfJlUbBaa35+vnMfx3HQaDSoXr061q5diypVqiAtLQ0///wzVqxY4VxS3OFwgDEGpVKJiIgITJs2Da1atYK3tzfUarVb33P0b0hDqYDdbsfXX3+Nb7/9FjabDZ999hmeffZZeHt7Q6lUwmw2PzaUVCoVBg4ciIEDBzr3iaKInTt3OkOpbt26zrv5ExIS0LZtW8ybNw+DBg0CAJw4cQLDhw/HunXr0LJlywfOTtj9e78KlnI/ffo0vv32W5w4ccIZOEql0hlGBVNi3b59G6+//jrMZrP0lKWe2WxGdnY2GGNYvHgxXnjhBY8MJY8c6DB8+HDnUNQLFy4wu91epJvVamUbNmxgtWrVco7CA8D0ej376aefWG5urnOggiiKjOd5ZjAY2NWrV9myZctYZGQkk8lkDACTyWRMoVCwoKAg1rx5c/bJJ5+wtLQ06T/Joz1qoEMBh8PB7ty5w6ZMmcICAgJYREQEW7VqFWP3L7o7HI7Hbg+OlhRFkZ0/f54tWLCAeXt7s/Xr17OrV68yh8PBGGMsLy+P9e7dm1WuXJmdPHmSnT59mlWvXp1169aNZWVlOc9D/l9mZib77LPPWOvWrVlwcDBTKpWF3vMRERHs+++/Z1euXGEGg4E5HA7nIAnp580dNrPZzH755RemUCgYALZ48WJms9mkL5tH8OhQ8vb2LjSKqihcv36dTZgwgQUEBDjfYGq1mg0bNoxFRUUVGv31oIIPXME9SmfPnmVffPEF69OnDwsICHCO4tPpdCwwMJD16tWLffzxx+zkyZPOL0ZP9VehxO4PDc/Pz2fHjx9nw4YNY4MGDZJW+Vs2m40FBAQ476/R6/WsefPmLCcnh7H7oyhTU1NZnz59WFBQEAsKCmIdOnRgCQkJNGrs/o+Dc+fOsc8//5z16dOHBQYGMp1OxxQKBeM4jvn5+bGePXuyzz//nJ0+fZplZ2d71ChTh8PB1qxZQ6HkqaPvCrrvtFotTpw44bw28F/dunULPXv2xN27d2G1WqFUKhEaGoovvvgC3bt3h6+v7xNfFyq46Jufnw+DwYANGzZg3bp1uHv3rrOfXaFQwM/PD5UrV8aIESPQtWtXlC1bFt7e3h7VvWexWJCXl+ccRPI4BTMNGAwGVKpUSVr8lwRBwK1bt/Dgx8Xb2xv+/v7QaDTOOnl5eYiPj4coiqhWrRp8fX2LpXvY1bH7M2ikpqZi7969+PXXX5GQkIDc3Fxn91xgYCDCwsIwePBgPPvsswgKCnL7KbEeh+d5bNiwASNHjgTP8x7dfUehVIShNG3aNCxcuBBWqxU+Pj4YMmQIXn75ZTRs2PA/jaJh9yfANBgMuHz5Ms6ePYuDBw/iwoULyM3NdS5jXbZsWTRu3BitWrVC586dUbFiRY/9UixJBR+pJ/0B4i54nkdeXh7u3r2LgwcP4sSJE4iKisK9e/cgiiKUSiX8/PxQv359dOjQAS1btkTDhg2diwR62uv1IAqlP1EoFWEorV+/Hv/73/+g0+kwadIkDB482PkruigV3Ntx8+ZNrFy5EsePH8ft27eRm5sLu90Oxhh0Oh3atm2LoUOHolGjRihbtqxzjRtP+xVKikfB+9BoNCIlJQVXr17FL7/8gsOHD8NsNoPjOOdErJUqVULr1q0xatQohIeH02rGEhRKD5D253mC4rqmJAgCMxgMzGw2P9V+cJvNxjIyMtiiRYtYjRo1mFwud84mwXEc0+l0rGrVquzrr79mJpOJpm4h/1rBtU+e51l+fj774YcfWI0aNZhOp3O+3wqmxKpWrRr79ttvWXp6OrNardJTkQfQNaU/UUupCFtKKMGuG1EUwfM8bDYbbt68ifPnz2PTpk04cOCAc9XZguXPa9WqhY4dO+LZZ59FgwYN/lPXIvEcjDFcunQJW7ZswaFDhxATEwODwQDH/RVg1Wo1OnTogAEDBiAyMhLVqlWDVqt13gD+tD8TpQm1lP5EoVTEoeQKCrpVzGYzUlJSsHv3buzduxeXLl1CWloaGGPQaDTw8vJCnTp10L9/fzRt2hT169eHt7e39HTEQzHGYDabndcxt27disuXL8NoNDp/6AQHB6NBgwbo2LEjnnnmGVSoUAFeXl7UPfcPUSj9iULJDUPpQeyB9W1u376NM2fOYNOmTYiJiXEOklAqlQgODka1atXQrVs39O7dGxUqVICPj89fLphH3E/BiM+UlBRs2bIF+/btw40bN5Ceng6Hw+Fcvys8PBwDBgxAq1atUKVKFfj6+nrM+l3FgULpTxRKbh5KUqIowm6349KlS9i7dy+OHz+O6Oho5OXlOS9O6/V6dOjQAZ07d0bjxo2dy6g/OEUPcR9WqxUmkwlxcXE4d+4cDh06hP379yM/Px+iKEKn08Hb2xsNGzZE8+bN0bVrVzRu3BhqtZpaQ0WEQulPFEoeFkoPKmhFGY1GLF68GMuXL0d6ejpMJpNzqiOFQoHatWtjwoQJ6N69O/z8/KBWq2kuvlKM3Z/ix2q1wmAwYM+ePVi0aBEuX74Mh8MBjuOgVCrh5eWF4OBgDB8+HK+++qpHrWb8tFEo/Yl+5ngwjuOgUCjg6+uLqVOnIioqCmfOnMHPP/+M9u3bQy6Xw263Izo6Gq+99hoiIiLQtm1bvPvuu7h7926hG0lJ6cAYQ2pqKj788EO0bdsWERERGD9+PKKiomCz2SCTydCqVSv89NNPOH36NKKiojBz5kwEBgbSjPXkqaCWkge3lB6lYBSfxWLBnTt3cOzYMRw+fBiHDx9Geno6ZDIZlEol9Ho96tevj7Zt26Jz586IjIx8aJkH4hrMZjPOnz+PAwcO4PDhw85Rc3a7HaIoIigoCO3atUOHDh3QunVrVKlSBTqdziNnVigp1FL6E4UShdJjsftTHZlMJmRnZ2Pfvn1YtWoVbt26hZSUFLD7M5n7+PigfPnyGDJkCPr06YPQ0FAEBgbSr+oSlJWVhZSUFOzatQtr167F3bt3nUHEcRxCQ0NRpUoVPPfcc+jRowcCAwPh5eVFraESQqH0JwolCqUnwu5PdWS1WnHlyhWcOnUKhw8fxunTp5GXlwer1QqO4xAYGIhGjRqhdevW6Ny5M6pVq0aLFRazgmtEBfPuFbRsL1y44FxdWa1Ww9fXF02aNEHHjh3RokUL1K9fH1qt1uOn+HEFFEp/olCiUPpXCgZJJCUlYc2aNdi7dy/i4+ORnZ0Nq9UKURShUqkQGRmJ0aNHo2HDhqhUqRL0ej2N2ioCoijCZrPBbDbj9u3buHjxIlavXu1cj0gmk0Gj0cDf3x9Vq1ZFhw4dMHz4cFSpUoV+ILggCqUH/Dm5g+cormmGPJnD4WC5ubls7dq1rG7dukwulzO5XO6cekalUrHg4GD2ySefsNTUVJrq6F94cIqftLQ09vnnn7Py5cszlUrlfJ0LXvfw8HD2888/s5ycHI9f2qQ0oGmG/kQ/V0mRUCgU8Pb2Rv/+/XHq1ClER0dj9erVGDJkCLRaLRwOB7KysjB79mzUqVMHbdq0wdSpU3HixAmIoig9HXmEU6dO4a233kKHDh1Qp04d/O9//0NqaiocDgfUajUGDhyIFStW4NKlS4iKisKIESPoBmhS6lD3HXXfFYsH74HKzMzE7t27sX//fly6dAl37951du/p9XqEh4ejS5cuaNu2LRo3bgw/Pz+P715ijCE3NxfR0dE4evQodu/ejWvXrsFoNDoHK1SoUAENGzZE165d0b17dwQFBdFghVKKuu/+RKFEofRUFARUUlISoqKisH79ely8eBFZWVmwWq2Qy+UIDAxElSpV0LlzZ/Tv39+5HpSnfDALBiskJSVh48aN2LdvH+7cuYOMjAwIggC1Wo3AwEA0bNgQAwcORJMmTZzTQdFghdKNQulPFEoUSk9dwYSxsbGx2LdvH44dO4aLFy8iMzMTZrMZAKDT6dCyZUt07NgRrVq1Qu3ateHl5QWdTic9XalmsViQn5+P69evO0c0Hj9+HEajEbj/OgQFBaF+/fpo1aoVunbtijp16kBF62K5FQqlP1EoUSiVOEEQYDKZ8Msvv2D58uVITEwstCSCQqFAxYoVMW7cOAwZMgQ+Pj6ldibqB2dwz8vLw/bt27FgwQIkJCSA53nnzcne3t4IDg7Gyy+/jBEjRjin+CHuiULpT6XrE03cklwuh7e3N1555RUcO3YM586dw/r16/HMM884pzqKj4/HzJkzERERgWbNmmHKlCmIi4srVYMkRFHEzZs3MWPGDDRr1gwRERGYNGkS4uLiYLfbIZPJ0KVLF6xevRrnzp1DVFQUJkyYgICAAAok4jGopUQtJZdTMJOExWJBSkoKTp8+jQMHDmD//v1ISkoCx3FQq9XQarWoWbMm2rdvjw4dOqBNmzYutx6U2WzG0aNHcfjwYRw5cgRXr16FxWKBzWYDAISGhqJLly7o0KEDWrZsifLly0Oj0UCpVNI1Ig9CLaU/UShRKLm0glF8FosFOTk5OHz4MNatW4crV64gJSUFDofDORdfUFAQhg4dimeeeQZVqlRBSEjIU/9iF0URWVlZiI+Px65du7BhwwakpqY6R82pVCqEhoaibt266N+/P7p27Qp/f3/odDqagduDUSj9iUKJQqlUKVgP6tq1a7h48SL27duHEydOICsryzlIwtfXFxEREc6BEvXr14evry/UanWRf+kzxmCz2WAwGHDlyhUcOHAAp0+fxvnz52EwGJzrEQUEBKBly5bOyWtr1aoFjUZT6q6JkeJBofQnCiUKpVKL3Z+PLzk5GZs2bcLOnTsRHx+PtLQ0WCwWiKIImUyGRo0aYdiwYWjatCmqV68OHx+f/xQIBXMAGo1GxMfH4/Tp01i/fj3OnTsHnufBcZxz1FyNGjXQtWtXDBgwAJUqVaKh2+SRKJQe8MDsDh6DphlyT4IgMJPJxHbu3MmaN2/OFAoFk8vlTCaTOafgCQoKYlOnTmWZmZmM53nG8/wTTXUkiqKzfk5ODps+fTorU6YMUygUjOM4JpPJmFwuZ0qlkjVq1Ij9/vvvzGQyMUEQpKci5CE0zdCf/t1PRUJckEwmg1arRZcuXXDgwAFcu3YNGzduxEsvvQRfX18IgoDs7Gx8++23qFKlCpo1a4axY8di//79EARBejonnudx/PhxjB8/Hs2bN0elSpXw9ddfIyMjAzzPw9fXFyNHjsTGjRudMzD06tXLOQM3IeTJUfcddd+5rYJBEgX3BB08eBB79uxBVFQU4uLiwBiDXC6Hj48PwsLC0LVrV3Tq1AkNGjSATCbD5cuXceDAAezZs8d571RB91y1atXQuHFjdOvWDe3bt3euR0SDFci/Qd13f6JQolDyGKIowmw2Izk5GdeuXcPq1atx+vRppKenw2azgeM4+Pv7o1y5cgCAlJQU5OTkOOfpCwkJQWRkJJ577jlERESgXLly8PLyAsdxFETkP6FQ+hP1LRCPIZPJoNfrUbNmTfTt2xe//vor9u7diy+++AJDhw5FtWrVYLPZEBMTg8uXLyM/Px9hYWEYPHgwPvvsM+zZswdr167F4MGDER4eDm9vbxq4QEgRo1AiHonjOCiVStSoUQOvv/46fv31V1y4cAFfffUVvLy8AACRkZG4dOkSVq9ejTfffBPh4eF0UyshxYxCiZAHBkn06NEDPj4+AACtVvufho4TQv45+rQRcl/BtaGClhBdKyLk6aNQIoQQ4jIolAghhLgMCiVCCCEug0KJEEKIy6BQIoQQ4jIolAghhLgMCiVCCCEug0KJkCckiiKys7ORmZn52C0rKwsmkwkeOKUkIUWCQomQJ8AYQ0ZGBoYMGYIBAwZgwIAB6N+/P/r164d+/fo59w0aNAg//fQTRFGUnoIQ8gQolAh5AhzHQaVSoVGjRmjcuDEaN26M2rVr48aNG3A4HM59jRo1QoUKFaSHE0KeEIUSIU/Iz88Ps2fPxscff4yPP/4Ys2bNQkBAANq2bevc99FHH6FXr140Xx4h/xJ9cgh5QhzHQafTwcvLC15eXtBoNFAoFFAqlc59Op0OKpUKGzduxIkTJ3Dp0iV8++23WL9+PTIzM3H27FncuXOn0HkNBgOOHTuG1NRU5z673Y64uDh8/fXXmDRpEubMmYPLly/DbrcXOpYQd0OhREgxWLVqFSZPnowXXngBX331Fe7du4ekpCQMGTIER44cKVQ3LS0NgwYNQlRUFHA/kE6fPo3hw4fj559/RmJiIjZu3Ihhw4YhOjoaPM8XOp4Qd0KhREgxKFeuHKKjo9GmTRucOnUKb775JuRyOURRfOQgCFEUnSP20tPT8fbbbyM0NBR79uzBunXrsGfPHvj7+2PWrFnIz8+XHk6I26BQIqSYBAQEYPr06QgJCflHS2CcOXMGycnJmD9/Pnx9feFwOODj44MPP/wQMTExuHfvnvQQQtwGhRIhxcTb2xtqtVq6+y/xPI+EhAQkJyejXbt2qF69unMbOnQosrOzYTQapYcR4jYolAgpJkqlstAovIKl1DMzMwvVY4w5u+5kMhnsdjsCAwMxZ84czJ8/37l99913WL58OapVq1boeELcCYUSIcVEunKtj48POI7D5cuXC834kJ6eDpvNBsYYOI5D5cqVIZfL0aZNGwwZMqTQNmjQIAQHBzuPJcTdUCgR8pR4e3ujYcOG2L59O86dO4e0tDScOHEC06ZNg81mQ0ZGBgRBQNOmTREQEICXX34ZUVFRSE9PR1paGq5fv47169fDarVKT02I26BQIuRfkslkUKlUUCqV0iIolUpnd10BLy8vzJw5EwqFAh07dkTHjh3Rp08fVKtWDQEBAc7h3pUrV8aCBQuQkpKCTp06oUOHDmjTpg2aN2+OTz/9FLm5uYUeixB3QqFEyL/k4+ODTz/9FIMHD5YWYdSoUfj444/h7e3t3CeTyRAZGYmoqCjMnTsXI0aMwLFjx/DTTz/hiy++QJ8+faBQKCCXy9GuXTucPn0a69atw8CBAzF06FCsXbsWu3fvRkhISKHHIsSdcMwDpzMeMWIE1q1bB61WixMnTqBevXrSKsRDJScno0WLFkhMTETXrl2xY8cOKBQKaTXg/gAFQRDAcRzkcnmhsoIbXOVy+UPDwUVRhMPhgCiKUKvVzsENMpmsUP2C8xfM4qBSqR55PlL68TyPDRs2YOTIkeB5HosXL8YLL7wAlUolrer2qKVEyL/EcZyzZSOlUCigUCgeGSAymQxqtRpardY5Ok+lUj1Uv+D8Op0OOp3uoXJC3BGFEiGEEJdBoUQIIcRlUCgRj8YYA8/zf7tSrCiKEARBupsQUsQolIjHEgQBR48eRe/evXHp0qXHho7dbsfixYsxatQomEwmaTEhpAhRKBGPZbfb8f7772Pfvn0YM2YM8vPzH2oxORwOHD16FDNmzMD69evx448/0ppGhBQjCiXi0TQaDURRxJUrV7B69WrYbLZC5UajEdOnT0dubi54noefnx+NgCOkGFEoEY+lVCoxYcIEqFQqCIKAL774Aqmpqc7WUkErKSYmBhzHoX79+hg4cOBj71sihPx3FErEYykUCvTo0QMdOnSATCbDnTt38Mcff8DhcAAAMjMzMWPGDNhsNiiVSkyZMgVeXl7UUiKkGFEoEY8mk8kwc+ZM553zX331FTIyMgAAV69exc2bNyGTyVCvXj0MGzaMWkmEFDMKJeLRZDIZWrRogZ49e0KpVDqn/8H9YeCiKEKj0eC999575MSrhJCiRaFEPJ5KpcKMGTOg1WqlRVAqlYiIiEC3bt2o246Qp4BCiRAA9evXR+/evR+aANPLywtz586FTqcrtJ8QUjwolAi531p67733EBwc7GwRKRQKNG3aFJGRkdLqhJBiQqFEyH3h4eHo3LmzczBDUFAQvvzyS2g0GmlVQkgxoVAi5D6O4/Dee++hYsWKkMvl6NSpE2rVqiWtRggpRrTIXwkt8peRkYEtW7YgPT1dWkRKkM1mw/r163Ht2jWMGTMG1atXl1YhJUSpVKJly5Zo3ry52w3Np0X+HsA80PDhw5lCoWDe3t4sOjpaWvxUvPHGG8zLy4sBoI022p5gUygUrF69eiwrK0v6cSr1HA4HW7NmDVMoFAwAW7x4MbPZbNJqHoFaSiXUUqpTpw6uXbsGHx8f+Pj4SIsJIQ+wWCwwGo3w9vZGVFQUKlasKK1SqlFL6QHSlPIErtBSql27NgPA5syZIy0ihEjcvXuXBQcHs6CgIHbnzh1pcalHLaU/0UAHQgghLoNCiRBCiMugUCKEEOIyKJQIIYS4DAolQgghLoNCiRBCiMugUCKEEOIyKJQIIYS4DAolQgghLoNCiRBCiMugUCKEEOIyKJQIIYS4DAolQgghLoNCiZBiYrfbkZeXB0EQpEWEkMegUCKkmHzxxRcYOHAgbt68KS0ihDwGhRIhxWT37t24dOkSLXlPyD9AoUTcAmMMj1pE+XH7H+dx9R+33+FwwGKxPLJs3bp1+OWXX9C0aVNpESHkMSiUSKmXl5eHixcvIj4+vtB+xhiio6MRHR0Nu91eqOxRBEFATEwMYmJi4HA4nPtFUURiYiLOnTsHs9lcKICWLl2KIUOGIDc317mvgCAIKFOmDERRlBYRQh6DQomUelqtFkuXLsWgQYNw5coV4H6Q/PLLL+jXrx8uXrwIhULhbO08bpPJZDh58iQGDRqElStXwuFwQBAE3Lp1C3369MGyZcugVCrBcZzzsbOysnDr1q1HDmbYuHEjnn/+eSQnJ0uLCCGPQaFESj2lUolJkybBbrdj+PDhSE5ORkxMDN555x00btwYAwYMgN1ux7Jly/Dee+89clu+fDkcDgeGDBmCJk2a4LPPPkN0dDRyc3Mxbtw45OfnY8aMGZDL5dKHfyyj0QiDwfBErTRCyP+jUCKlHsdxqFKlCr777jtkZGRgzpw5eOONN1CuXDksWLAAOp0OoigiKioKBw8efOR24cIFiKIIX19ffPjhhwgNDcXrr7+OOXPmIDo6Gt999x0qVqwIxhjS0tKQmJiIxMRE5OXlwWq1Ij09HYmJibh37x6MRuMjrzERQp4A80DDhw9nCoWCeXt7s+joaGnxU1G7dm0GgM2ZM0daRP4ls9nMPv30UyaTyZiXlxc7dOgQ43meMcaYKIpMEATmcDgeuQmCUOhcu3fvZn5+fkytVrP33nvPuT8jI4OFhIQwtVrN1Go1k8vlTCaTMaVSydRqNfPy8mLffvstczgc7KOPPmIVKlRgMTExhc5N/rm7d++y4OBgFhQUxO7cuSMtLvUcDgdbs2YNUygUDABbvHgxs9ls0moegVpKxG0oFArUqVMHjDGIooiKFSs6r/8IgoBLly7h6NGjj9yio6MLXRcKDg6GXC6HXC5HjRo1nPu1Wi3efPNNTJs2DdOmTUPbtm0RGBiIiRMnYtq0aXjrrbcQGRkJmYw+WoT8G/TJIW5BFEVcvHgREyZMwLhx49CwYUOMGjXK2ZVmtVoxa9YsDBo06JHb+++/77z2k5ycjBkzZqBy5coYP3483n77bRw7dgwAoNPpMGXKFMyYMQMzZsxAu3btEBgYiMmTJ2PGjBl4++230bRpUwolQv4l+uQQt3Dnzh1MnDgRwcHBePfddzFv3jzcunUL06ZNg9lshkqlws8//4wzZ848clu8eDEUCgXy8/Px0UcfISEhAV9++SXefvtt1KxZE5MmTUJiYiIYY9BoNNDpdNDpdFAqlZDJZFCr1dDpdNBqtVAoFNKnRwh5QhRKpNQzGAz46KOPkJGRgdWrVyMsLAwtWrTAu+++i99//x0bNmyAKIooU6YMqlWr9sgtJCQEALBq1Sps374dr7zyCpo1a4bAwEAsWrQI2dnZmDVrFqxWa6FBDBzHQSaTFRom/mDZo/YTQh6PQomUenfv3kXZsmXx/vvvIzw8HAAgk8nw0ksv4Y033sCdO3dgMpmkhz3EbrcjJycHb775JkaPHg2NRgOFQoGqVati7ty58Pf3R3p6eqFQatKkCZ5//nkolcpC5wKAxo0bY9y4cfDz85MWEUIeRzrywRPQ6DtCShcafec5qKVECCHEZVAoEUIIcRkUSoQQQlwGhRIhhBCXQaFECCHEZVAoEUIIcRkUSoQQQlyGx4eSKIoQBOGpb4QQQh7GMQ9c+GXEiBFYt24d5HI5evfujaCgIGmVYrdx40ZkZmZizpw5ePfdd6XFhJAHJCYmIjIyEowxREVFoWLFitIqpRrP89iwYQNGjhwJnuexePFivPDCC1CpVNKqbs8jQ+mFF17AmjVr4HA4pEVPHYUSIX+PQslzeGT3Xe3ataFUKqFQKEpso4k6CSHkYR7ZUsrPz8exY8eQmZlZYstWz5w5E/fu3aOWEiFPgFpKnsMjQwn33wSiKEp3PzURERG4fv06hRIhT4BCyXN4ZPcd7i+drVKpSmyj7jtCCHmYx4YSIYQQ10OhRDyGKIol2mVLCPl7FErEIzDGcPPmTcTHx5fY4BZCyN+jUCIeITMzE4MGDcKwYcOQnZ0tLSaEuAgKJeIRdDodWrRogTZt2kCr1UqLwRh7ohbUk9YjhPw7FErEI2i1Wnz00UeYNWsWNBqNtBi7d+/G9evXwfO8tKiQXbt2ITY29m/rEUL+HQol4hEEQcDq1auxZs2aR06IO3jwYCxduvRvp54aNGgQfv7557+tRwj5dyiUiEew2+3YvXs39u7dC7vdLi0mhLgICiVCCCEug0KJeBxBEBATE4OpU6c6N6vVioMHD2LGjBmYOnUqPvvsM2RmZuLy5cuF6tlsNuzfv99Z7/PPP0dubq70IQgh/xKFEvFI6enp+OOPP5wbYwwJCQnO/79jxw4wxpCamlqoHgDcvn0bW7ZsKVSPEFI0KJSIx5HJZGjcuDE2btzo3JRKJXr27Im1a9di48aNWLJkCfR6PZo1a1aonkKhQJ8+fQrV0+l00ocghPxLFErE43AcB19fX0RERDg3hUKBMmXKoH79+oiIiEB4eDi0Wi38/PwK1ZPL5ShTpgzq1auHiIgI1KxZE2q1WvoQhJB/iUKJEEKIy6BQIh6B4zgolUoolcpHLhuiVqshl8sfWfYgtVpNKwcTUowolIhHUKlU+Omnn7B48WKoHrFw2sWLFzFr1iwolUppUSGXL1/G9OnT/7YeIeTfoVAiHkGhUCAoKAhBQUFQKBTSYlSoUAG+vr6Qy+XSokKetB4h5N+hUCKEEOIyKJQIIYS4DAolQgghLoNCiRBCiMugUCKEEOIyKJQIIYS4DAolQgghLoNCiRBCiMugUCKEEOIyKJQIIYS4DAolQgghLoNCiRBCiMugUCKEEOIyKJQIIYS4DAolQgghLoNCiRBCiMvgGGNMupMUvzp16uDatWt466238MYbb0iLCSEPyMrKQocOHaBSqRAVFYWKFStKq5RqPM9jw4YNGDlyJHiex+LFi/HCCy88cpVkd0ehVELq1auHq1evgl5+Qp5cUFAQzp8/j7CwMGlRqUah9CfqvishdevWfeSy3ISQx9Pr9fS5cXPUUioh6enpuH79OgRBkBYRQh7D398fdevWhVKplBaVatRS+hOFEiGElDAKpT9R9x0hhBCXQaFECCHEZVAoEUIIcRkUSoQQQlwGhRIhhBCXQaFECCHEZVAoEUIIcRkUSoQQQlwGhRIhhBCXQaFECCHEZVAoEUIIcRkUSoQQQlwGhRIhhBCXQaFECCHEZVAoEUIIcRkUSoQQQlwGhRIhhBCXQaFECCHEZVAoEUIIcRkUSoQQQlwGxxhj0p2EeDKbzYb4+HhkZ2dLiwgpFqIo4uDBg5gzZw4EQcDixYvxwgsvQKVSSau6PQolQiQ2btyIqVOnwmw2S4sIKRaMMdjtduTn54MxhiVLlmDUqFEUSoQQYPz48Vi6dClEUQTHceA4TlqFkGKjUCiwYsUKDBo0CAqFQlrs9iiUCJEYM2YMli9fDqVSiVq1akGr1UqrEFJsatSogfnz5yMkJMQjfxBRKBEiURBK/v7+iIqKQpUqVaRVCCHFhEbfEUIIcRkUSoQQQlwGhRIhhBCXQaFECCHEZVAoEUIIcRkUSoQQQlwGhRIhhBCXQaFECCHEZVAoEUIIcRkUSoQQQlwGhRIhhBCXQaFECCHEZVAoEUIIcRkUSoQQQlwGhRIhhBCXQaFEPBpjDFarFTabDX+1tJgoirBYLOB5/i/rEUL+Gwol4tHsdjtmzZqFjz76CBaLRVoM3A+utLQ0jB07Fps2bQLP89IqhJAiQqFEPJYgCNi9ezd+/PFHfPXVV1iyZAmsVqu0GiwWC1577TVs3LgR77777mPDixDy31EoEY/FcRwqVKgAQRBgNpsxf/58pKWlFeqeczgcOHXqFPbu3QubzQa9Xg+O4wqdhxBSdCiUiMeSyWSoV68eevfuDblcjtTUVKxdu9bZWmKMwWQyYebMmTCZTJDL5Rg5ciTUarX0VISQIkKhRDyaQqHApEmToNVqwfM8vvvuO9y6dQsAwPM8Tp06hcuXL0Mmk6FBgwYYO3YslEql9DSEkCLCMRpKRAhGjhyJtWvXgud5cBwHURQhk8kQHByMtLQ0qFQqLF26FMOGDYNCoZAeTggpIhRKhAC4cuUK2rZti9zc3EL7OY6DTCZDZGQkjh07Rq0kQooZdd8RAqBmzZp47rnnoNFoCu1njEGtVmPWrFnUQiLkKaCWEiH3JSUloXXr1khMTHSOwFMqlWjVqhW2b98OLy8v6SGEkCJGLSVC7gsNDUXv3r2do+s4joNer8dnn31GgUTIU0KhRMh9CoUC77zzDqpUqQKO4yCXy9GiRQs0atRIWpUQUkwolAh5QIUKFTBgwAAolUoEBQVh3rx5dF8SIU8RXVMqRQwGA7788kv8/vvvNCloMcrLy0NiYiLUajUqVaoElUolrUJKiFwuR7du3fD+++9Dp9NJi4kboFAqRQ4ePIiBAwciNzeXQol4JI7jEBoainPnzqFcuXLSYuIGKJRKCZ7n8cMPP2DKlCnQ6/WoU6eOtAohbi0tLQ137txBSEgIzpw5g/Lly0urEDdAoVRKGI1GvPrqq1i3bh2ee+45rFixQlqFELfFGMNXX32FmTNnombNmjh27Bh8fHyk1YgboIEOpYTRaMS5c+egUqnQr18/aTEhbo3neURHR8PhcKB8+fLQ6/XSKsRNUCiVEjdv3kRaWhq8vLxoiDLxOCaTCXFxcVCr1Wjfvj1kMvrqclf0ly0lLl26BLPZDD8/P/j7+0uLCXFr2dnZuHXrFjQaDTp37iwtJm6EQqkUsNvtuHLlCgRBQNmyZanrgnicU6dOwWg0omzZsqhUqZK0mLgRCqVSwGKxIDY2FgqFAh06dKCJQYlHYYzh0KFDsNlsqFq1Kv0oc3MUSqVAbm4u4uLioNFo0LVrV2kxIW7NbrcjJiYGgiAgPDwcWq1WWoW4EQqlUuDs2bPIy8tDSEgIqlWrJi0mxK3l5+cjPT0dWq0WkZGR4DhOWoW4EQqlUuDo0aOwWq2oXLkyvL29pcWEuLW0tDRkZWVBp9OhSZMm0mLiZiiUXJzVakV0dDQAoEaNGjQ5KPE427dvh9VqRa1atRAUFCQtJm6GQsnFmUwmpKamQqVSoUmTJpDL5dIqhLgtURSxdetWOBwONGrUiK4neQAKJReXkZGB9PR06HQ6NG/eXFpMiFvLy8tDXFwcOI5D/fr1qafAA1Aoubjdu3fDYrGgevXqKFOmjLSYELd279492O12eHl5oUaNGjTIwQNQKLkwxhi2bdsGm82GiIgIWj+GeJz4+HjY7XZ4e3ujevXq0mLihiiUXFheXh5u3LgBuVyOevXq0WJzxOPs2rULDocDLVu2pJGnHoJCyYWlpaXBbDZDq9WiVq1aNAkl8Sg8z+PAgQMQBAHt27eHRqORViFuiL7lXFhCQgKsViu8vLwQHh4uLSbErd27dw/JyclQKBRo0KABTa/lISiUXFhB10WzZs08bkEzxhhEUYQgCM7tUetRiqIIURQfWfZviKIIq9UKm81WZOck/xxjDFevXoUgCPD29kZISAgNcvAQFEouShRF7N69Gw6HA23btvWo+zMYY8jLy8OdO3dw7do1XLp0CdevX0d6erq0KtLT053LehQFs9mMV155BR999BEcDoe0mDwljDFcvHgRgiAgODiYbpr1IBRKLqqg60KpVHpc14XRaMTQoUPRrl07PPPMM+jXrx+6d++O5s2b4+WXX0ZeXh4YY2CMYerUqejVqxfWrl0rPc2/IggC4uPjkZiYSC2lEnbs2DEIgoAePXp41I8yT0eh5KJu3LgBnufh5eWFcuXKeVTXhSAISE1NRd26dfHNN99g2bJl+PzzzzF48GBs2bIFr776qrNl1KRJE1SrVq1IJ6ot6BIkJcdms+Hs2bNgjKFfv3408tSDUCi5IMYYoqOjwfM8AgMDERISIq3iEWrWrInevXujW7duGD58OGbPno3Zs2dj69at2LFjB3iex6hRo7B27VpERkYC9187h8OBvLw8ZGZmwmKxOK9NZWdnIy8vDw6HAwaDASkpKcjLywPP83/ZKmKMwW63O6d8ysrKgtVqdYaXzWaDxWJ56ByMMVgsFthstodCjjEGq9UKs9lcqKzgsSwWC3ieL3SMpxBFEVevXkVubi58fHwQHh5O02t5EAolF3XkyBEIgoCuXbvSTbMAOI6DTqfDqFGjULduXSxatAhWqxVnz57FO++8g7S0NDDGYLPZsHXrVowZMwajR4/GtGnTkJOTA5vNhlmzZmH+/PnYsWMHRo8ejVGjRmHUqFHOG5SloVKA53msWLECL7/8MkaOHIkXXngBM2fORGpqKniex6JFizBhwgTk5eUVOs5gMGDChAlYtGjRQ+dmjGHZsmV45ZVXkJ6eDkEQgPsLOq5YsQKvvfYajEZjoWM8hSAIOHXqFBhjKFeuHE0t5GEolFyQw+HAyZMnIYoievfuTV0XD1Cr1WjZsiXS09PhcDhw8+ZNHDp0COnp6RBFEefPn8eLL74ImUyGOnXqIDo6Grdu3YLVakVMTAy+/PJLjBkzBl5eXoiIiIDZbMaIESOwYsWKxw5scDgc2L59O3JyclCtWjWEhobil19+wRtvvAGj0Yhq1aph27ZtOHnyZKHjoqOjsWPHDlSuXPmR95h17doVR44cwcsvvwyDwQCe57Fz5068//77CAwM9NibRUVRxNmzZyGKIqpXr07vf0/DiEsRBIFdunSJqdVq5uPjw+7cuSOt4vZycnJYgwYN2BtvvMFsNluhMkEQ2JdffskqV67M0tPT2bfffsvCwsLYiRMnmMlkYmPHjmV16tRhJpOJ2Ww2ZrFYGM/zLDc3l7Vt25b5+vqyJUuWMIvFwqxWKzMajezFF19klStXZllZWSw3N5e1atWKjRw5klmtVsYYY6IoMqvV6jzGarWyJUuWsLCwMLZv3z6WlpbG6tWrxyIjIxnP887nOXToUFajRg2WmJhY6N9QQBAEtmPHDubv788+/vhjdunSJVanTh3Wq1cvZjAYpNU9htlsZg0bNmQcx7EFCxY89B4g7u3hn2+kRD34K7FMmTI06ugR8vPzoVarH2p9KBQK1KpVC0lJSfjss8+QmZkJhUJR6HpE48aNMXDgQGg0GqjVami1WowfPx4ZGRm4du2asxvtQRzHQaFQID8/H+vWrcO7776LLVu2wGAwIDk5GX5+fpg1axbi4+Nx/vx5AMDNmzexf/9+vPXWWwgODpaeEgAgk8nQsWNHvPPOO/juu+8wZMgQaLVafPHFF/Dy8pJW9wiMMRiNRly/fh0cx6Fbt24eNfKUUPedy3kwlKpUqUJTqzzCjRs3oNfrH7r4rVAoMHbsWAwePBirV69Gr169sHDhQphMJuc1nZCQkEJBz3EcqlSpAgC4du2aM4B4nncOQLDb7Vi3bh169uyJDz/8EFFRUUhLSwPHcTCbzVAqlWjTpg0CAgKwcuVKMMawa9cu6PV6dO/e/S+7nzQaDUaMGAGlUon4+HiMGjUKVapUeShwPYUgCDh58iSsVivKly+PcuXKeexr4anor+1iRFHEhQsXwBhDly5d/vILzdOIoojc3Fzs3LkTVatWfei1kclk8PHxwYIFC7B+/XoEBwfjf//7H/bs2eMcycbz/EOtodzcXABA9erVoVQq4e3t7RylxxiD2WzGtGnToNfrsX79eqxatQo//fQTvL29wRgDx3EICAhAnz59sHLlSiQlJeHHH39Eq1atEBQU9JfD+QvuiyoY/n/gwIFHjuTzFDzPY//+/eA4DrVr137ohwdxfxRKLqRgCPGVK1cAAD169IBSqZRW8xiMMfA8D57n4XA4YDQa8f7770MQBMycOfOhUVmMMQiC4LzheNWqVZDJZFi+fDnsdjsAIDY2FllZWc5wstvt2L9/P3x9fVGvXj1otVqULVsW8fHxyM7OhsPhwLlz55CRkYEPPvgAdevWRVBQEBwOR6Eh21qtFlOmTIFarcbkyZNx9+5dvPfee3/Z/coYQ2xsLMaMGYPWrVvju+++w+XLl/HRRx/BarVKq3sEh8OBCxcugOM4NGzYkELJA1EouRBBEHD69GmYzWaUKVMGlSpV8uiui/T0dFy4cAFnz57Frl278PLLL+PHH3/E2LFjH/kr2mazYdmyZdi7dy9iY2Nx8OBBWK3WQl9u169fx/jx43H69GlcvXoV69evx6xZszB48GB4eXlBLpdj6NChyMvLw6RJk3DhwgUEBwdDJpNhx44duHLlCvbs2YNRo0YhIyMDmZmZwP1uwKCgILRs2RKbNm1C06ZNERYW9ti/H2MM+fn5eP3116HVavHtt99i2LBheOWVV7BmzRr8/vvvHtla4nkeCQkJAIDWrVs/9DcmHkA68oGUHIvFwqZPn84AsA4dOjCj0Sit4hEMBgNr1aoVCw4OZuXLl2cVKlRgZcuWZdWqVWOrV69mBoOBiaLIGGPsxx9/ZNWrV2dnzpxhubm5rE+fPqxcuXKsfPnyrEyZMqx9+/YsIyOD5eTksLZt27LIyEjWvHlzVr58eee5J06cyHJycpggCIzd/zv88MMPrFy5cqxVq1bMZDKx0aNHs8DAQOe5x48fzxo3bswmTZrkHHFns9nY0qVLGcdxbN26dczhcBT6dz3Ibrez6dOns/Lly7OzZ8866+bk5LDx48ez2rVrs9u3b0sPc2uCILBbt24xhULBlEoly8jIcP6diefgmCf+HHNRRqMRzz77LA4cOIA33ngDX3zxxUNdVJ7A4XDg7t27SElJcXa7cRyH8PBwBAYGFnpNkpKSkJiYiNq1a0Ov18NoNOLixYtIS0uDn58fGjduDH9/f5hMJvTp0wfBwcGYP38+4uLikJOTg0qVKjmPfbBVYzKZEBcXB4PBgDZt2sBgMODMmTPIy8tDSEgI6tevj5iYGJQpUwbVq1cHx3EwGo0YMmQIsrKysH//fuj1+sdeTxJFEefOnQNjDI0aNXJeHxMEAenp6bh58yYqVaqEihUrSg91WzabDUuXLsXEiRPRoEEDnD59+qHrhsT9USi5kNzcXDRu3BgJCQlYu3Yt+vfvT8Nhi0heXh769OmD8uXLY/ny5UUa9oIgIC8vD7/++is++eQTfPPNNxg0aBB1Pf1D+fn5GDx4MPbv34+xY8fi22+/pfe/B3p0hzd56kRRhMFgQFJSEuRyOfWnFzGO4yCXyx97jee/SEpKwmuvvYbPPvsM48aNw4ABA+hv9y/k5+fj2rVrkMvlaNKkyWNbmcS9Ff0nlPwrPM9jz549EAQBNWvW/NuhxOSfKZh2qKCrrSiZzWZYLBbMmTMHH3zwgUePmPwvcnNzkZubC5lMhoiIiGL5AUFcH3XfuQij0Yjnn38e27dvx/PPP4/FixfTl1sRKhhejvs32RZlMImiCJ7nIZPJqLvpXxJFEXv37kXPnj3h4+ODlJQUunHcQ9FPERdhMpkQExMDmUyGJk2a0K/EIsZxHJRKJZRKZZEGEu63wlQqFQXSf2C1WrF3717IZDK0atWKAsmD0TefizAYDMjKyoJMJkPjxo2L/IuTEFdmsVhw4MABKBQKdO7cWVpMPAiFkgsoWGk1Pz8fKpUK9evXp1AiHiUlJQVJSUlQKBTOBRuJZ6JQcgF2ux27d+8GYwxNmzb9y/tbCHE3jDHcuXMHRqMRSqUSlStXllYhHoRCyQUU9KcrFAp07NhRWkyIWxNFEbGxsbBarfDx8UH58uWlVYgHoVByAWlpaUhISIBCoUDTpk2lxYS4NbPZjNOnT0OpVKJ79+40YMTDUSi5gMTEROTn50OhUKBatWrSYkLcWn5+PqKioqBSqdCvXz9pMfEwFEoljOd5xMXFweFwwNvbGxUqVJBWIcStFSwnotfrUadOHWkx8TAUSiXMarXi5MmTkMlk6Ny5c5HOyUaIq2OM4dKlS7BYLPD394e/v7+0CvEwFEolzGg04uzZs1Aqlejdu7e0mBC3xvM8rly5AofDgbCwMPj4+EirEA9DoVTCbt68ifT0dOh0OkREREiLCXFrJpMJsbGxUKvV6NixI90KQSiUStqVK1dgNpvh4+ODwMBAaTEhbi07Oxvx8fHQaDTo2rWrtJh4IAqlEmS323HlyhUIgoBy5cpR1wXxOKdOnYLRaERoaKhHLWhIHo9CqQSZzWZcu3YNCoUCnTp1ovsziEcRRRFHjx6F1WpF5cqV4eXlJa1CPBCFUgnKzc1FbGwsNBoNevToIS0mxK3Z7XZcvXoVoigiPDwcWq1WWoV4IAqlEnTu3Dnk5+cjJCQEVatWlRYT4tby8/ORmpoKrVaLpk2b0iAHAlAolRzGGI4fPw6LxYKwsDDo9XppFULcWlpamnPkafPmzaXFxEPRyrMlxGq1om/fvjhw4ACGDx+OefPm0cJ+xKMsXLgQn376KZo1a4bNmzfTjbMEoFAqOdnZ2WjXrh2uXbsGb29v+kASj5OdnQ2z2YxXX30Vc+fOpdlMCEChVHKysrLQoUMHxMfHg/4ErkMURfA8D1EUIZfLoVQqpVVIEVKpVPjmm2/wwgsv0DUlAlAolRyHw4GNGzciJiYGoihKi0kJsVgsWL58OXJyclChQgWMGDECcrlcWo0UkZCQEAwbNgwhISHSIuKhKJRKCGMMgiBQILmYjIwMdOzYEXFxcWjdujV27NgBjUYjrUaKiEwmc26EgEKJkMLS09PRrl07xMbGom3bttizZw+FEiFPEf08IYQQ4jIolAghhLgMCiVCCCEug0KJEEKIy6BQIoQQ4jIolAghhLgMCiVCCCEug0KJEEKIy6BQIh5NEATYbDYIgvDYOQgZY+B5Hna7/bF1CCFFg0KJeCyHw4GlS5ciODgYv/zyC+x2u7QKcH8+vKlTp6JevXq4c+cOTQ1FSDGiUCIei+d5/PbbbzAajZgxYwaysrIgCEKhOna7HVu2bMGyZctw69YtLF68GDzPF6pDCCk6FErEY8lkMtStWxe4vwrqjBkzYDKZCrWEDAYDPv74Y5hMJnAch8jISJo8lJBiRJ8u4rEUCgUmTpwIX19fAMC2bdsQFxcHk8kE3L+WtHv3bsTGxkImk6FVq1Z45plnaCkLQooRhRLxWHK5HNWqVcNLL70EhUKB7OxszJ07F1arFQCQnJyM2bNng+d5qFQqTJkyBWq1mhajI6QY0dIVxKMxxnD79m20bNkSGRkZhUbXFYSPTCZDly5dsHPnTgokQooZtZSIR+M4DpUrV8Zrr70GtVpdqIwxBsYYtFotZs2aRYFEyFNAoUQ8nkwmw+jRo+Hr6/vQIAaVSoXevXujadOmhfYTQooHhRIhAMLCwjB58mRotVrnPo7j4Ovri/fee49WnyXkKaFQIuSB1lKFChWcrSWVSoVevXqhRo0a0uqEkGJCAx1IkSm4BlOaffnll/jf//4Hi8WCatWqYe/evahUqZK0WqlRcB2MroeR0oJCiRQJnueRm5uLnJwcmEymUhtOubm5GDduHBISEtCvXz/MmDGj1N6XpFAo4OvrCz8/P+j1+oeulxHiiiiUyL8iiiJMJhPS0tKwZs0a7N69G1lZWbBYLLDZbNLqpYYgCMjPz4fNZoNer4eXl5e0Sqkhk8mg1Wqh1WpRuXJlDB06FJ07d4afn1+ha2eEuBIKJfLERFGEzWbDxYsXsWfPHpw9exbnzp2D0WiE3W4Hx3FQKpWQy+XgOA5yuZx+nZcAQRAgiiJEUQTP8+B5HhzHQafTITQ0FM2aNUOLFi3Qp08flClTBkqlUnoKQkoMhRL5W6Iowmq1Ijk5GatXr8bixYuRmpoKuVwOtVoNf39/lC1bFpGRkQgPD0eVKlXAcRyqVKlCv8hLQHp6OjIzMyEIAq5du4bz58/j6tWryMrKgsFggN1uh1wuR3h4OD7//HM0btwY/v7+FE7EJVAokb8kCAJycnKwePFirFy5EnFxcVAoFNDr9Wjfvj369u2LRo0aoUaNGtDpdNLDiQsQRRHZ2dm4du0aDh48iC1btuD69euw2WxQKBRo3bo13n33XbRo0YKmUSIljkKJ/KW4uDhMmzYNW7duBWMMXl5eGDBgAGbOnIkaNWpQ91wpJAgCNm/ejC+//BJnzpwBz/PQ6/X43//+h9dff51at6REUSiRRxJFEdevX8fQoUNx48YNKBQKNGrUCD/99BPKly8PrVZLgVSK2e122Gw2bN++HW+//TZSU1OhVCoxcOBAfP311/D395ceQshTQaFEHiIIAnbv3o3Jkyfjzp078Pb2xrRp0/DSSy/B19cXCoVCeggppSwWC+Lj4zFr1izs27cPHMehY8eOWLhwIcLCwqTVCSl2FEqkEMYYzp49i2effRbZ2dkoX748Zs6ciaFDh0Kv10urEzcgiiJSU1Px/vvvY/369bDZbOjduzd++OEHBAUFSasTUqzkH3zwwQfSncQzMcaQmpqKfv36ISUlBT4+Pli9ejV69uxJgxjcGMdx8Pb2Rrt27aDVanH06FHExsZCLpejVatWziH+hDwNdFGAAPcDyWQy4dVXX8WtW7egVquxcuVKtGrV6qElHYh78vPzw/jx4/HSSy+B53nMnTsXq1atAs/z0qqEFBsKJQIAcDgcmDdvHrZv3w6FQoEPPvgAHTt2pOtHHsbX1xf/+9//0KFDB9jtdrz11luIj4+HKIrSqoQUCwolAlEUkZubix9//BGCIGD06NEYN24ctZA8EMdx8PPzw9KlS1G3bl3k5eXhvffecy4RT0hxo1AisFqt+PDDD5Geno7KlSvjnXfegU6no+sIHkoul6Ns2bJ4/fXXIZfLceDAAVy7do268chTQaHk4QRBQGpqKjZu3Ai5XI4xY8agXLlypXZmbFI0lEolRo4ciQYNGiA3NxfTpk2DyWSSViOkyFEoeTibzYbPPvsM6enpCAsLw4QJE9zuOpIoihAE4ZFbUeB5HhaLBXa7XVpUanEcB7VajbfeegsqlQrnzp1DQkICXVsixY5CycOlpaXhjz/+gFKpxJQpU+Dv7+923XZxcXE4f/48oqKiCm0XL14skmCKjY1F9+7dcfz4cWlRqSaXyzFgwADUqlULJpMJK1eupGtLpNhRKHkwURQRGxuL3NxcqNVq9OrVy+0CCQDeeecd9OzZE3369EHfvn2d25AhQ4rkS9ZutyMhIQFms1laVOqp1WqMHTsWKpUKa9euRWZmprQKIUWKQsmD2Ww27N+/H4wxtGjRwm2nlbFarQgMDMTixYuxatUq5/bTTz9Bo9FIq/9j7P4y8O46OUr79u2hUqmQl5eHW7duSYsJKVIUSh7MZDJh//79UCgU6Nevn1sPbvD19UW7du3QuXNn59a+fXvIZDJYrVbnQoX5+fm4c+cO0tLSYLFYpKcBYwwGgwHx8fG4fv06cnNz4XA4pNXcStWqVeHn5webzYa4uLgi6fIk5HEolDxYZmYm7t27B6VSiSZNmkiL3QpjrNCAB1EUna2bTZs2YdiwYUhMTMRLL72Evn37onv37li8eDGMRmOhcyQnJ2P06NHo27cvBg0ahKFDh+LmzZtuPVxap9Ohffv2AICLFy+61YAO4noolDxYSkoKrFYrVCoVgoODpcVuxWq1Ii4uDrGxsYiNjcWNGzdgMBiA+2Fz/PhxtG7dGgaDAcOGDUOTJk3w8ccf4+uvv3aGV1ZWFvr06YPLly9jzJgxmDx5Mvz9/TFhwoRHtqrcSePGjaFQKBAbGwubzSYtJqTIUCh5sMzMTOfS2L6+vtJit3Ljxg20b98ekZGRiIyMRKtWrbB3717g/j05FosFzZo1wy+//IIpU6bgq6++wvDhw7F48WLn0uI//vgjMjIycODAAUycOBGjRo3CkiVL8OKLL7rt9aQCkZGRUCgUSElJcetWISl5FEoerKAbSyaTFckFf1dWvXp1HD58GGfPnsXZs2dx/PhxdO7c2Vkul8sxd+5cBAQEQKVSwcvLC127doXdbkd2djYYYzh58iQaN27srKNUKuHl5YWBAwe6/Wqtvr6+4DgOBoOB7lUixYpCyYOZzWbnL3x3X0XWy8sL4eHhqFevHurVq4fatWsXWl1VqVQiMDDQOdhDJpNBpVKBMQaHw+G8nhQaGlpoQIhMJoNWq3W7G46l5HI5FAqF81ocIcXFvb+JyF9SqVTO//b0X78cxz32Hi3GGDiOQ1BQEFJTUx96rQpanO5MFEVnq/pxrxMhRYFCyYMplUrI5XKIouj2F68FQYDdbofNZnNudrv9iX/1cxyHNm3a4OrVq87h4w6HA1arFXfu3IHNZnvic5VGVqsVgiDA29vb7VvVpGTRu8uD+fr6QqFQQBAE50g0d5WVlYWlS5di4cKFzm3JkiVPfI+RXC7Hq6++CplMhv79+2Pt2rU4evQofvjhB7z99tuw2WzIz8+XHuY2YmJiIAgCgoOD3fp+NlLyKJQ8WNmyZaHVasHzPLKzs6XFbsPX1xeiKGLx4sVYsGCBc1u4cCEcDgc0Gs0jv2w1Gg0CAwOhUqmc3Xfbt2+HIAh47733MHr0aCxduhTDhg1D1apV3bpb69ixY+B5HuHh4YW6fQkpahxz5z4H8pcyMjLQoUMHJCQkYNGiRRg5cqS0ilu4desWDAbDQ91rCoUCderUgcFgQFJS0kNfuAaDAYmJiahSpQp0Oh1wvxswPT0dSUlJsNvtCA4ORlBQENLT0xEUFISgoKAHHsE92O121KtXD7dv38a8efPcciZ54joolDyYyWTCW2+9hWXLlqFv375Yt24dXS8gD7l58yaaNGkCh8OBzZs3o0uXLm7dKiQli76BPJhGo0H37t0BAPv370dGRoa0CiGIioqCw+GAr6+v23dTkpJHoeTB5HI5atWqBW9vb1itVuzatcvthzaTf0YQBPzwww+w2+145plnUKZMGWkVQooUhZKHq1ChAlq1agW73Y4FCxa4/Rxu5MmJooj9+/fjzJkzkMvlGDt2rPPaGiHFhULJw2m1WnzxxRfw9vbGlStXsHLlyiceJk3cF2MMdrsd8+bNg91uR61atVCzZk265kiKHb3DPJxcLkdYWBh69OgBnuexcOFC5OXlUTeeh+N5Htu2bcORI0eg0Wgwb948+Pj4SKsRUuQolAi0Wi3mzJkDf39/XL16FQsWLIDVan1oCDXxDIIgICsrC19++SXsdjtat26NFi1aQKlUSqsSUuQolIiztTRw4EDIZDIsWLAAJ06coG48D8QYg8lkwowZM3D69GnodDq89957bj+LPHEdFEoEAKBWq/Hxxx+jYcOGyM/Px4gRIxATE0OtJQ9js9nw888/49dff4VMJsPUqVPRvHlzulmWPDV08yxxEkURV69eRdeuXZGVlYUaNWpg48aNdIHbQ1gsFuzYsQNjxoyBzWZD3759sXLlSmg0Gro3iTw19E1DnGQyGWrXro2lS5fCy8sLt27dwrBhw3Do0CG3n0Xc0+Xl5eGrr77ChAkTYLfbUb9+fcyfPx9arZYCiTxV8g8++OAD6U7iuWQyGSpXrgxvb2+cPXsWSUlJOHToEMqVK4dKlSo5Jycl7oHneSQlJWHOnDlYuHAhzGYz6tevj59++gk1a9aUViek2FH3HXkkm82GAwcOYOzYscjMzIRWq8ULL7yAt99+G35+fvQLupQTBAEmkwl3797Fiy++iCtXrgAAmjRpgt9++w1ly5alvy8pERRK5LEYYzhx4gQmT56MCxcugDGGihUr4sUXX8Rrr73mXPCNViMtHQpWjxUEAbGxsfjss8+wdetWWCwWqFQqjBkzBu+99x5CQ0OlhxLy1FAokb8kCALu3r2LDz/8EH/88Qfy8vKgUChQsWJFPPfcc+jQoQMaNGiAwMBAGgzhwhwOBxISEnDlyhVs3rwZv//+OywWCxhjqFu3LiZMmIDnn38eGo2G/o6kRFEokb/F8zwsFgvu3buHd955BwcOHIDZbIZKpYJWq4W3tzdatmyJDh06oHHjxggODoZMJoNSqaQWVAmx2+0QBAFxcXGIiorC9u3bcfv2bRiNRthsNjgcDoSGhmLy5MkYNmwYAgMDoVar6e9FShyFEnligiAgPz8fhw8fxu7du3H48GHcu3cPZrMZHMdBrVZDpVI5u/MCAgLo/pYSwBhDRkaGs6vObrfDbrdDLpdDr9ejXr166NChA3r37o3atWtT64i4FAol8o8xxmC1WpGdnY1jx47hjz/+wPXr12EwGGAymWC1WqWHkBLAcRx0Oh28vb0RGBiI1q1b49lnn0WNGjXg6+sLhUJBLSPiciiUyH8miiIyMzORk5MDg8EAs9ksrUJKgEwmg16vh5+fHwIDA2lCVVIqUCgRQghxGf8Huqy+/hHL26QAAAAASUVORK5CYII=;" vertex="1" parent="WIyWlLk6GJQsqaUBKTNV-1">
          <mxGeometry x="600" y="240" width="191.02" height="250" as="geometry" />
        </mxCell>
        <mxCell id="GENL_fKybs1PkxHw5dDO-61" style="edgeStyle=orthogonalEdgeStyle;rounded=0;orthogonalLoop=1;jettySize=auto;html=1;" edge="1" parent="WIyWlLk6GJQsqaUBKTNV-1" source="GENL_fKybs1PkxHw5dDO-52">
          <mxGeometry relative="1" as="geometry">
            <mxPoint x="1070" y="615" as="targetPoint" />
          </mxGeometry>
        </mxCell>
        <mxCell id="GENL_fKybs1PkxHw5dDO-65" style="edgeStyle=orthogonalEdgeStyle;rounded=0;orthogonalLoop=1;jettySize=auto;html=1;entryX=0.5;entryY=0;entryDx=0;entryDy=0;" edge="1" parent="WIyWlLk6GJQsqaUBKTNV-1" source="GENL_fKybs1PkxHw5dDO-52" target="GENL_fKybs1PkxHw5dDO-64">
          <mxGeometry relative="1" as="geometry" />
        </mxCell>
        <mxCell id="GENL_fKybs1PkxHw5dDO-52" value="i มีค่าน้อยกว่า จำนวน process หรือยัง" style="strokeWidth=2;html=1;shape=mxgraph.flowchart.decision;whiteSpace=wrap;" vertex="1" parent="WIyWlLk6GJQsqaUBKTNV-1">
          <mxGeometry x="775" y="565" width="230" height="100" as="geometry" />
        </mxCell>
        <mxCell id="GENL_fKybs1PkxHw5dDO-56" value="Ture" style="text;html=1;align=center;verticalAlign=middle;resizable=0;points=[];autosize=1;strokeColor=none;fillColor=none;" vertex="1" parent="WIyWlLk6GJQsqaUBKTNV-1">
          <mxGeometry x="1005" y="585" width="50" height="30" as="geometry" />
        </mxCell>
        <mxCell id="GENL_fKybs1PkxHw5dDO-57" value="False" style="text;html=1;align=center;verticalAlign=middle;resizable=0;points=[];autosize=1;strokeColor=none;fillColor=none;" vertex="1" parent="WIyWlLk6GJQsqaUBKTNV-1">
          <mxGeometry x="900" y="665" width="50" height="30" as="geometry" />
        </mxCell>
        <mxCell id="GENL_fKybs1PkxHw5dDO-58" value="ตัวแปร rt ตามจำนวน process rt[n]" style="whiteSpace=wrap;html=1;" vertex="1" parent="WIyWlLk6GJQsqaUBKTNV-1">
          <mxGeometry x="590" y="596" width="130" height="38" as="geometry" />
        </mxCell>
        <mxCell id="GENL_fKybs1PkxHw5dDO-60" style="edgeStyle=orthogonalEdgeStyle;rounded=0;orthogonalLoop=1;jettySize=auto;html=1;entryX=0;entryY=0.5;entryDx=0;entryDy=0;entryPerimeter=0;" edge="1" parent="WIyWlLk6GJQsqaUBKTNV-1" source="GENL_fKybs1PkxHw5dDO-58" target="GENL_fKybs1PkxHw5dDO-52">
          <mxGeometry relative="1" as="geometry" />
        </mxCell>
        <mxCell id="GENL_fKybs1PkxHw5dDO-62" value="เก็บค่าของ&amp;nbsp; burst time ไปยัง rt ของแต่ละ Process&lt;div&gt;i เพิ่มขึ้น 1 (i++)&lt;br&gt;&lt;div&gt;&lt;br&gt;&lt;/div&gt;&lt;/div&gt;" style="whiteSpace=wrap;html=1;" vertex="1" parent="WIyWlLk6GJQsqaUBKTNV-1">
          <mxGeometry x="1070" y="560" width="220" height="74" as="geometry" />
        </mxCell>
        <mxCell id="GENL_fKybs1PkxHw5dDO-63" style="edgeStyle=orthogonalEdgeStyle;rounded=0;orthogonalLoop=1;jettySize=auto;html=1;entryX=0.5;entryY=0;entryDx=0;entryDy=0;entryPerimeter=0;" edge="1" parent="WIyWlLk6GJQsqaUBKTNV-1" source="GENL_fKybs1PkxHw5dDO-62" target="GENL_fKybs1PkxHw5dDO-52">
          <mxGeometry relative="1" as="geometry">
            <Array as="points">
              <mxPoint x="1190" y="470" />
              <mxPoint x="890" y="470" />
            </Array>
          </mxGeometry>
        </mxCell>
        <mxCell id="GENL_fKybs1PkxHw5dDO-69" style="edgeStyle=orthogonalEdgeStyle;rounded=0;orthogonalLoop=1;jettySize=auto;html=1;entryX=0.5;entryY=0;entryDx=0;entryDy=0;" edge="1" parent="WIyWlLk6GJQsqaUBKTNV-1" source="GENL_fKybs1PkxHw5dDO-64" target="GENL_fKybs1PkxHw5dDO-68">
          <mxGeometry relative="1" as="geometry" />
        </mxCell>
        <mxCell id="GENL_fKybs1PkxHw5dDO-64" value="&lt;div&gt;&lt;div&gt;สร้างตัวแปร comple t minm&lt;/div&gt;&lt;/div&gt;" style="whiteSpace=wrap;html=1;" vertex="1" parent="WIyWlLk6GJQsqaUBKTNV-1">
          <mxGeometry x="780" y="700" width="220" height="40" as="geometry" />
        </mxCell>
        <mxCell id="GENL_fKybs1PkxHw5dDO-66" value="" style="strokeWidth=2;html=1;shape=mxgraph.flowchart.annotation_2;align=left;labelPosition=right;pointerEvents=1;" vertex="1" parent="WIyWlLk6GJQsqaUBKTNV-1">
          <mxGeometry x="1030" y="695" width="50" height="175" as="geometry" />
        </mxCell>
        <mxCell id="GENL_fKybs1PkxHw5dDO-67" value="&lt;li data-end=&quot;903&quot; data-start=&quot;832&quot;&gt;&lt;code data-end=&quot;844&quot; data-start=&quot;834&quot;&gt;complete&lt;/code&gt; เพื่อเก็บจำนวน process ที่ทำงานเสร็จแล้ว (เริ่มต้นที่ 0)&lt;/li&gt;&lt;li data-end=&quot;953&quot; data-start=&quot;906&quot;&gt;&lt;code data-end=&quot;911&quot; data-start=&quot;908&quot;&gt;t&lt;/code&gt; เป็นตัวแทนของเวลาในระบบ (เริ่มต้นที่ 0)&lt;/li&gt;&lt;li data-end=&quot;1073&quot; data-start=&quot;956&quot;&gt;&lt;code data-end=&quot;964&quot; data-start=&quot;958&quot;&gt;minm&lt;/code&gt; ใช้เก็บค่าของ remaining time ที่น้อยที่สุดในแต่ละช่วงเวลา โดยเริ่มต้นที่ค่า 9999 (ค่าสูงมากเพื่อเปรียบเทียบ)&lt;/li&gt;" style="text;html=1;align=left;verticalAlign=middle;resizable=0;points=[];autosize=1;strokeColor=none;fillColor=none;" vertex="1" parent="WIyWlLk6GJQsqaUBKTNV-1">
          <mxGeometry x="1090" y="680" width="600" height="60" as="geometry" />
        </mxCell>
        <mxCell id="GENL_fKybs1PkxHw5dDO-73" style="edgeStyle=orthogonalEdgeStyle;rounded=0;orthogonalLoop=1;jettySize=auto;html=1;entryX=0.5;entryY=0;entryDx=0;entryDy=0;" edge="1" parent="WIyWlLk6GJQsqaUBKTNV-1" source="GENL_fKybs1PkxHw5dDO-68" target="GENL_fKybs1PkxHw5dDO-72">
          <mxGeometry relative="1" as="geometry" />
        </mxCell>
        <mxCell id="GENL_fKybs1PkxHw5dDO-68" value="&lt;div&gt;&lt;div&gt;สร้างตัวแปร&amp;nbsp;&lt;span style=&quot;background-color: transparent; color: light-dark(rgb(0, 0, 0), rgb(255, 255, 255));&quot;&gt;shortest &lt;/span&gt;&lt;span style=&quot;background-color: transparent; color: light-dark(rgb(0, 0, 0), rgb(255, 255, 255));&quot;&gt;, finish_time&lt;/span&gt;&lt;/div&gt;&lt;/div&gt;" style="whiteSpace=wrap;html=1;" vertex="1" parent="WIyWlLk6GJQsqaUBKTNV-1">
          <mxGeometry x="780" y="770" width="220" height="40" as="geometry" />
        </mxCell>
        <mxCell id="GENL_fKybs1PkxHw5dDO-70" value="&lt;li data-end=&quot;1236&quot; data-start=&quot;1153&quot;&gt;&lt;code data-end=&quot;1165&quot; data-start=&quot;1155&quot;&gt;shortest&lt;/code&gt; ใช้เก็บ index ของ process ที่มี remaining time สั้นที่สุด ณ เวลานั้น&lt;/li&gt;&lt;li data-end=&quot;1298&quot; data-start=&quot;1239&quot;&gt;&lt;code data-end=&quot;1254&quot; data-start=&quot;1241&quot;&gt;finish_time&lt;/code&gt; ใช้เก็บเวลาที่ process เสร็จสิ้นการประมวลผล&lt;/li&gt;" style="text;html=1;align=left;verticalAlign=middle;resizable=0;points=[];autosize=1;strokeColor=none;fillColor=none;" vertex="1" parent="WIyWlLk6GJQsqaUBKTNV-1">
          <mxGeometry x="1090" y="770" width="420" height="40" as="geometry" />
        </mxCell>
        <mxCell id="GENL_fKybs1PkxHw5dDO-72" value="&lt;div&gt;&lt;div&gt;สร้างตัวแปร check&lt;/div&gt;&lt;/div&gt;" style="whiteSpace=wrap;html=1;" vertex="1" parent="WIyWlLk6GJQsqaUBKTNV-1">
          <mxGeometry x="780" y="840" width="220" height="40" as="geometry" />
        </mxCell>
        <mxCell id="GENL_fKybs1PkxHw5dDO-75" value="&lt;li data-end=&quot;1236&quot; data-start=&quot;1153&quot;&gt;&lt;span style=&quot;text-align: center;&quot;&gt;กำหนดตัวแปร flag&amp;nbsp;&lt;/span&gt;&lt;code style=&quot;text-align: center;&quot; data-end=&quot;1374&quot; data-start=&quot;1367&quot;&gt;check&lt;/code&gt;&lt;span style=&quot;text-align: center;&quot;&gt;&amp;nbsp;เพื่อใช้ตรวจสอบว่ามี process ที่พร้อมทำงานในเวลาปัจจุบันหรือไม่ (เริ่มต้นที่ false)&lt;/span&gt;&lt;/li&gt;" style="text;html=1;align=left;verticalAlign=middle;resizable=0;points=[];autosize=1;strokeColor=none;fillColor=none;" vertex="1" parent="WIyWlLk6GJQsqaUBKTNV-1">
          <mxGeometry x="1090" y="850" width="570" height="30" as="geometry" />
        </mxCell>
        <mxCell id="GENL_fKybs1PkxHw5dDO-76" value="" style="shape=image;verticalLabelPosition=bottom;labelBackgroundColor=default;verticalAlign=top;aspect=fixed;imageAspect=0;image=data:image/png,iVBORw0KGgoAAAANSUhEUgAAAzwAAAK0CAYAAADGYjjvAAAAAXNSR0IArs4c6QAAAARnQU1BAACxjwv8YQUAAAAJcEhZcwAADsMAAA7DAcdvqGQAANihSURBVHhe7N13dBRVAwXwO7ObTkiDNAih9yJVlCJNkSIdQUFA6dIUAQsoiCIoRUFFigpSRJHee0d6CSX0hJZCetlNsm3e90eSkd0ECH4Bw+b+ztmjzHs7OzvZKXfemzeSEEKAiIiIiIjIDsm2E4iIiIiIiOwFAw8REREREdktBh4iIiIiIrJbDDxERERERGS3GHiIiIiIiMhuMfAQEREREZHdYuAhIiIiIiK7xcBDRERERER2i4GHiIiIiIjsFgMPERERERHZLQYeIiIiIiKyWww8RERERERktxh4iIiIiIjIbjHwEBERERGR3WLgISIiIiIiu8XAQ0REREREdouBh4iIiOxefLwe8fF628kFzrOynETPEs2kSZMm2U6kZ1dGhgk3bsQhJiYVLi6OcHTU2lYhIiIqNAwGM6ZP345XX52D6dN3wGg0IyFBj9Gj/0Jqagaeey4IGs1/f/33WVlOomcRtxw7c+XKPbRoMQv16k3B0aNhtsVERESFik5nwN69VxAQ4IGgIC/s3n0ZO3aEYseOUMTF6SBJku1b/hPPynISPYsYeIiIiMhuubk5onbtUoiMTMLt2wk4ffo2Fi/+G56ermjatCK02oJxKvSsLCfRs4hbDxEREdktR0ctatYsAVnObCExmSzw9S2K77/viUaNytlW/888K8tJ9CyShBDCduKzLC5Ohz//PIlDh66jYkU/9OrVABUq+BaapuBz5+7i/fdXIj3dhClTOqF580q2VQols1nBokWHsXz5cbzySlW8/34ruLg42FYjeiij0Yy7d5Pg7e0KT09X22Iiymf5tc3Fxqbi2rUYpKeboNXKqFs3GEWKONlWy5MneZ4RG5uKy5ejsXnzeezbdxXt29fEBx+8zOMV0f/JrgKPyWTBN99sx4QJ69Vp3brVwc8/94GHh4tV3ScpLc2IiRM3Ytmyo+jZsz6+/LIj3Nz+3Y71QRRF4Pr1GGzefB5nztxBQoIewcE+cHNzxA8/7AUAbNw4HC1bVrZ9q93T6QzYt+8K9u69guvXY+Hs7ICKFX1x9Gg4du26hDfeqI8FC9761we7Z11qagb277+qrh8nJy1q1iyJ1q2ronbtUuw2kQshBPbtu4q33voVERFJkCQJkyd3wJgxL8PZmSciRPktv7c5k8mCn38+hJEj/4DZrKBoUWcsWtQPnTo9p7ao5EV+n2fweEX0dNjVmY3RaMb167Hw9nbDn38ORP36pXHrVgJSUzNw504ixoxZhS1bLkBRnmzGE0IgJiYF0dEpuHcvBfkdKTMyTJg2bRsqV56I0aP/wtKlR7F583nMnbsP06fvQHq6yfYthcaFC5Fo2HAaXnvtR8yatQsbNoRg5cqT+PLLLdi165Jt9ULn3Lm7eP556/Xz11+n8Omn69GgwVQMHLgUiYlptm8r9DIyzFi79gwiIpJQr14wHB01WL78GCIikmyrElE+yO9tLj5ej+XLj0FRBBo0KI3UVAP++OME9HqDbdWHys/zDB6viJ4euwo8Dg4alCnjg4QEPXr0WIgTJ27i1KlbaN58FkqV+ggzZ+7Et9/uQny8zvatz5SQkLv47rvdEEKgRAlP9O79PEaNaom2bavDwUFjW/2RMjJMOHIkDMuWHcOsWbuwaNHfOHIkDGlpRtuqBVp6ugnz5u3HxYuRkCQJzZtXwvDhzfHOO41QqZKfbfVCJy3NiJ9+2o9Ll6LU9TNiRHMMGNAY1aoFAgCWLj2K7dsv5ulgXVgJAQ4N+y8pikBYWBwOH76BgwevPfB1+PB17NwZiqlTt2Ly5E2YNm0bzp27i4LUISEyMgnff78XkydvwldfbcWhQ9e53Twh+b3N/T9dz/LrPIPHK6Kny666tAHAvXsp+OGHvZg9ew9SUzPU6QEBHujcuTZGjWqBihWf7M5Erzfg3Xd/x5IlR/O9OdpiUTB37n6MHPmHbZEVFxeHR3ZpMxgyr6B9/PFa3LwZb1sMd3dnzJrVHX37vvCvgtTTdvt2Ajp0+BEhIXdti6zk99/kWXHzZjzat/8BFy9G2hZZeffdZpgxoxv7jN9HCIE9e67g9dcXICEh84GAn37aDp980uZfda8prDIyTPjwwzWYM2ePbVEO3bvXw+rVp6AoArIsYdGifujd+/nH6n70JJ08eQtt236P2NhUAMDkyR3w8cdtnkqXUEURCAm5i19/PYxGjcqhe/e6+RoICoL83ubMZgVz5+7De++thBACjo5aLF36Nrp1q/vYv6n8OM/g8Yro6bKLwKMoAtHRyVAUgcBAT8iyhIQEPY4eDUeRIo6oVq0EfHzc1PopKRmIiEiEyWRBYKAnvL3dcuzwhBBISkpHdHQyjEYLfH3dUby4e46DWVqaERERSfD3Lwp3d2cga3nCw+MQF6eDj48bypQpBo1GhsFgRmRkEpKT0+Hr6w4/v6IPPUhZLAoiIpKg0cgICPCALEsQQuDq1RicPXsHXl6uVielZrOCmJhUODlp4e9fFJUr+z/0Js/o6BR06zYPhw/fQOnSPnj77RdRtWogwsPj8OefJ3Hq1C34+rpj48bhaNCgtO3bH8hoNOPWrQSYTBaUKOGZa7/mzGVNQUxMKjw8XFCihGeuD0k1mSy4cycRKSnpKFasCPz9PXL8DbKlp5tw6VIUUlPTERenhyQBPj5FrP62kiTB19cd5coVh0YjIzExDfHxOgQFecPJKefnZ9PrDYiMTEZAgMcTOfBkdoNMRUxMqvpbs/1N5oXZrCA+Xofo6BRoNDICAz3g5eUKSZLU9XN/F460NCOio5Ph5KSFj08RuLg4qutHkiRERiZBCCAw0OOhv9VsiiKQmJiGyMgkODhoEBTkleP+NbNZwZ07CXBzc0Lx4kXydLX1af6m4uP1SEzUo1Qpb6v363QZOHPmDtLTjQgM9EKlSn5wcNDk+XOzCSEQG6uDTmdAUJCX1cWER+0jTCYLbt9OQNGizihW7NHrzmg0486dRHh6ulrtA3OT132erZSUDNy7l4LAQI8cf2tbZrOC3bsv4fvv92Lz5vOQZQnvvNMIQUFeQNa8liw5itjYVIwf3xaVKvnjvff+RFJSWoELPDqdAcePh2PMmFU4c+bOUw084eFxeO21H3HxYiR+/PENDB7cNE/b5+NSFPHY+4B/s6/M720u+9gpSZLVcptMFuzbdwU3bsShfPnieOmlinBw0Dxyu7tfSkoGoqKSkZ5uhIeHC1JSMmA0mlG2bPEHbmMGgxl37iTAy8tNrZOebsLRo2G4dy8Zvr5Fc72oaHu8IqL/g3jG3b6dIDp0+FEAgwQwSJQrN160bj1baDRDBDBIuLmNEIsX/y1MJou4dClKtG//g1o3+xUc/LHYsuW8MJstwmSyiLVrz4hKlT7NUc/R8V0xZcoWkZqaIcxmi1i27KhwcnpXAIOELA8Ws2fvFkajWcTF6UTLlrMEMEiMGbNKJCToxJQpW4RWm7lM2S8vr/fE8uXHhMlksf1a4vr1GPHCC9PUuu3afS/u3EkQS5f+85kazRDx00/7hclkEeHhcVb1e/ZcKGJjU21nayUqKlk0avS1AAaJ6dO3Wy3HjRuxomrViUKSBou5c/cJsznnMt4vMVEv5s7dJ+rWnZJjvVWq9KnYvPm8MJky1++qVadEQMBYqzqyPFhMmLBOpKZmCCGECA+PEwMGLBGyPNiqniQNFsOHrxDR0Sli5sydAhgkatWaLG7ejBNCCHHrVrx46aUZav327X8QUVHJQqfLEL17/yKAQaJ371/EvXvJYty41Wo9X98PxM6doUJRFHH27B0RGDhOyPJgsXz5MbFkyRGrdT5vXuY6F0IIs9kivv9+jwAGiSpVJoqrV+/lWC6z2SJmz94tgEGiWrVJIiwsVgghhMlkEdu3XxTdus0T7u4jrb6np+d7Yt68/SI93aiu3++/3yN69lwoFiw4oK6nbCkp6WLGjB2iaFHr+QCDRIkS48TKlSfVZdbrDeKXXw6JqlUn5qjbufNP4ty5u+LOnQTRps0cdXrjxt+I8PDMdZzt8uVoERz8sZCkwWLRosPi+PFw0bDhP7/B7FfXrvPE7dsJQgghjh0LF+XKjVfLBgxYIpKS0oTBYFL/Hs2bzxSxsalP/Td1+3a81W8iIGCs2LfvirBYFLF//1Xh6/uBOt8pU7YInc6Qp8+9X1JSmhg4cKlat1y58eLkyZtCp8t45D7i2LFwUbbsJ2rZu+/+LlJS0tV579t3Rbi7jxROTu+K7dsvioMHr4kSJcap9cePXyfS0owiPDxO1KjxuQAGiW+/3SXS00152ufZMpkyf/vZ69PFZZj4/ffjj9xXCCHEpk3nhFY7RBQv/oE4ceKmOl2vN4gvvtgsmjWbIVasOC5CQyNF6dIfC1keLH777YiwWBSr+aSnZ36fU6duievXY4Reb7Aq/39ZLIqIjU0VISF3xPnzESIuTicU5Z9lSE5OV48pkydvEnq9Qdy+nSDOnr0jYmJSrOrez2SyiDt3MuvdvZuYp3V2v7CwzP0zMEj8+OPex3r/rl2XhIvLMOHmNkLs3XtFKIoi9u69ItzcRggXl2Fi165LQggh7t5NfKx9wK+/Hs6xr8w+PmUzmSxi0qSNAhgkGjX6Wty4EZvv29ydOwnq8RcYJIoX/0DI8mBRvPgHYt++K2LQoMztr3Pnn0RUVNIjt7v7v2tu5w9eXu+JX345JDIyTGrdbIqiiF27LqnfAxgkPvpojYiJSbH63oGB48T+/VfV34tOlyH69VssgEHi9dcX5Lr9EdHjeaYvGZjNCv744wQ2bAgBAPj7F0VYWBy2b78IHx83BAZ6Qq83YPr0HTh+PBx9+izCpk3nAABeXq5wdXUEANy6FY933/0doaFR2Lr1Anr0WIgrV+6p8/T1dQeyrpaOH78O8+cfQHJyBlavPgOzWUGXLrXh4uKINWvO5LjhWwiBZcuOY8KE9TCbFTg4aODtnXmFJzExDe+/vxJnztzO8Z4TJ27i2LFwNG9eCTVqlMCePZdx+vRtrF9/FgDQvXtmM/zGjSGIjU3FwoUHceRImDqP3bsv59pN7X7+/kVx6NA4CDEfY8a8YnVl0s3NEd7ebhBCICPD9NCBF+7cSUTnzj/h3Xd/x6lTtwAAQUFeaovXlSv38PrrC7Br1yX8/fd1DBiwFFFRyZAkCf7+RYGsK4lffbUVa9acQXy8HqNH/4Wffz4ERRFwc3NC3brBqF07CJIELFr0N06cuKn2589eNiEETp68hUOHrqNp0wqoXTsIu3dfwoULETmWPzo6BWvWnIGvrzs6dqyF2Fgdtmy5AKPRYlXPYDCrv6/sdb5hQ4hVN4YHuf8z/1nWf/67e/cldO78E1atOo3U1Ax4e7shIMADAJCUlIZ33/0dS5ceRVqaETNm7MSIEX/gjz9OYNCgZfj550MwmxUg66rl7Nl7MGbMKqSkZC5XcLCP+vuOiEjC22//hj17LiM1NQNjx65G//5LEBoaBQcHDSpU8FWvzK9dewaTJ2/CsWPh2L37Ml54oSwaNCiNo0fDEBLy4HsoEhMzl/fo0czfoK/vPy1Uq1efxowZO5CaasCuXZdw40YsWreuhnLlimPTpnMIC4vL8feJiEh66r+pHTtCsX79WZQq5Y127WogKioZe/deQVRUMqZO3YqYmMyuS4oisHXrBezeHfrIz7W9p+PmzXhs2nQOlSv74+WXq+DGjVjs3XsVixcfeeg+4uTJW9iz5zLCw+PRoUMtlCjhic2bz+Pu3USr+WezWAS2b7+IyMhkdOr0HPz9i2Lt2jOIjk62qieEwLZtF/O0z8v+vWVLSkrDmjVnULSoC7p2raNuK48aNEUI8cDfkaurIyZMaIu9ez9Az571H3hVW6czYPLkTXBzG4EyZT5B3bpTUL78BLi5jcDgwctw9eo9vPLKd5CkwZDlIZg37wAsFuvlv9+NG7GoWnUSJGkwnJ2HYfv2izhw4Bpq1PgcxYt/gFq1vkCNGp+jWLHR8PUdgyVLjsJkst5XLF78N4oX/wClSn2E5577Ar6+Y/Dmm79Y/Y2uXYvBiBF/wM1tBIKCMuuVLPkh/P3HYuXKkzCbFaSlGTF48DJI0mBI0mDUr/8VWreeDSenYdBohqBz559Qtux4hIZGAQCGDVsBrXYoJGkw5s7d99Dvifv2QQ+SXX7hQsRj7QOMRjPWr7feV27c+PB95b17Kfm+zZ0/H4GDB6+jSZMKeO65IMTGpqrboRCZ5w0AoNFIWLHixEO3u+xj8+3bCejXb7F6/uDt7YayZYtBkiQkJqZh4MClWL78WI51bzJZsG3bRcTF6dC5c20UL+6ODRtCcPFipNX3joxMwp49l3NsY0SUf3I/mjwjMkdLiQEAdOhQC/v3j0HTphWg0cj48cc3sXDhW3B01OLevRRIEjB27CsYPrw5rl//EvHxs5CcPBsrVgyAo6MWt24l4OTJW2jSpALGjn0Fs2f3QHLybERFTce9ezNw48YUvPRSRQDA+vUhiIlJQUpKOhRFICoqOSsU5DwQSJKEjh1rYvDgJliy5G2kps5BbOxMbN06Eu7uzoiJScXx4zdz7CizxcSkIj5eD5PJgvR0I4TI3IlGRibBYlGQmmrA4cM3sGDBQTg6avHOO42g0cgwmy0wGs22s8uzW7cScP16DLRaGcHBPtBoHtyN5N69FFy8mHnw7dv3BcTHz8Lt29OQlPQdDh8eh9KlfaDXG7B69WlUrRqIsWNfweTJHRAXNxNRUdNx6dLnqFmzJBRFZHU3iMHx4+EAgBkzuiEp6TucPPkJTp+egKtXv8CuXe+hVasquXbnyT6wxcbqEB+vh9ms5AgxyOrKlZZmhE5nQHR0inoSltvf0Had63SGHCc7j0uSJDRqVB7jxrXGtGldEBc3C/HxsxAZ+Q2uXJmM+vVLQ1EE1qw5g4iIZBw9GobgYB/8+OMb8PZ2w6lTt3D3biJ27rwEs1nBm282wIABjbFhwzAYjXNx8+ZXSE2dg/37x6jBf+vWC7h+PRabN58HAHz1VSfo9d/j6tUvoNPNwe3b07BgQW9MndpZDUCxsTrExemgKAI6XUaOYJLN09MVY8e+gsGDm+LatS9w794MxMTMxJtvNgAAHDx4DbGxKUhOTgcAREcnIyUlA4qS+zqPjU196r+pxo3LQ1EEUlMzu2ghq6vNqlWnsGNHKEqX9kH37nWBrCBctWqJR35uerr1wB/Z3zUpKU09mdPrDejQodZD9xEnTtxU11VUVDJSUzOQnm58SLgQECLz8zLrG2AwmHOcUEmShKZN87bPs70JO/u7ZHZhyuz2lJKSDrP5/9s2HiUjw4RZs3Zi4sSNUBQBSZKy9lGZh7MFCw7iiy82q99VCIGQkDswGi1QFIGffz4EWR6Cdu2+V+8NCQ+Pw82bcepnXLgQiR49Fqihwt+/KOrVC4aLiwPi4nT46KM1alm2sLA4pKUZ4eqaebEIAP7444Q6cqbZrGD16tP44Ye9MBrNqFYtELVqlYRGIyMuToehQ3/H33/fsJonsu4V2rEjVN2f57a9PAnZH5PXfQD+5b4yv7c5gyFzPcXH66x+swkJeixceBDbt18EAFSq5I+uXWs/dLs7fvwmjEYztm69gGPHwhEU5IXjxz9GfPws3LgxBampszFqVEsoisDChYfU75Ate11lnyfodBnQ640wmTJ/i/d/75SUjAeeBxDR/++ZDjzZOwwA8PBwQbFiRTB5cgcsXtwPL75YFo6OGmg0mfcuGAwWdO9eF99/31O9P0GrlfHii+VQpYo/hBC4dy8FRYo44csvO2LkyBYoWjTzajIAlCrljY4dawFZJ2N6vQFarQZCCBw5EgZHRw0GDGisHuju5+/vgZ9+6oW33moIJyctZFlCzZolULVqAJA12s+KFScxZcoWbNt2ERaLQOPG5dG2bQ1cvBiJyMjMYTidnR3Qr98L8PR0xeHDN6AoAnFxOnz33S7Exenw5psN8PLLVf6vPu5ms4J1686iW7d5iI5OQaNG5fH882VyDRfZSpXyRvv2NQAAv/12BB99tBYpKRmQZQm1a5dC27aZZbdvJ0CSJHzySRt8+mk7dV0FB/vgxRfLAlnhSaczqiHll18O4/PPN+LUqVswmxWUK1ccDRuWzbWfvCRJaNiwDF5+uQouXYrC7dsJCA72QZkyPrZVodXK0GplpKUZcexYOMqX90WPHvVy3Mfj7KzNsc7zS5EiTpg4sT0+/LC1Vd/vsmWLo3Pn5wAAUVHJUBQF5cv74tateAwbtgIJCXqsWXMGdep8iXbtvsemTedQurQPFi58C6+9VlPtCy7LEurWLYVmzTJPWiMikpCamqGOvnfmzB0sXvw3QkLuwmAwIyjICwMHNkH58r6oVy8YPXrUw/XrMQgL++dE8EFkWUK3bnUxb14vlC/vC2S1ojZvXgmSJCEhIQ1paUY4OmYuW0jIXcTGpqJfvxdRsaIfbH9eJUt6PfXfVOnSxTBgQGMkJ6fj5MnMVqXLl6Px7be7IQQwYkQLdTQ7ZA0M8rDPjY5Owc6dlzFlyhYsWXIUOp0BFSr4om/fFxAdnWJ1s3JAwMP3EfHxOrRvXwO1awfhxImbakveg2g0Mtq3r4GyZYvh2LFw6PUGVK8emOs9BkWLOudpn3fmzB18/fV2zJ69G3fvJsLLyw0DBjSGVivjyJGwPJ+IS5Kk7k/i43WYP/8AJk/ehC++2IxffjmMpKSHD4t+8WIk5s07AAD48MPWSEiYpQb8OXN6QqORsXLlKYwe3Qq//94fsiwhJOQukpLSoNcbsGfPZQghcOLELYSFxcFsVnDhQiTS003o2rUOLl2ajL17ryA6OgWNG5fH2bOfIjLyG5w48Ql27HjPah3dz9fXHdu3j0Jy8mxER0/HpEmvAQAOH76B+HgdJAkoXdoHzZpVxKRJr+HYsY9w9uynCAubgueeC0JCgh6HDl2Ho6MW8+b1wp9/DlT35f36vYizZz+FwTAX69a9i7CwKepv48cf34DZ/BOEmI933232wFaxx/W4+wAnJy3efvvx9pUlSnjm6zZ3714KqlYNRKdOzyE0NAp37vzTuiaEwO+/H0dERBKCgrzQrVsdlCrl89DtLjY2FRkZZpw+fRtCCDRsWBaVK/sjMTENYWFx0Go1ePnlKnBw0OD69RicOxeBH37Yi2nTtuHs2TtwcNCgW7c6qFDBF0ePhqkXKPz9c35vInqy8mfPWABkZJjwzTfb0azZTLz11q948cVvcORI2CN3uhqNrJ7kms0KDAYz5s8/gPLlJ8DVdTj691+SdVIFuLk5QZIktfm7ZElPIOvAsHLlINSqVTLPB32NRlZvslQUgUuXIjFhwnpMmLAeUVHJKFnSCxs3DsPx4x+jWLEiQNaJQrt2NRAdPR3jx7cFAFy6FIXDh28gIMADQ4e+hKJFc97MnRcWi4JDh66jTZs56Nz5J9y5k4i6dYPx449voESJzO/5IL6+7hg1qiVKlfIGsq5eZ1/l1Wgk9cZVk8mS6/qRpMwwh6y/QbFibmjXrgY0GhmXLkXhyy+3oF69r1Cu3Hjs3Hkp13lk8/f3wOuv14NGI8PLyxVz5vRApUr+OU6oixZ1QfHimd12evd+HvPn90Lx4u45rl7mts5t6/w/hBC4eDESH320Bp07/4Rhw1ZgzZrT6lVRs1mBk5MWH330Ktq1yzzJR1YLVWJiGnr1eh6NG5dHYmIaxo1bDW/v9xEQMBZTpmxBamoGJOmf9W82K3B2dlC7zf311ykMGrQMzz33BVxchuPll7/D+vUhMBjMKFasCJYseRsXLkxUbyi3/d4P+ztkc3Z2gCQBiqJAiMxBRSRJQrFiRbBoUV9061Yn1/kUK1bkqf+mnJy0GDeuNWJjZ+KVV6oCAHbtuoRbt+LRtGkFdOtWx+rG4kd9rsViQXJyGiZN2ogRI1bgzJnbcHNzwtSpnREVNR2NGpWzfbuV+/cRZrOCKlUCcOrUeKxaNVg9qc1tGZD1u61RowTat68JAKhdOwhTp3bO9YJMXvd5FouCn37aj/ff/wsbN56DJAFvvtkA8fHfYvjw5razzZPsFpeJEzfis882YPbs3UhKymwFzI3FouD48ZuIikpGzZolMXhwU3VgFhcXB7z5ZgO88kpVGI1mHDx4HeXL+8LPryiuX49FREQS7txJxLFjmS19cXE6nDx5C2lpRrXrUp06pXD3bgL+/vsGXF0dMXFie9SsWUINaDVrlsTOne9jw4ZhKF+++H1LBrRrVwONGpWDVitDo5ERFOQFSZIQH69DeroJGo2Mnj3rY+/eDzBxYnu1FbVIESe1a1ZiYpp6lT/7M4sVK4KhQ19CrVolc73Q86Q87j5AkiS0bfvofWX2exRFwMFBk6/bXPa2/uefA5GY+C0GDGgMAChXrjiWL++P4cObw8lJi7t3kx7Ys8J2u8vsSfHPBYYpU7bAx2c0ypUbj0qVPsPp07chy5kXVk0mCzZvPo+PP16LH37Yi/R0I55/vgwuX56MxYv7qX9TBwcZ48a1RkzMP987t+9GRPnn6e09n7C7dxPx11+nEBjogQ4dauHWrXjs2BGa6w7tYa5fj8FXX23FrVvx8PBwwa+/HsbatTn74js7O6Bbt7pwdXXEyZO38NprP2Lw4OWIi3v42Pu50WhktGpVBUWLOuPcubs4deqWuvPL6z5w0KAmWQdm25JHy76vo0mT6di16xIkScKoUS2xefNwq6trD2I2K9iy5Txu305AtWqBDzyxyquSJb2waFFfpKTMxt69H2Do0Jfg5KTF7dsJWLLkyEOfDxQXp8MvvxyCxaJg4MAmaNGicq4tXr6+7mpXiWXLjqFly28xa9YutTvEwzxoHUvSg8tyYzYrWLDgIGrV+gJff70d69adxdy5+9Cjx0JMnLjRqm7p0j5Yv/5dXL36BQ4dGofDh8fh5s2v8MsvfeDvXxT791/FrFm7YLEo0OuN+OqrrTh58p/fUbbKlf1x9uwEREZ+gw0bhuGjj15Fw4aZV0d37bqETp3m4oMP/oJO93gP48sLWZbRsmVlVK0agLg4Hd5++ze8+uochIZG5fid/5e/KdtlcXDQYOTIFmpQzJZ98vJgEurUKYVatYKQkpKB3bsvq0FWCJFjn/Jv5LYMsixBkoDQ0Cj8/vtxaDSZJ1eVKvnbVgUeY58XFOSFli0rQwiBzZvPq90T/x+yLGHAgMb4/PPXMHlyB4wa1RKeng++aGOxKLh1K/PexMBAjxyjULq6OqJMmWJA1v1SxYu7o1IlP8TH63D5cjROnbql3tsohMi6LyoOISF34eCgQc2aJRAVldndMjDQE8HBPlbruGhRZzRoUBr16gXDzc0J4r5usO7uzlatK9n7HSEylztbREQSVq06ja+/3o4vvtiMb77ZjvPnIwBkXhiw5eiozdHybG/yb5vLZDYrWLTob/zyy2G4ujri229fx+uv18PUqZ3RqdNzEELg2LFwZGQ8qEto7h51nuHm5ojXXqsJSZKwd+8V3LqVoL7Xdl+cV7kdv4jo8dlN4EHWzlBRxCO7RDxMcnI6UlIyUKKEF+rUKQVkPfHZdmelKJlX5rNPlIKDfdCgQemHDkf7MFWqBKBRo/LqTY4P7pufU61aJdGnzwv/6tkEGRkmTJ++A99+uwsA0KZNdZw6NR6zZnWHn1/mVcdHMWUNlQsA5csXV1tO/l+uro5o1qwiZs3qjqFDXwKy+pM/LJTodBmIiUmFJEkoU6bYA6+IpqcbceFC5kkGsq7cVqrk99gHl8jIZPWJ2GXKFHusFrabN+Pw/fd7YbEo6Nv3Bfz112AsXPgWmjSpYFVPCIFDh67j5Ze/Q/Xqn2PKlC1wcXFEcLAPZDnzNx8Tk3ljbo0aJVC5sj/MZiXXe7giI5PRsOE0BAaOw9mzd/DFFx1x5MiHSEz8FmPGvAIA2LjxnPr3zE9CCNy8Ga/O29PTFc2aVcy1i5DZXHB+U2+8UT/Xe8Zs9wm5KV68CNq2rQ4A2Lr1gnrfTn5LTc3Arl2XkJqagYAADwQGeiI+Xo+UlAy4uzsjKMj7gb/tvO7znJ0d0K5dDWi1Mv7++wYuX462Ks+r+0OCj08RDB7cFJ991h6fftoO/fs3yhFi7iey7hFB1t/StvuWLEvqUP1Goxlubk6oU6cUFEXg779vYNu2zIfq9u/fCMHBPjh2LBz79l3B9euxKFXKG+XKFYeSda+URiM9cJ39GwaDGTNm7ECpUh+he/f5+OijNfjssw34+uvtiIjI7LZMmf6fbQ5ZF75Wrz4NIQSGDGmqdvWWslotkbXN2Ib6vHjYeYYsy2jatCJKlfJGeHg8Dh++nueLrtnfVQiBixejcORI5v1clSv7233gJXoacj8bfAYFB/ugX78XERWVjAMHrqFhw7J4662GuY5tD3WnEonx49epfWjv35neuhWPLVsuwNfXHU2alM9xYNXpDNi5M/NE9733WuLy5c8xe3YP+PhkjmyW7WE3+9/P09MF7dvXgCRJ2L37slXf44eRZQkjR7ZAcHBm15/HIYTA3r1XMGPGDsiyhJkzu2PNmiGoXTvosQ704r6r1bKcvz+p+Hg9Zs3aheXLjwNZV0Btj3nnz0fgk0/WqSMIZS/7/cfK+6+yarUaREQk4cCBa5BlCcuWvYMzZyZg5MgWOQ4sD1oPRmPmiFSNGn2N9etDIEkSXnmlqlXgyV6u7Ku3AHDpUjQ++WQdzp69g2vXYnDtWgykrGct1K8fjP79G2H+/F4oV+6f7jJ6vRGzZ+/G3r1X4Ofnjq1bL+Dnnw/lGooPH76BEyduon79YFSrFpjjhEGWJfW3fP/BvmhRZzRtWkG9rym7hUeWJciynOMqNbKuoiqKAknK21PQLRaBgwevITU1A02bVsCVK5OxevUQVKkSAEn6Z/vLXuf/5W8qm6+vO4YMeSnXUGa7bnPj6KjFyy9ntt6ePXsXZ85k3guQXxRF4OzZO2jf/gd8+eUWAEDTphWzulP9U892UbPXrVYrq2WP2udJkoT69UujVq0gJCamYc+eK4+8IT2/ZXZVzWzpu3cvJUdrb/YN8wDg4+MGZ2ctatcuBVmWsGrVaWzceA7FihXBG280wEsvVcDt2wn4/vu90OsNqFIlAP7+Hihe3B1OTlrExurUh4rmh9Onb2Pq1G1QFIHOnWtj7dqhOHBgDDZtGo7nnguyrf7EZP9u9XoDPvtsA7ZvD1W7i6anmzBp0kZs3nwe5qxBHx53HyBl3R+LrG3r/v2MoijqfLVaTY7fGPJhm0PWBa3ExDRIkoTy5X2tzgOsf/t5m1+2vJxnlCnjg1atMltCt2y58NBR6mzp9UbMmrULjRt/gytX7qFoUWc0aVL+gRfuiCjv7GYrCgm5i8WL/wYANGlSAUuWvI2yZTO7NuQmIiIJAwYsxW+/HbHaITs6auDgoIEkSfjyy444fvxjvPBCZpcfgyHzqqeTkxYajaReQffwcLHacet0BrVrm5eXW55O2DSaf64M3bgRi0OHMq8MZR8wHBw0cHV1zLGDrlcvGK1bV8v1wPEoaWlGrFp1GunpJrz2Wk306/fvWomeFIPBjOnTt2P8+HUPPfEQWTejDhiwBAkJaSha1AVCZD4AM/vc0mAwIz4+c0Qmb29XCCHBZLJAlqWs+xT+mV9Cgh7JyenQajXw8HDJsc5v3UrAsGEr0LHjXDWYCiEwY8YOhIZGqvWyl6tfv8UID/+nG80ff5zA228vxvXrsTCbM+9BmT59B1q1+g6XLkUjKMjb6v4Ok8mMxMQ0eHtn3ofi6KhFaGgkvv9+DwYOXIqIiCT1qraXlyt+/30A1q8fhpIlvSCEUFsvXFwc4ObmoLaWREYmWbUCZWSYoGQ91T77AOvunvmASyEE7t5NtNpWEhMz15ODgwbFi1s/4DU3iiKQkZH5eUWKOFmdJBiNFnW0Ii8vV3Vwg/yW199Uts6da6NWrZK2kx9L1aqBePHFcjAazdiy5YLaepK9LvP6cEZbycnpmD59B55/fhoOHLimTl+69Cg2bz4PNzcnuLk5Ii3NaDXIgV5vQEpKOmRZgre3GxwdtXna5zk4aODn5442baoBADZtOqeuw+wTYXd3Z2i1T+Zvh6wLSDVrloCDgwZnztzBuXPWwyTfuBGLw4czr4zXqVMKrq6OqFTJDz4+RRAbm4rU1Aw0aFAatWqVVLu73rgRCwCoW7cUihRxQsWKfqhaNRAJCXr88cfJHF33zFn3ej4OkTUoTnJyOkqU8MSkSe3RqdNzaNKkAsqWLWb1MOC8kGVJ3X4y72MDTp26halTt+KPP07kejEkNwcPXsMbb/yMAweuqevx8OEbeOONn3HwYOZv6nH3AZIE+PkVhSRJuHcvFSkp/6w/k8mCqKjModH9/NxzPd7kxzaXfbwUQiAtLXN0U2R9fvbIfD4+RR77uJmX8wxXV0e0aVMdWq2MAweu4fLlaAghYLFkLoSbm2OOC2sAcPx4ONq1+x5jxqxSLySkpGRg2rRt/6qrPBFZe7ytvQC7dCkKN27Eok2b6li+vD8qVPDNcaJ6v4iIJFy/HoOBA5tg9uwekLO6QgQEeKJMGR8IIbBz5yWcPXsX69eH4L33VuLjj9cCABo1KoegIG/1/papU7fh3Xd/x++/H8e8eQfQt+8ihITchYuLQ9awow9ejvvdf2Vo1qyd+OyzDfj8801ISNCjdOliCA7OOdqYk5PDA1uxHkWnM+Dq1cxnb0RFJWP27D2YPHmT1evrrzP7l99/UvG06HQGnD59G9WqBWLt2qEoUcITTk4O0GgyD6rZo+rMnNkdw4Y1w/XrsdDrDahdO/Nq6U8/7ceyZUexd+8VzJmzB7t3X4YsS6hXrzQCAz1QtmwxmM0K3n33d0yYsB4rV57E1KlbMWDAEuj1BpQrVxxly1rfmIysK+HZz+YBgJEjW2Do0JcQGZmMmzfj4eioybFckZFJkGUJ33zTFSNHtkBYWJx6BfKzz9pj4sT2uHUrXn1/9s36yDohbtasEhIS9Jg37wCMRjP27buKDz9cgxUrTiAk5C7Kly8OT08XJCamYffuSzh16haWLTuGfv0WY8mSo5AkCU2aVECxYu7qqG1//HEC8+YdwP79V7Fx4zn8+OM+KIpA2bLF1Zuoixd3x8svVwEA/PDDXixYcAAHDlzD+vUh+OKLzUhJycBzzwXl6V4vrVZGtWoBkGUJW7ZcwFtv/YqFCw9i2bJjGDRoKZYuPQYAqF+/NJydM58hlN8e9pvKjYuLwwODXF63CU9PF3ToUAuSJOGPP05g/Ph1GD9+PU6cuAkXFwdUqxb4wM9/GIPBjJUrT6qhtVWrKpgxoxuEELh0KRolS3qifHlfGI1mTJu2DevXh2DHjlBMm7YNd+4kwt/fA1WqBKBkSa887fOKFy8CR0ctXnmlKjw9XXHixE2MH78e48evwx9/nAAA1K5dKteT2Gxms4KdOy9hyZKjMJsVxMfrsHDhQRw7Fm61PoUQOHfuLubO3Y+IiCQoisCff57Apk3nUbt2KTRqVA5paUa8995KrFx5Cjt3XsKMGTvQrdt83L6dgEqV/NC8eSVoNDJKlvSyGmCgZcsq8PR0Rb16wQgKytzOtFpZHRQgIMAD/fq9AFmWMHv2brz88ndYsOAg1q49gy+/3IJatSbjvff+xLVrMZg37wDOnr0DANi79woWLfpb7eqUffyJiEjE/PkHEROTAkdHDSIjk/HXX6ewf/9VbNgQgpEjM+eFrOenrVsXgo0bz2HFihNQlMygtGDBQXWkMGSFkMDAzMFktmy5gJ07Q7FkyVF88sk6LF58JMdw6PfLvqj39tsv4scf34BOl4HLl6MhSRL69GmIefN6IT3diNDQKFgsymPvAzSazNFPg4K8cP16DCZN2oht2y5i376rmDNnD/744wQkSULr1tXg5pZzO8+fbc4VVapkjrT200/78fvvx7Fv31V8//1ebNlyHnLWCJa5BY+Hyct5hiRJaNCgDGrVyhx5b9KkTfjssw349ttdEEKgWrXAXO9HPHz4hjqghkYj47vvXkeTJhVw9WoMAw9RPrCbwAMAPXvWx6JFfdURZR7Gx8cNxYu7Y+HCgxg16k84OWlRo0YJBAZ6YPDgptBoZOzffxWdOs1F584/4YcfMrs9NGlSAR9++CqKFSuC0aNboWXLyjAazfj550Po1esXDB26XL3a+v77rfDSSxVz7BCRtVPMnpz9X1dXR7Rtm9lHPjQ0Cl99tRXbtl2EVivj/fdbqjfj3i+XWeeZyWRRrwQeP34TkydvwsSJG61en3yyNusqqu27n4z715WzsxbBwT64eDESnTv/hIiIJNSrF6z23a9aNQBubk744IO/8OOP+1C8eBGULOmFQYOaoHJlf9y+nYC33/4NLVrMwuTJm2CxKOjV63m8/HIVBAZ6YOrUzihVyhtRUcn46qut6NFjIT75ZB3CwuLg4KDBZ5+1y3H1Ltvbb7+I2bN7wMFBgzlz9uCnn/bDy8sVgYEeqFo1AC4ujupyBQR4oHnzSihSxAnjxq3GnDl7ULy4O6pXD4S/f1FMnrwJn3++CT4+blkP7JTVB2wCgIODFmPHvoLt20ehd+/n0ahROTRuXB4DBjTG/v0foF27GnjuuSC89VZDIGvY5datZ+Ott37FqlWZ/diHDn0Jb7xRH05OWnTtWgdNmlRASkoGPvjgLzRrNhMdO87F/v1XUa5ccXz9dRf1ZmEnJy3692+E558vg+joFAwbtgIvvTQDnTrNxc6dl+Dm5oQPP2ytnnzZ+uc3nnk/RJcuddQRvTZvPo9Bg5bhrbd+xYoVJyCEQJs21dG37wv52oUjr7+px5Xbdn2/7HKNRkaTJhUQHOyNxMQ0fPvtLixe/DcURWDAgMZo1KhcrvPKbR9hq3Hj8li8uB9Kl/bBrl2XMGbMKgiROaR0YKAnRo9uBTc3J3Vf1rr1bCxbdgyyLGHUqBaoUsUffn5F87TPy773IbPFqiwURWDx4r/x7be7kJiYhmbNKqJHj3oP/duZzZmjWP311ykgq9VvwYLMhyZnXwFHVhfUs2fv4vvv96hXu7dsuYBVq07By8sF06Z1QenSPrh0KQo9ey7EK698h7FjV+P69Rh4erpixoxu6iANnp6uqF07894kb283vPhi5rD2QUHeaktWYKAnKlTwg5TVHeuddxph1qzucHTU4sSJmxg8eBm6dJmHTz9dj9DQKOzffw0hIXcxc+ZO9f6b8+cj8NNP+3OMMmc2K5gzZw9MJgWvvlodQgh8+eUWdbvbteuSus5CQu5izZpTWLfuLNauPQNktZ799NN+HD+e+SwmZH2nwYObwtXVETt2hKJt2+8xZ84eAMBzz5V8aOgMCvJGmTLFsGjR3xg2bAVkOfP3WaGCL5YsOYohQ5ZDkiSULOkFWZb+1T6gatUAjBnzCmQ58+GebdrMQfPmM/HJJ+uQlmZE16610bFjrcduYcltO7lfdnmRIk54992X1B4TffsuQvPmM/HZZxtgNivo3r0u2rSpnmuwetR2l5fzDD8/d/Xeve3bL+Krr7bi4sVIBAV5YcSI5rl213Nw0GDy5A54//1WsFgUvPfeShw8eA0BAR7w8Mj7vaFElDtJ5PWSSQFksSi4cSMWsbE6ODlpUaWKv3pQRtZQttlPD69c2d9qp2E2K9i27QLmzt0PDw8XvPVWQ3U8fbNZwfHj4Vi58hTOnr2j3vzatm119OnzgtWzLJKT07FlywX8/fcNhIXFQqczoFIlf3TpUhvNmlV84IHHZLLgypV7SE5OR8mSnihVyhuSJEGvN+Dy5Wi1b7qDgwbly/uqQ1Mj6yrX7dsJuHs3CR4eLqhUyU9t5UlI0OPq1XuQZRlVqvhbnTjbMhrNuHQpGqmpGQ+8cqbRyKhQwfehN40rikBYWCzu3UuFj48bKlTwVQ9kQgjcupWAiIgkeHq6oFIl/xwnRIqSeTN7VFQyvLxcUbGin1rn6tV7mDp1G+7dS0GbNtXx1lvPqzc1m80Kdu26hKVLjyIhQY9Bg5rgtddqQauVodNlPmhzx45QxMSkolIlP3TuXBv165e2+vw7dxKxfv1ZnD17B7duJcBiUVC/fmm8/npdPPdckNX3uH0783sUK1YE5coVh8FgxpIlR/Hnn5lXLPv0aYg332wAWZZzLFebNtVx8OB1LFlyBLGxOgwc2Bjt29fEqVO38Msvh3HnTgL69HkBr79eF46OWkRGJuHmzXi4ujqicmX/B/6O7peebsL27Rexbt1Z3LgRC4tFga+vO958swFee62W2u0NWfexrFx5EseP30R0dDJ8fd3RvHkldO1aJ9ffTPbDAI8dC0dkZDI8PFxQubI/Xn+9LqpWDXjgiUhsbCquXYuBk5MWlStnbp9GoxkHDlzDrl2XcO1aDGJjdQgI8EDbttXRoUMteHm5/me/KWT9rq5ciUZSUjoCAjxQunTm4BBCCEREJOHWrQS4uzuhcmX/HIOUPOhzs+eZ2c1SQKORUaKE50MHE3jQPiI+PnMbd3FxQOXK/nBw0GDnzkv44Ye9SE5OR4sWlTFqVAv1KnJUVDLWrj2DQ4euw2i0oF69YHTtWgfly2c+jwxZ3zmv+7z79z+Z929kdo27fx0/yP3rJ3tEMo0m8+HGtsPfx8Sk4vr1GLW7nJR1r1u5csWh0chISkrDtm0XsWLFCcTGpsLd3RmdOj2Hrl3rwNf3n/1V9t/t9u0EuLll/t2cnLQQQuDu3czpD/p7RkQkYf36szhw4BoiI5MRGOiBV16pivbta8LV1RGXLkWpI31JWUPAV6kSACenzAdeZ2+HGo2McuWKw8XFEVu2nMeOHaFITk5Xu9ZVqRKAsLBYdUh4SQLi4vRW66hMmWJWo5YpisDp07fx229HcPFiJLy93fD22y+idetqD/07CCFw/nwEFiw4iMuXo9G2bQ0MGtQEt27FY/78AwgNjULr1tUwdOhLVt0tH3cfYLEoOHHiJtasOYMbN2KRnm5CUJAXmjWrhA4dalodq5/ENieEwNWrMZg3bz9OnboNV1dHVK8eiM6da+P558s8cB3ZbnclSngiLCzusc8zsrdTs9kCSZLU7pW5fe/k5HR1G4iJScWsWTtx+PANeHu74f33W6Fp0woP3E8QUd4804GHiIiIiIjoYXK/xEFERERERGQHGHiIiIiIiMhuMfAQEREREZHdYuAhIiIiIiK7xcBDRERERER2i4GHiIiIiIjsFgMPERERERHZLQYeIiIiIiKyWww8RERERERktxh4iIiIiIjIbjHwEBERERGR3WLgISIiIiIiu8XAQ0REREREdouBh4iIiIiI7BYDDxERERER2S0GHiIiIiIislsMPEREREREZLcYeIiIiIiIyG4x8BARERERkd1i4CEiIiIiIrvFwENERERERHaLgYeIiIiIiOwWAw8REREREdktBh4iIiIiIrJbDDxERERERGS3GHiIiIiIiMhuMfAQEREREZHdkoQQwnYiEREVXGlpabhz5w5u3ryJy5cv4+zZs7hy5Qr0er1tVXoGSZIEf39/lCxZEtWqVUOtWrVQqlQplCpVCo6OjrbViYjoERh4iIgKOIvFAovFgqtXr2LDhg3YsWMH7t69i8jISJhMJggh1Bc9+yRJUv8rSRIcHR1RsmRJlCtXDi1atEC7du1Qrlw5ODg4qHWJiOjBGHiIiAogIQQURUF8fDyOHz+OqVOn4tSpUzCbzWqw0Wq1cHNzg7u7O9zd3aHVagEArq6u6v/Ts0NRFOh0OgCAyWSCXq9HSkoKUlNToSgKhBDQaDRwdHREw4YN8cEHH+CFF15A0aJFodFobGdHRERZGHiIiAoYIQTS09OxevVqzJs3DydPnoTJZFKv5js6OqJVq1bo1KkTKlSoAB8fH3h7e8PBwQEA4OHhof4/PTssFguSkpIghIDBYEBycjLi4uJw4cIFrF+/Hvv371db9ADAxcUF9erVw6hRo9CxY0fIsswWHyKiXDDwEBEVICaTCUeOHMGECRNw5MgR9cq+j48PGjZsiO7du6NDhw4oUqQIZDlz3Bnbk1zbf9Oz5f7D8v3dFZOSkrB69WqsWbMGx48fR1JSEmRZhizLaNasGb766ivUq1ePf38iIhsMPEREBYAQAmazGdOnT8esWbOQmJgIIQQ8PDzQs2dP9OrVC/Xq1YODgwOv5BdS2d0c9Xo9Tp8+jXnz5mH9+vUwGo2QJAklS5bEmDFj0L9/fzg7O/M3QkSUhYGHiOg/pigK7t27h48//hjLly+HoihwdXXFiy++iKlTp6JmzZrQaDQ8gSVVdkDev38/Jk+ejOPHj8NoNMLR0REffPABRo8eDS8vL7UVkIioMGPgISL6DwkhEBISghEjRqhd2Nzd3fHtt9+iT58+HHyAHikhIQHLly/HhAkTkJqaCo1GgxYtWmDu3LkoW7YsgzIRFXoMPERE/6GbN2+ia9euOHv2LBRFQfXq1bF06VLUqFGDI29RngghYLFYsHXrVgwZMgT37t0DALRs2RJ//PEHPD09GXqIqFBjWzcR0X9ACIGoqCgMHDgQ586dgyzL6NGjB1auXMmwQ49FkiRotVq0a9cOmzdvRvPmzSFJEnbv3o3BgwcjISHBaiAEIqLChi08RERPmRACOp0OQ4YMwcqVKyGEQMOGDbFmzRoUL16cV+PpXxNC4Pbt23j11Vdx7do1SJKEcePGYcKECXBxcbGtTkRUKLCFh4joKbNYLPj888+xatUqWCwWNGjQAL/99ht8fX0Zduj/IkkSSpUqhT///BPly5eHxWLBrFmz8OOPP8JisdhWJyIqFNjCQ0T0lO3ZswetW7eGxWJBcHAwNmzYgOrVqzPsUL6xWCzYs2cPunXrBp1Oh+DgYGzZsgWVK1e2rUpEZPfYwkNE9BSlpaVhzpw5sFgscHBwwMyZM1G1alWGHcpX2SO1zZw5E46Ojrhz5w6+++47KIpiW5WIyO4x8BARPSVCCBw5cgTbtm2DJEno1KkT2rdvzwEK6ImQZRldunRBrVq1oCgKFi1ahEOHDjH0EFGhw8BDRPSUREdHY9iwYTAajShSpAg++OADODg42FYjyheSJMHb2xtjxoyBVquF2WzGtGnToNfrbasSEdk1Bh4ioqdACIH169cjLCwMGo0G7dq1Q926dQtVVzZFUZCRkQGdTgej0cihkp+Sjh07omvXrhBCYN++fbh58ybXPREVKhy0gIjoKVAUBR07dsSWLVsQGBiI48ePw9/fv1AEHkVRcO3aNSxbtgyXL19GXFwcAgMDUa1aNXTr1g0VK1YEskJhRkYGkpOT4e/vbzub/4sQAoqiIDk5GUWKFIGjo6NtFbslhMCBAwfQpUsXJCQkoF+/fliwYAFbF4mo0GALDxHRE5b93J2DBw9CCIF27drBz8+vUIQdIQTOnTuH5557DjNnzsSuXbsQEhKCzZs3Y8qUKdi0aZNaLykpCe3atcO8efNsZ/N/M5vNmDNnDpo0aYKoqCjbYrsmSRJq1aqF0qVLAwBWrFiBiIgI22pERHaLgYeI6AlTFAV//fUXdDodHBwc0LJlS8hy4dj9Go1GTJkyBZIk4ccff0RUVBTi4+MRGhqKpUuXol+/fmrd0NBQ/P333zCZTFbzyA/p6enYtGkTUlJSCuVN++7u7njzzTeBrPD3999/21YhIrJbheOIS0T0H7JYLFi4cCGEEHBzc8Nzzz1nW8VuGQwGXLhwASVLlsSbb74JJycnSJKEgIAAdOrUCV5eXuq9Pdn39ZjNZmRkZCAjI0MNJ4qiwGAwQK/XQ6fTIS0tDSaTyepeFIvFAr1eD7PZrM5Tr9cjIyMDBoMBFosFQggYjUb18woLWZbRvXt3yLIMRVFw5MiRQhn8iKhw4j08RERP2L1791CmTBlkZGSgZs2aOHbsGJycnGyr2SW9Xo+XXnoJN27cwN9//42KFSvmGIbbaDSibdu2SE5OxpkzZ1CqVCmUK1cOADB8+HC0bt0a8+fPx65du3D37l1kZGTA09MT1apVw9ixY1GhQgVIkoRDhw5h8ODB+OCDD3D79m0cPHgQaWlpaNSoEU6dOoULFy5Ar9ejbt26cHFxgYODA7Zs2WK1LPbMaDTi+eefR0hICNq0aYNVq1bBxcXFthoRkd1hCw8R0RMWGRmpti60bNmyUN0s7uzsjA4dOkCn06Fbt244c+YMTCaTuj6Qdf+O7UtRFLUFwmw2Y8eOHbhx4wZeeeUVdO/eHd7e3liyZAl69OgBs9kMZHXbCg8Px5gxYzB9+nRIkoSOHTvC0dEx1/kXNrIso2bNmpBlGRERETAYDLZViIjsElt4iIiesK1bt6JDhw4wm81YtmwZ3nzzzUIxYEG2hIQEzJw5EwsWLEBycjKef/55dOnSBW+++Sb8/PyArC5rR44cQcuWLTF69GhMmTIFyLrhXlEUxMbGwtfXV52nxWLBV199hS+//BK///47unXrhtDQUNStWxcAsGjRIrz++uuQZRlCCKSkpKBLly64evUqDhw4gNKlSxeqvwGy1tn06dPx6aefwsfHB+fOnbNap0RE9ootPERET5her1dbM4KDg22L7Z6XlxcmTZqEkJAQvPfee7hw4QI++ugj1K9fHyEhIUBWsMkmSZL6QlbLhK+vr3pfzuXLl7F7926Eh4dDkiRcuXJFfS8A1KhRAx07dlQHhrh/Xtls/11YZP/+9Ho9LBaLbTERkV1i4CEiesLuf8hm8eLFC93JtiRJcHBwQEBAAL766iscPXoU/fr1Q2xsLD788EMkJyfbvsWKoii4cuUKRowYgdq1a6NBgwbo1q0bNm/eDIvFgpSUFKv6fn5+Oe4Tosy/g6OjI2RZ5oNfiahQYeAhInrCDAYDTy6zTri1Wi0qVaqE6dOno3LlyggNDUVMTIxtVSvJyckYMGAAfv75Z9SsWROrVq1CWFgYli9fDldXV9vq6khwlFN24CEiKky41yMiesJcXFzUE/DCNBTyw7i6usLHx8cqmGSPXGfb1SosLAwnT57EoEGDsGTJErzyyisoVqwY3Nzc8hwkJUliqw+gDvXNQEhEhQkDDxHRE6bVatUTzNjY2DyfpNsDnU6HqVOnIj09XR2dzWQy4fr167h8+TL8/f3h5eUFAKhcuTIkScKFCxdgNpthNpshhMC9e/dgNpvV1gmLxYKMjAxs2rQJaWlpSE9Pf+Q6dXFxgYeHB/R6PVJSUtRn9RQmQgikp6dDURS4ubkxABJRocHAQ0T0hHl7e6uB58yZM7bFdu3QoUOYNm0aqlSpgv79+2PMmDEYOnQo2rRpAwCYMGGCun7c3NzwwgsvYP/+/Rg9ejTeffddXLx4ETVr1kTp0qWxdOlSjBs3DqNHj0br1q2xYMECaLVaREVFwWg0QpIkyLKca+uFRqNB69atodPp8Mknn+CTTz7BDz/8YFvN7l27dg1CCBQtWhRarda2mIjILjHwEBE9YQEBAdBoNJAkCadOnXpka4Q9adSoEX799Vd4e3vjzz//xI8//oilS5eicuXK2LlzJ9q2bWs1mtqUKVPg7OyMefPm4a+//kJycjICAgKwcOFCFCtWDHPnzlWDzqZNmxAcHAyTyQSz2QwXFxc0bNgQlSpVyhF6JElCr169MHz4cOzZswfff/89Ll68aFXH3imKgpCQEAghEBgYCEdHR9sqRER2ic/hISJ6wlJTU1G+fHnExsYiKCgIFy5cgLu7u201uyWyHvaZnp6O6OholChRAo6OjpByGS5aZD0UNDo6GgEBAWodIQQsFgsiIiJQtGhReHh4QJIkxMXFwcfHRw1N2fen2M43W/YzfRwcHODl5fXAevZIr9ejUqVKiIyMRLdu3bBs2TKGHiIqFNjCQ0T0hDk7O6NNmzaQJAmJiYkIDQ21rWLXsruaubm5oVy5cnB2dn5g1zMpa3CBwMBAqzpS1ghvpUqVgpeXl1pWrFgxq1HHHjTfbNnP9Lm/m2FhoCgKTp8+jaioKEiShBo1asDBwcG2GhGRXWLgISJ6wjQaDfr37w9ZlpGeno7jx48Xqm5t/8aDwojtdNt/58W/ec+zzmKx4M8//4SiKNBoNGjcuHGhXA9EVDgx8BARPWGyLOOFF15A6dKlYbFYsG7dukI3Qhj9tyIiIrBjxw4AQGBgIOrXr29bhYjIbjHwEBE9BbIso3nz5pAkCUeOHMGhQ4fYykNPhRAChw4dwu3btyFJEsaNGwcXFxfbakREdouBh4joKZAkCd27d4eDgwMMBgOGDRuG5ORk22pE+S4pKQlffPEFjEYjAgIC0K5dO6v7noiI7B33eERET4EkSWjWrJn6/Jnr169j48aNsFgstlWJ8o3JZMLXX3+NsLAwyLKMnj17IjAwkPfvEFGhwmGpiYieolu3bqFJkya4e/cuypUrh9OnT6NIkSI8AaV8J4TAjRs30LJlS9y5cwfFihXDxYsXUaxYMf7eiKhQYQsPEdFTVKJECbz55psAgBs3buDzzz9HWlqabTWi/5tOp8MXX3yBiIgIuLi4YMaMGQw7RFQoMfAQET1FWq0Ww4YNg5+fHwBg/vz5WLp0Kbu2Ub7KyMjAF198gT/++ANCCNSuXRvt2rVj2CGiQomBh4joKQsMDMTy5cvh5+eHtLQ0fPjhh9iwYQNDD+ULk8mEVatWYd68eTCZTAgKCsL06dPh7e1tW5WIqFBg4CEieso0Gg2aNm2KKVOmQKPRIDU1FcOGDcPZs2f5fB76vyiKgrVr12LUqFHQ6XTw8vLC/Pnz8fzzz7N1h4gKLQYeIqL/gFarRb9+/TBx4kS4uroiOjoaL7/8Mv766y9kZGTYVid6JJ1OhyVLlmDYsGFITEyEm5sbJk2ahBYtWnAYaiIq1LgHJCL6j8iyjJEjR6JXr17QaDRISkrCkCFD8NFHHyElJcW2OlGuFEVBRkYGRowYgaFDhyIhIQHOzs74+OOPMXjwYGi1Wtu3EBEVKppJkyZNsp1IRERPh5OTE1q2bAmLxYILFy4gJSUFJ0+exLlz51CzZk14eHhAlmV2R6IchBAwGAw4efIkunbtip07d8JiscDX1xfjxo3D6NGj4eTkxN8OERV6fA4PEVEBYDAYsHPnTowYMQK3bt2CJEkoUaIEOnTogA8//BAlSpSAJEk8eSUIIaAoCi5evIgvvvgCBw4cQGxsLCRJQlBQEH799Vc0a9aM3diIiLIw8BARFRCKoiA0NBSDBg3CqVOnYDKZIMsyNBoNxo4di7feegtBQUFwdXW1fSsVEikpKQgLC8Ovv/6KX3/9Fenp6RBCwNHREa1bt8bixYvVVkEiIsrEwENEVIAoioLo6Gjs2LEDU6dORVhYGBRFgSzLCAoKQpkyZdCsWTO8+uqrqFGjBjQaDTQaDVt/7Ex2K46iKDAajTh9+jS2bduGI0eO4OrVq7h37x4sFgu0Wi1q166NcePG4aWXXoKPjw9/B0RENhh4iIgKIEVRYDKZMGPGDPz222+4c+cOjEYjFEVRQ0758uXRokUL1KlTBxUqVICjoyMAwNXVlVf4n1FGoxFGoxF6vR6hoaEIDQ3Fzp07cevWLZjNZgghIMsyHBwcUL58eQwaNAj9+vWDm5sb/+ZERA/AwENEVMDdunULe/fuxfr167F3716rEdxy24V7eXlxZK5nlF6vR1pamtW0+1tsfHx80KpVK3Tt2hUvvPACAgMD2aJDRPQIDDxERAVcdvcmIQR0Oh127NiBP/74A+fPn4dOp1NPki0Wi/oengQ/m7IPybIso0iRInBzc4OHhwfq16+P119/Hc2aNYOzszMkSeLofUREecTAQ0T0jFEUBRaLBREREYiPj0d8fDySkpKsAo+9MZvNeO+995CQkABJkjB06FA0btzYtprd0Gg08PHxgaenJ/z9/VG8eHFotVp2WyMi+hcYeIiIqMAzGAwoV64cIiMjAQC//fYb3nrrLdtqREREOfBSERERERER2S0GHiIiIiIislsMPEREREREZLcYeIiIiIiIyG4x8BARERERkd1i4CEiIiIiIrvFwENERERERHaLgYeIiIiIiOwWAw8REREREdktBh4iIiIiIrJbDDxERERERGS3GHiIiIiIiMhuMfAQEREREZHdYuAhIqICxWw248iRI5g3bx7MZrNtcQ4RERH4+uuvceXKFQghbIuJiKiQY+AhIqIC5ezZs+jUqRNGjhyJzz//HCaTybYKAEAIgbi4OLzxxhv47LPPMGDAABiNRttqRERUyDHwEBFRgSGEwNGjRxEbGwuTyYRZs2bh6tWrAABJknLUnTp1Ko4cOQKj0YgrV67AYrFY1SEiImLgISKiAkOSJPTs2RPly5cHAKSnp2PEiBFITk6Gr6+vWi8uLg6XLl3C8uXLYTabIcsymjdvDkdHx/vmRkRExMBDREQFjJeXFwYOHAhJkiCEwJEjR7B161ZotVq1jsFgwI8//ojY2FgAgIODA8aMGQONRnPfnIiIiBh4iIiogNFoNOjduzfKli0LWZZhMBjw7bffIi0tTa1z9OhRLF68GEIIaDQaDBs2DHXr1s3R7Y2IiEgSHNKGiIgKGEVRcOTIEbRq1QoZGRmQJAmyLKv36MiyDEVRAACVKlXCrl27ULJkSZu5EBERsYWHiIgKIFmW8fzzz6N169Zq17b7ByTIDjuSJKFPnz4ICAi4791ERET/YAsPEREVWPv27UObNm2QkZFhWwRJklCuXDkcP34cXl5etsVEREQAW3iIiKgga9KkCfr37w9Zznm4cnV1xTfffIOiRYvaFhEREalyHkGIiIgKCI1Gg48++gjlypWzmi7LMurWrYtWrVpxZDYiInooBh4iIirQ/P390bdvX6tpbm5u+PTTT1GkSBGr6URERLYYeIiIqEDTarUYPnw4KlWqBFmWIcsyunXrhmbNmnEYaiIieiQOWkBEdkFRFCQkJODgwYNIT0+3LaZnnKIoOHDgAH755Rc4Ojriww8/RMWKFW2rkR2oWLEiatSoAScnJ9siIqJ/hYGHiOyCyWTCO++8gz///BMmk8m2mIieAZIkoVSpUli1ahXq1atnW0xE9K+wSxsR2QWz2YxVq1Yx7BA9w4QQiIqKQkxMjG0REdG/xhYeIrILaWlp8Pb2hsFgQMOGDfHdd99x9C6iZ4QQArdu3cIbb7wBSZKwdu1atGvXzrYaEdG/wsBDRHbh/sDTpk0bbNiwAVqt1rYaERVAQghcunQJtWvXhhCCgYeI8hW7tBERERERkd1i4CEiIiIiIrvFwENERERERHaLgYeIiIiIiOwWAw8REREREdktBh4iIiIiIrJbDDxERERERGS3GHiIiIiIiMhuMfAQEREREZHdYuAhIiIiIiK7xcBDRERERER2i4GHiIiIiIjsFgMPERERERHZLQYeIiIiIiKyWww8RERERERktxh4iIiIiIjIbjHwEBERERGR3WLgISIiIiIiu8XAQ0REREREdouBh4iIciWEgF6vR2xsLMxms23xY1EUBUajEampqTAajVAUxbZKgSaEgNlshk6nQ3p6OiwWC4QQttWIiKgAYuAhIqJcmUwmvPfee6hZsyZ27dplW5xniqLg4MGDGD58ODp27IghQ4Zg8+bNsFgstlULrCtXruDjjz9G586d0bdvXyxYsABGo9G2GhERFUAMPERE9EAhISGIjY1FWFiYbVGeKIqCEydOoHXr1li/fj0MBgO2bNmCd955B4cOHSrwoUcIgfj4eLzzzjv4+eefkZycjOPHj+ODDz7AtGnTYDAYbN9CREQFDAMPERHlSqPRYNq0aZgxYwY6depkW5wnGRkZ+PTTT+Ht7Y1NmzZhz5492LlzJwICAjB48GDodDrbtxQoiqJg5syZCA0NxQ8//ID9+/fj2LFjePXVVzFv3jxcv37d9i1ERFTAMPAQEVGuNBoNmjRpgoEDB8Lf39+2OE/Cw8Nx6NAhjBgxAnXq1IGTkxOqVq2KSZMm4caNG9i6davtW/6VjIwM6PV6mEymHPfWGAwGpKWlwWQyWU3Pi/j4eHz33Xd49dVX0b17d7i4uMDPzw/ffvstUlNTsWjRItu3EBFRAcPAQ0REuVIUBTNmzECtWrUQEhJiW5wnixcvhizL6NOnD2Q585Cj0WhQvXp1eHt7Y+PGjf93tzaz2Yxff/0V1atXx0cffYSMjAy1LCMjAwMHDkTDhg2xe/duq/c9ihACBw4cgMFgwKuvvgoHBwe1rESJEqhduzaWLFli9XlERFTwMPAQEdEDJSUl4c6dO+oN+iaTCYmJiUhMTERCQkKOV2JiIlJSUtT3h4SEwN3dHYGBgZAkSZ1etGhRFC1aFLGxsf93YNBqtRg4cCBeeOEFfP/99/jtt99gNpthMpkwdepUrFy5Ek2aNEGrVq0ghEBKSkqO5b5/+ZOSkmA2myGEwK1bt6DValGiRAmr5ZdlGRUrVkRqaipiY2NztCoREVHBwcBDREQPdf/J/PXr11GqVCmUKlUKwcHBOV6lSpVCr1691GGbr169Ck9PT6uwAAAODg5wcHCATqf7vwMPskLPlClTULVqVXz99dc4fPgwli5diqlTp6J79+6YPn06tFotUlNT0bp16xzLff/ylylTBleuXAEAREdHQ6vVwsXFxfYjUbRoUQghcO/ePdsiIiIqQBh4iIgoz0qWLIk1a9Y89DVp0iTIsgxJkqDVam1nYSW/WkYkSULp0qWxY8cOGAwGvPzyyxgzZgz8/f3xzTffwNXVFQDg6uqKWbNm5Vjm+1+rVq1CqVKlgKyWHCIierZxT05ERHnm7u6OVq1aPfRVp04dtUWnbNmyVl3cshkMBhgMBri7u+faevJvSJKE4sWL44MPPoCiKLBYLNi0aRP8/PzUOlqtFg0bNsyxzPe/WrRoAXd3dwCAr68vzGZzrq1QCQkJkCTJav5ERFTwMPAQEVGe3bx5E+3atXvoa/z48epABGXLlkV8fDxu375t1Zqj0+mg1+tRrFixfAs8QgiYzWZs374dkiTBYDBgxowZVqOz6fV6DB8+PMcy3//q2LEjbt68qYYZk8mEmzdvQlEUdT6KouDmzZtwdnbOcX8PEREVLAw8RESUZ0IIpKWlPfR1/8M4hw8fDhcXF8yfP18NDBaLBcePH0diYiI6d+780LBgMpkQGxsLs9lsW2RFCIHU1FQMHz4cJ06cwLRp09CnTx+sWrUKCxYssHp/RkZGjmW2fSmKAkmS8PLLL6NYsWLYuHGjGpyEELhy5QrOnj2LwYMHs9sbEVFBJ4iI7IBerxdOTk4CgGjTpo0wmUy2VegxWSwWMW7cOOHg4CCOHj2qTktLS3voKyMjQ52HXq8XzZs3F15eXuLMmTPCbDaLO3fuCF9fX1GmTBmh1+vv+0RriqKIzz77TPj7+4s1a9bYFlsxm81i9uzZwsHBQbz33nvCYDCIlJQUUb16deHq6ip27NghLBaLUBRFpKen51hm25fFYhFCCGEymcTYsWOFi4uL+OWXX4TJZBKpqamiadOmolixYuLatWu2i0L/gqIo4uLFi8LR0VE4ODiITZs22VYhIvrXeFmKiIjyTJZlODs7P/Tl5OSk1ndxccHEiRNRtGhRdO7cGV26dEHTpk2h0Wjw22+/wdnZ2Wr+97NYLNi3bx9iYmKwdu1a22KVEAIbNmzApEmT0KhRI3z44YdwcHBAkSJFsHHjRpQpUwbvvPMOjh8/DkmScixvbq/7nxk0duxYNG3aFGPGjEGHDh3QrFkznDx5Eh9++CGCg4NtF4eIiAoYBh4iIsqVJElo1qwZxo4di8DAQKvpD3vZzqNx48bYs2cPunfvjqioKHTs2BGbN2/Giy+++NDuYBqNBn369IGXl9dDR3tLSUlBWFgY3n//faxevRq+vr7qsgQHB2PBggXo27evOtQ0HuM7SJKEYsWKYdmyZfj000+RmpqKSpUqYc2aNRg+fLjVw0iJiKhgkkR+jQlKRPQfSktLg7e3NwwGA9q0aYMNGzY89CSZ8kYIAUVR1GGm/x/Zz+aRJClP8xNC4PLly+jUqRPGjx+PPn362FYBsuplH8pyC1CPKs8rRVHU+5A0Gs0jl5/yTgiBS5cuoXbt2hBCYO3atWjXrp1tNSKif+Xf7/mJiMjuSZKUbyf3Go0GWq02z/NLS0vDgAEDUKpUKXTq1Mm2WJUdoB4UZh5VnleyLEOr1UKr1eZp+YmIqGD4//b+RERET4izszOGDBmCtWvXqs/FISIielwMPEREVCBpNBr06tULbm5ubFEhIqJ/jYGHiIgKrLzc60NERPQwDDxERERERGS3GHiIiIiIiMhuMfAQEREREZHdYuAhIiIiIiK7xcBDRERERER2i4GHiIiIiIjsFgMPERERERHZLQYeIiIiIiKyWww8RERERERktxh4iIiIiIjIbjHwEBERERGR3WLgISIiIiIiu8XAQ0REREREdouBh4iIiIiI7BYDDxERERER2S0GHiIiIiIislsMPEREREREZLcYeIiIiIiIyG4x8BARERERkd2ShBDCdiIR0bMmLS0N3t7eMBgMaN26NdatWwetVmtbjYgKICEErly5gjp16gAA1q5di3bt2tlWIyL6Vxh4iMgu3B94AgIC0KxZM0iSZFuNiAqolJQUbNmyBRqNhoGHiPIVAw8R2YX09HT4+fkhNTUVkiQx7BA9Y4QQEELA0dER69atQ5s2bWyrEBH9Kww8RGQXTCYTJkyYgHnz5sFkMtkWkx1QFEX9f4Za+xUUFITVq1ejevXqtkVERP8KAw8R2YXsq8Nms9m2iOyAxWLB1q1bkZGRAQCoX78+goODbauRHZBlGRqNhoGWiPINAw8R2RXu0uyT0WhE+fLlERkZCQBYvHgxevfubVuN7ACDDhHlNw5LTUR2JburE1/29cJ9rXjZoda2Dl/28SIiym8MPEREREREZLcYeIiIiIiIyG4x8BARERERkd1i4CEiogJPkiTI8j+HLA5OQUREecXAQ0REz4SAgAD1/2NjY63KiIiIHoSBh4iIiIiI7BYDDxERERER2S0GHiIiIiIislsMPEREREREZLcYeIiIiIiIyG4x8BARUYEnSRKKFSsGSZIAAElJSWqZoiiIiopCenr6fe8gIiLKxMBDREQFitFoxLhx41C2bFmcOHECFosFAODk5GRVB1nP41m8eDHq1KmDwYMHw2w2q3WIiIjAwENERAXN5cuX8eOPPyI8PBz9+/dHTEyMbRUgK+yEhITgww8/xL1797B69WpERUXZViMiokKOgYeIiAoUNzc3mEwmAMCFCxfw8ccfQwhhWw0ZGRkYO3YsEhISAAAeHh7w8vKyrUZERIUcAw8RERUowcHB6N27N5DVirNu3TocOHDAqo4QAkeOHMGJEyegKApkWUavXr3g4uJiVY+IiIiBh4iIChSNRoMRI0ZAq9VCkiSkpqbiu+++g6Ioah2TyYSpU6ciNTUVyGoVev/99yHLPKwREZE1zaRJkybZTiQiIvqvSJKE4sWLw2w24++//4bFYkF4eDiSk5ORmpoKIQTi4+Nx6tQpCCHg5OSEb7/9Fs2aNVNHcSMiIsomidw6RhMREf3H0tLS0LhxY5w5c8a2yErDhg2xadMm+Pj42BYRERGxSxsRERVMLi4uGDJkCBwdHW2LVJIkYeDAgRysgIiIHogtPEREVGDp9Xq0adMGBw8etC2CJElo0qQJtm7dCldXV9tiIiIigIGHiIgKujNnzqB169aIjY21mu7h4YFdu3ahTp06HKyAiIgeiEcIIiIq0KpXr44uXbpYTZNlGc2aNUP16tUZdoiI6KHYwkNERAWaEALXrl1DkyZNEBsbCyEEvL29sXPnTtSuXZsjsxER0UPxshgRERVYQggoioJSpUph8uTJ0Gg0kCQJgwYNQvXq1aEoCnjdjoiIHoYtPEREVGBkB5y0tDSEh4fj0qVLuHHjBm7duoWYmBhs27YNZrMZTZo0QZkyZVCmTBmUKlUK1atXR+nSpVG0aFE1FBEREYGBh4iICpLo6Gj8+uuv2LRpE8LCwhAfHw+z2WxbzYosy/D29kaJEiXQsmVLDBo0CJUqVbKtRkREhRQDDxER/aeEEIiOjsa6devw9ddfIyIiQu2qltdDlCRJ6qto0aIYPnw4evfujYoVK9pWJSKiQoaBh4iI/jMGgwFr1qzBjBkzcP78eZjNZgghIEkSZFmGg4MDKlWqhGrVqsHLywsVKlSAJEm4ffs2YmNjceXKFZw7dw4mkwkWi0UNSFqtFmXKlEHfvn0xevRoODs7s5sbEVEhxcBDRERPnRACer0eP//8Mz777DOkpqYCWd3TnJ2dUa1aNbRs2RLdunVDzZo1Icuy2oKT/f7s182bN7F69Wps374dISEhSEpKgqIoQFbwGTFiBD755BP4+Pgw9BARFUIMPERE9NTpdDqMGjUKK1asQHp6ujq9Tp06+Oqrr/D888/D09PT6j2Pkp6ejtDQUEyaNAmbN29WW3s0Gg1atGiBX375BUFBQbZvIyIiO8fAQ0RET1ViYiJGjhyJFStWqC0xfn5+GD16NIYMGQJXV1e1RedxKYoCo9GIlStX4uuvv0ZoaCiQFXoaNmyIlStXIiAg4F/Nm4iInk0MPERE9NSkpaVh/PjxmDNnDhRFgSzLCA4OxsKFC/HSSy/l25DSFosFFy9exNChQ3Hs2DFYLBZoNBq0adMGS5YsgaenZ758DhERFXx88CgRET0VFosFGzduxMKFC6EoCiRJQo0aNbBp0ya0bNkSWq0230KIRqNBjRo1sG3bNrRp0wayLMNisWDr1q2YO3cujEaj7VuIiMhOsYWHiIiein379qFHjx6IiYkBAJQoUQIbNmxA7dq18y3o5CYqKgpdu3bFkSNHAAAuLi6YNWsWhgwZYluViIjsEFt4iIjoiTMYDPjmm28QFxcHAPD09MSvv/6KWrVqPdGwAwD+/v5YsmSJ+kyejIwMzJ8/H5GRkbZViYjIDjHwEBHRE6UoCs6cOYODBw9CURRotVoMGDBAvWfnSZMkCaVLl8bEiRMhyzKEELh06RL++usv26pERGSH2KWNiIieqNTUVNSvXx9Xr16FEALly5fHmTNn4Obm9sRbd+5nNBrx0ksv4dixYxBCwM/PD6GhofDy8nqqy0FERE8XW3iIiOiJ2rdvnxp2tFotRo4ciSJFijz1kKHVajF16lR4eHgAAOLj4/Hzzz+rz+shIiL7xMBDRER5kpqaip9//hmfffYZLl26BJPJZFslB4vFggMHDqihokyZMujSpYtttadClmXUr18f1apVgyRJUBQF+/fv54htRER2joGHiIjyZNu2bXj//fcxZcoUtGvXDp9//jliY2PVh4fmxmAw4MSJE+q/n3/+eQQEBFjVeZpcXV3RoUMHaDQa9V4enU5nW42IiOwIAw8REeWJ0WiEyWSCoigIDw/H1KlT0bhxYxw4cADp6em5dg1LSUnBmTNngKzBA3r06AFZ/u8OPZIkoUuXLnBycoIQArdv38atW7dyXXYiIrIP/91Rh4iInimdO3fG2LFj4eLiAmSNvnbt2jW89tpr6NWrF06ePJkjOBw9ehQpKSkAgMDAQDRt2tSq/L9QpkwZ1K1bFwAghMCmTZtgsVhsqxERkZ1g4CEiojxxcXHBxIkTcfjwYTRo0AAuLi4QQkCn02H9+vVo3bo1vv32W8TGxqrvCQ8PV/+/WrVqcHJyUv/9X5FlGfXq1QOyAs/169cf2i2PiIiebRyWmqgQEULAYrHAbDbnuBJPlFdCCMTHx2P16tWYNWsW7ty5o5ZpNBrUr18fo0aNQocOHTB27FjMnTsXkiShX79+mD9/PhwcHKzm97QJIfDNN9/go48+giRJaNCgAfbv318gwhgREeU/Bh6iQiQtLQ1Tp07FokWLEBMTY1tM9FiEEFAUJdfWEVmW0a5dOyQkJODw4cOQJAkTJkzAxIkTn8rDRh9l8eLFePvttyFJEvz8/BAeHg5nZ2fbakREZAcYeIgKkb1796JDhw7Q6/W2RUT/ysMOIbIsQ5ZlmM1mSJKEmTNnYtSoUf/poAXZNmzYgC5dusBisUCr1SIlJUW9N4mIiOzLf3/UIaKnRqfTwWg0QgjBF1/58noYjUYDrVar/js+Pv6R73la0tLSYLFYIEkSPD09n/pDUImI6OlhCw9RIbJx40Z07doVJpMJGo0GH330Edzc3GyrEeVJRkYG9uzZg0OHDllNl2UZAQEBGDVqFEJCQrB8+XJIkoT+/ftj7ty5BeIenpkzZ2Ls2LGQJAl16tTB4cOHeQ8PEZGdYuAhKkTuDzwuLi4IDw+Hn5+fbTWiBxJZ9+3odDq8//77WLZsGUwmE5D1jBsHBwe8+uqr+PPPP+Hk5IQZM2Zg3LhxAIDXXnsNf/31138eLIQQeP/99zF79mz12UC//fYbHB0dbasSEZEdYJc2IiLKs6SkJHz77beoX78+fvvtNzXsAEDTpk2xcuVKrFy5Ek5OTpAkCWXLllXLQ0JCYDQa1X//V4QQuHjxIpAV0sqVK1cg7isiIqIng3t4IiLKk8TERHTt2hUff/yx+uwajUYDLy8vfPfdd9i+fTtee+01NewAwAsvvKC26Ny9exchISE2c336YmJicPjwYSAr8LRq1YqBh4jIjnEPT0REebJlyxYcPHgQZrMZAODu7o6+ffti+/btGD58OJycnHIEBw8PD9StWxcAoCgKVqxY8Z8OXCCEwNq1a9Xv4O/vj6pVq+ZYbiIish/cwxMRUZ54enqqQ00HBQVh8+bNWLBgAerXr//AZ+u4uLigXr166r/37duH+Ph4qzpPk6IoWLVqlTpUdqVKlVCkSBHbakREZEcYeIiIKE9eeeUVbN26FUuXLsWpU6fQqFGjBwadbJIk4cUXX1T/ffPmTWzZssWqztMihMCZM2dw9uxZCCGg0WisutwREZF94ihtRIUIR2mj/1f2IeNxnluj0+lQqVIlREdHQwiBypUr49y5c9BoNI81n/+XyWRC9+7dsXHjRggh4OTkhPPnz6NcuXJPdTmIiOjpYgsPERHlmSRJjx0OXFxcMGfOHDg7O0MIgevXr2PmzJmwWCy2VZ8Yi8WCdevWYcOGDepgC5MmTUL58uUf+/sQEdGzhYGHiIieKI1Gg7Zt26JevXqQJAkmkwnTp0/HuXPnntoABpGRkZg4caL6eeXLl0fPnj1tqxERkR1i4CEioifOxcUFo0aNUgcISEhIwIABA3Djxg3bqvkuNjYWQ4cOxZUrVwAADg4OGDhwIEqWLGlblYiI7BADDxERPRUdOnTA1KlT4eTkBCEEzp49iyFDhiA2Nta2ar4QQkCv12PMmDHYsWMHFEWBJEl455138O677z5ywAUiIrIPDDxERPRUaLVa9O7dGz169IAsyxBCYO/evejUqRNOnz4Ni8WSb13cLBYLrly5gn79+mHFihUwmUyQZRkNGzbExIkTOTIbEVEhwsBDRERPjYeHB2bPno3atWtDkiQoioIjR46gS5cu2LlzJxRF+b9DjxACoaGh6NKlC1atWgWTyQRJkuDn54fly5fD39+fAxUQERUiDDxERPRUFS1aFGvXrkXXrl2h1WohhMDt27fRoUMHdO3aFbt27YLRaLR92yNZLBacPHkSw4YNQ926ddV7drKfBbRp0yaULl2aYYeIqJDhc3iIChE+h4cKCiEEUlJSMH36dMyaNQvp6elAVjjx8PBAgwYN0Lt3b7Rt2xZFihSBVquFLMtqWBFCQFEUWCwWpKen4+DBg/jtt99w4MABJCQkwGw2AwBkWUanTp0wb948+Pj4QJZ5nY+IqLBh4CEqRBh4qKDR6/X46aef8PPPP+PGjRvqfTzZz/vx8fFB8+bNUbFiRZQoUQKenp7QaDRITk7GzZs3cefOHRw4cAC3b9+GEELtDqfRaFCiRAm89tpr+Pzzz+Ht7c2WHSKiQoqBh6gQYeChgkgIgYiICPzwww/47rvvYDAYbKuosltoFEWxLVJJkoTXX38dX375JcqWLctWHSKiQo6Bh6gQYeChgkoIAYvFgpCQECxbtgwnT57E+fPnkZKSkqdBDFxdXVGlShXUrFkTPXr0QIsWLaDVatmqQ0REDDxEhQkDDxV02ffmJCQkIDo6Grt378bly5dx8eJFhIWFITo6GoqiQKvVom7duqhcuTLKli2L9u3bw9/fH8WLF2fQISIiKww8RIUIAw89a7LvyxFC4MaNG6hXrx5SU1Ph7OyMsLAw+Pn5qff7EBER5YYdm4mIqMCSJAmyLEOWZWg0Gqtgkz2dYYeIiB6GgYeIiIiIiOwWAw8RET2T7h+GmoiI6EEYeIiI6Jmg0Wjg6Oio/js1NdWqnIiIKDcMPERE9EzIvo8HWa076enptlWIiIhyYOAhIiIiIiK7xcBDRERERER2i4GHiIiIiIjsFgMPERERERHZLQYeIiIq8CRJglarhZOTkzotISHBqg4REVFuGHiIiOiZIEkSJEkCskZpM5lMtlWIiIhyYOAhIiIiIiK7xcBDRERERER2i4GHiIiIiIjsFgMPEREVOEIImM1mCCFsi1T3l1ksFhiNxofWJyKiwomBh4iICpzk5GTMnDkTq1atQkZGBgDkGKUtMTERQggYDAasXbsWnTp1wvXr1xl6iIjICgMPEREVKBaLBQsWLMD48ePRp08fTJw4EYqiQJIkyHLmYev+Udq2bduGt99+G9u3b0fbtm2RnJxsM0ciIirMGHiIiKhAkSQJ8fHxUBQFGRkZWLhwIY4ePWpbDQCQkZGBOXPmQK/XAwDS09Oh1WptqxERUSHGwENERAWKJEno1q0bNBoNJElCcnIy5syZA4vFYtVdTVEULFq0CIcPH4YQAhqNBj/88ANcXFys5kdERIUbAw8RERUokiShdu3aGDNmDDQaDRRFwZo1a7Bjxw6rwBMVFYWvv/4aBoMBkiShadOmaNu2LTQajdX8iIiocGPgISKiAkej0eCTTz5BtWrVAABmsxkffvgh4uLigKz7fFatWoWoqCgAgIODA9599104ODhYzYeIiIiBh4iIChxJkuDu7o5BgwbB0dERQghERUUhISEByOrOdurUKZjNZkiShEaNGqFjx46QJMl2VkREVMgx8BARUYHVq1cvvPDCC7kGmezubcWLF8esWbPYlY2IiHLFwENERAWWh4cHfvzxR7i7u9sWqdq3b4/q1avbTiYiIgIYeIiIqKArX748evXqZTsZAODu7o6RI0dyKGoiInogBh4iIirQHB0dMXbsWBQtWtSqa5ssy/j444/VgQ2IiIhyw8BDREQFmiRJCAoKwvTp0+Ho6KhOK1++PPr168fWHSIieigGHiIiKvC0Wi169uyJGjVqQJIkaDQa9O7dG35+frZViYiIrDDwEBHRM8Hd3R0ffvghXFxcULNmTYwYMSLX0duIiIjuJ4n7H1tNRHZt48aN6Nq1K0wmE1xcXBAeHm5XV8gNBgO+/fZbTJs2zbaI7ITZbIbBYIAkSXB1dbUtJjvg6emJGTNmoFu3brZFRET/CgMPUSFi74EnNDQUDRs2hE6nU5/RQkTPFkmS4O3tjbi4ONsiIqJ/hV3aiMhuZGRkIDU1FUIISJLEF198PWMvZD1QNj4+3nbzJiL619jCQ1SI2HsLz+nTp1G3bl0AwJ49e9CoUSPbKkRUgPXq1QurVq0CsoIPEVF+YOAhKkQKU+DZv38/mjZtaluFiAqwnj174s8//wQYeIgoH7FLGxERERER2S0GHiIiIiIislsMPEREREREZLcYeIiIiIiIyG4x8BARERERkd1i4CEiIiIiIrvFwENERERERHaLgYeIiIiIiOwWAw8REREREdktBh4iIiIiIrJbDDxERFToJSYmwmg02k4mIiI7wMBDRESFlhACV69eRevWrdGjRw+YTCbbKkRE9Ixj4CEiokJt3759OHfuHHbv3o179+7ZFhMR0TOOgYeIiAotSZLwxhtv4LPPPsNvv/2GEiVK2FYhIqJnHAMPERHlq4yMDMTFxUGv19sWwWKxIDExEfHx8TCbzbbFDySEQFxcHOLi4mCxWGyLkZ6ejri4OCQnJ0MIYVV2+vRpfP3117hw4YLV9GxFihTBwIED8dJLL0GSJNtiIiJ6xjHwEBFRvrp+/To6deqEd955x2ogACEETp8+jc6dO2Ps2LFIT0+3et+j/Pbbb2jXrh1++uknq7CUkpKCIUOGoEOHDrh48aLVewDg5MmTmDhxYq5lyFqut956C5988oltERER2QEGHiIiyldVqlTBq6++is2bN+Odd95BSkoKAODmzZvo1asXwsLCMHToUBQpUgQpKSkICwt76Cs+Ph4A0KdPHyiKgqlTp+LAgQMQQkBRFCxcuBB//fUXqlativr16+dopclu8bFt+cmmKArOnz+Pa9eu2RYREZEdYOAhIqJ8pdFo8NFHH6F3795YuXIlZs2ahbS0NAwZMgSxsbGYNWsW6tWrB0mSsGHDBrRs2fKBr1atWuGnn36CJEkoVqwYFixYAAAYOHAgLl++jL/++gtfffUVGjRogG+++QYODg62i0NERIUcAw8REeU7rVaLzz//HDVr1sQ333yD/v374+DBg3j33XfRoUMHtRWmXLly6Nq16wNfXbp0QY0aNYCsAQZq1aqFn376CSkpKejSpQuGDx+OoKAgLFu2DN7e3gCAmJgYnDp1CidOnMCJEydw+/ZtWCwW3Lx5U5128uRJjshGRFRISOJBbfxEZHc2btyIrl27wmQywcXFBeHh4fDz87Ot9sw6ffo06tatCwDYv38/mjZtaluFnrJr166hTZs2CAsLQ58+fTBnzhwULVpULVcUBYqiWL3HlizLkOV/rs+lpaXhyy+/xNSpUyFJErZv346WLVuqdf7880+MHTtWHdxAr9cjNTUV7u7ucHNzU+c5bdo09OrVC2azGcHBwahcuTJ2796tfg49fT179sSff/4JPKQLIhHR42ILDxERPRGKoiAiIgLx8fFwc3PDjRs3kJaWZnUie/nyZfz6668PfR07dsxqviaTCaGhoXBwcIAsyzh//rxVaKpVqxY+/fRTfPbZZ/jss8/Qvn17yLKM7t27q9M+/fRT1K5d22q+RERkpwQRFRobNmwQDg4OAoBwcXER0dHRtlWeaadOnRIABACxf/9+22J6yo4ePSoCAwNFzZo1xcqVK4WHh4do3769iI+PV+vMmzdPaDSah74++OADtb6iKGLChAnCzc1NDB8+XDRo0EAUK1ZMbN682aqOxWJRX/PmzROOjo5ixYoVVtMVRRFCCGEymURgYKBo0aKFOg/6b/To0UPdhomI8gtbeIiIKF8JIZCYmIixY8fCaDRi5syZ6Ny5MwYPHox9+/bhhx9+ULub9evXD8nJyQ99TZ06Fch6hs/8+fMxc+ZMtG7dGjNnzsTq1avh6emJ3r1749SpUxBCQJIktRtcdje37HuG7p9uO5obERHZJwYeIiLKVykpKXjnnXcQEhKCmTNnonnz5tBqtfj444/x6quvYtasWZg3bx4sFgucnJzg5ub20JeDgwMsFguOHz+Ozz//HJUqVcKMGTPg6OiIEiVKYPbs2QCA4cOHIykp6ZH3BBERUeHCwENERPlGCIEtW7bg2rVrGD58ON58801oNBoAgKenJ7777js0bNgQK1aswO3bt23f/kApKSkYP348fHx8sHDhQpQpUwbIarl59dVXMXHiRKSmpuLLL7/MEXi8vLxQuXJlq8ES7idJEipWrIjg4GDbIiIisgMcpY2oEOEobfQ0CCFgsVjUbmP3dx3LflioEAIajSbP3cqy54lcRm3DfaO95faZ2Z+HrGcE2cpepuyucPTf4ShtRPQkcM9ORET5SpIkaLXaXO+TkSQJGo0GWq02R9nDZM8ze762ZFl+4GfKsgyNRpNr2MF9y5TbfImI6NnHvTsREREREdktBh4iIiIiIrJbDDxERERERGS3GHiIiIiIiMhuMfAQEREREZHdYuAhIiIiIiK7xcBDRERERER2i4GHiIiIiIjsFgMPERERERHZLQYeIiIiIiKyWww8RERERERktxh4iIiIiIjIbjHwEBERERGR3WLgISIiIiIiu8XAQ0REREREdouBh4iIiIiI7BYDDxER/aeEELaTiIiI8g0DDxER/WcyMjJw6NAhmEwm2yIiIqJ8wcBDRET/mS+++AKvvPIK+vfvz9BDRERPBAMPERH9Z1xdXaHRaKDVaiHLPCQREVH+49GFiIj+M8OHD8e6devw3XffQaPR2BZDr9fj7t27SE1NtS3KQQiBhIQE3L17FxaLxbaYiIgKKQYeIiL6zyiKgiJFiiA5Odm2CACwefNmNGjQAKtXr7YtykFRFEyZMgX169dHWlqabTERERVSDDxERPSfOX78ONq0aYNly5blOlqbwWBAfHw8DAaDbVGudDodEhIScp0XEREVTgw8RET0nzGbzTAajTCbzfkWUvJrPkREZB8YeIiIqMBQFAVms1l9KYoCIUSO6dn36FgsFqvp2WHHtr6iKDafREREhQUDDxERFRjHjh1D//790bdvX/Tt2xfz58+HxWLB4sWL1Wn9+vXDtm3bIITAzz//jLfffht9+/bF22+/jb1798JisWDw4MFq/bfffhtXr161/SgiIiokGHiIiKjA0Ol0uHLlivqKjIyEJEmIjIy0mp6UlAQAiI6OxuXLl3NMv3Tpkjrt8uXLeb4HiIiI7A8DDxERFRgvvvgi1qxZg3Xr1mHdunUYPXo0JEnCiBEj1Gnr1q1Dhw4dAAAjR45Up61duxatW7eGLMtYvXq1Vf1KlSrZfhQRERUSDDxERFRguLm5ITAwECVLlkTJkiXh5eUFWZbh4eGhTitRogTc3d0hSRK8vLxQokQJdbqbmxskSYKfn59VfWdnZ9uPIiKiQoKBh4iIiIiI7BYDDxERERER2S0GHiIi+s/Ur18f27ZtQ+/evSFJkm0xWrVqhV27dqFt27a2RTlIkoTRo0dj165dcHR0tC0mIqJCioGHiIj+M76+vmjSpAnKlCmTa+AJCAhAkyZNEBQUZFuUgyzLqFSpEpo2bcp7doiISMXAQ0REREREdouBh4iIiIiI7BYDDxERERER2S0GHiIiIiIislsMPEREREREZLcYeIiIiIiIyG4x8BARERERkd1i4CEiIiIiIrvFwENERERERHaLgYeIiIiIiOwWAw8REREREdktBh4iIiIiIrJbDDxERERERGS3GHiIiIiIiMhuMfAQEREREZHdkoQQwnYiEdmnjRs3omvXrjCZTHBxcUF4eDj8/Pxsqz2zTp8+jbp16wIA1q5di4YNG9pWIaICbMiQIVi/fj0AgKcnRJRfGHiICpHCFHg0Gg00Go1tFSIqwCwWCywWC8DAQ0T5iIGHqBCx98Bz9epVNG7cGHFxcTxZInpGybKMwMBA3Llzx7aIiOhfYeAhKkTsPfBkZGRg8+bNCAsLg6IotsX0jEtKSsL3338PvV4PWZYxcuRI+Pv721ajZ5xWq0WtWrXQqlUr2yIion+FgYeoELH3wEP2SwiBO3fuoEGDBrh37x6cnJxw/Phx1KhRA5Ik2VYnIiJScZQ2IiIiIiKyWww8RERERERktxh4iIiIiIjIbjHwEBERERGR3WLgISIiIiIiu8XAQ0REREREdouBh4iIiIiI7BYDDxERERER2S0GHiIiIiIislsMPEREREREZLcYeIiIiIiIyG4x8BARERERkd1i4CEiIiIiIrvFwENERM8ERVFgNpsBAJIkwdXV1bYKERFRDgw8RET0TLBYLDCZTOq/3d3dIUmSVR0iIiJbDDxERERERGS3GHiIiIiIiMhuMfAQEVGBY7FYcPz4cdy7dw8Wi8W22IqiKEhISMDly5ehKIptMRERFXIMPEREVKAoioI5c+agYcOGaNeuHcLCwmyrqIQQOHPmDBo1aoS6deti/fr1DD1ERGSFgYeIiAoUs9mM7du3QwiB06dPY+TIkQ9s5RFC4IsvvsCVK1eQkZGBL774Qh3JjYiICAw8RERU0Gg0Grz44ouQJAlCCBw+fBhbtmyxrQZFUbBixQps2bIFQghotVoMGTIEGo3GtioRERViDDxERFSgaDQavPPOO3Bzc4MkSdDpdJgzZw4sFguEEGq96OhotUVHkiTUq1cPvXv3ZuAhIiIrDDxERFTgBAQEYO7cuXB0dIQQAvv378fixYvV+3MURcHq1asRFhamtu4MHDgQLi4utrMiIqJCjoGHiIgKHFmW8frrr6Nhw4ZA1qhtc+bMQXp6OgDAZDJhzpw5MJlMkCQJLVq0QM+ePfkgUiIiyoGBh4iIChxJkuDk5IShQ4fCyckJQgjo9Xq1hUcIgdTUVACAn58fZsyYAWdnZ5u5EBERMfAQEVEB1qFDB7zyyisPbLmRJAldunRBhQoVbIuIiIgABh4iIirIXFxc8NVXX8Hb29u2CADg7e2NkSNHwsnJybaIiIgIYOAhIqKCrmLFinj99ddtJ0Or1WLWrFls3SEioodi4CEiogLNwcEBw4cPh4+Pj9q1TZIk1KxZE23btoUs81BGREQPxqMEEREVaJIkoWLFipgwYQK0Wi2Q1bozevToB3Z1IyIiysbAQ0REBZ5Wq8Vbb72FqlWrQpIktGnTBr169WLrDhERPRKPFEREVOAJISDLMqpXrw4XFxc0adIEaWlpEELYViUiIrIiCR4tiAqNjRs3omvXrjCZTHBxcUF4eDj8/PxsqxH95xRFgV6vR0REBC5fvoyVK1di69at0Ol0UBQFGo0GxYoVQ6dOnfDaa6+hYsWKCAgIgIuLywOHsCYiosKJgYeoEGHgof+1d+dhUZX9/8DfZxZ2ZHVfIcQNNXBBxS1ccCnXyqUsl9LSNivbnp4yW58yK8vyUdOnXNNcU8x9QRMQFGVRURFUQEVZhWGYOef+/fFjzpcZtcwEkXm/rutcV835zBmcYZjznvv+3Ke6EkJAlmXIsoyEhATs2rULBw8eRFJSEi5evAhFUSBJEjQaDSRJghACiqJACAEHBwc0a9YMQUFB6NGjBwYMGAB/f39otVq1noiI7BcDD5EdYeCh6sQSWgoKCpCVlYVt27Zh8eLFOHHihDpVTZIkSJIET09P1KlTB/3790efPn2wfv167N27F3l5eSgsLFSPZ7lPaGgonn32WfTu3Rs+Pj6oVauWuo+IiOwLAw+RHWHgoepACIGioiJs3rwZO3bsQGJiIs6cOYPi4mLIsgwhBCRJgpOTEx555BH0798f7du3R0BAANzc3NQRntzcXKSlpSEmJgZbt27FgQMH1L4ejUYDjUYDT09PNG/eHMHBwRg0aBAeeughTnsjIrIzDDxEdoSBh+4FRVFQWlqKK1eu4MSJE1i9ejU2bNiAkpISmM1mdbqak5MT6tSpg8DAQIwePRqPP/44HBwcoNPp/nQ1NlmWYTabcfnyZaxduxZr165FRkYGrl69CqPRCCEEtFotdDodvLy88Nhjj+HRRx+Fn58fateuDUdHRwYgIqIajIGHyI4w8FBVsExVM5vNSE5Oxs6dOxEbG4ujR48iPT3dqh9Hr9cjMDAQffv2RWhoKDp06AA/P78/DTh/xWg04syZM0hISMCePXuwf/9+ZGRkQJZlq74ff39/dOjQAd27d8dDDz0EPz8/9v0QEdVADDxEdoSBhyqToii4fv06Ll++jM2bN2PRokVISUmxqtFoNHB1dYWvry8GDRqESZMmITg42KrmbhNC4MCBA/jhhx+wd+9eFBYW3rCktSRJ6N69OyZPnozw8HB4eHjAxcWFwYeIqAZg4CGyIww8dLcJIVBYWIidO3di586dSEhIwKlTp1BUVARZltU6FxcXREREIDw8HCEhIQgMDISHhwe0Wm2VhApFUaAoCq5evYqTJ08iOjoau3fvRlRUlDrtzdL34+XlhTZt2qBjx44IDw9Hnz59oNfrq+TnJCKiu4+Bh8iOMPDQP6UoCoxGI/Lz83Hq1Cn8/PPP2Lx5MwoKCqz6cRwdHeHp6Qk/Pz+MHz8eY8eOva1+nKpi6fvJycnBsmXLsG7dOmRkZKCgoABlZWVWfT+1atXCU089hccffxzNmjWDp6cnAxAR0X2EgYfIjjDw0N9l6ceRZRnJycmIiopCTEwMYmNjkZaWZtWPo9PpEBgYiB49eqBLly7o3LkzmjdvXi0Czl8xGo04ceIE4uLicODAAezbtw+ZmZnqyJCl76dly5bo0qULQkND0bNnTzRp0oR9P0RE1RwDD5EdYeCh2yWEgNFoRG5uLn777Td89913SE5OvqHvxTKSM2zYMDz77LMIDg6uESf+Qgjs2bMH8+bNw+7du2EwGGA0Gq1qJElC7969MXnyZPTv3x+urq5wdHS0qiEionuPgYfIjjDw0J8RQqCgoAB79+7F/v37ceTIESQlJaGgoMCqH8fZ2Rl9+vRBjx490KlTJwQFBcHT07PK+nGqimVk68qVK0hMTERsbCz27NmDmJgYlJaWAuWhR6vVwsfHB+3atUPHjh3Ru3dv9OzZEw4ODjXq+SAiul8x8BDZEQYeqkhRFJhMJhQXF+PUqVP48ccfsWnTJqt+HMtUNTc3N/j7+2PChAkYNWoU3NzcoNfr74vpaneLLMswmUy4evUqfv75Z/zyyy84f/48iouLYTabgfJV6HQ6Hby9vTFu3Dg8/fTTaNCgAVxdXaHT6RiAiIjuAQYeIjvyTwLP7f6p4Ald9WXpx1EUBWfOnEFUVBQOHTqE6OhopKamWvXjaDQatGjRAqGhoejatSu6deuGFi1a2FXA+SulpaVITk7GgQMHcOjQIcTExCAzMxOyLEMIASEE9Ho9goKCEBYWhi5duqBLly5o3LixGn74fiEiqnwMPER25E4DjxACBoPB9uabsvR18MS4+hBCQJZlFBQUYN26dZg7dy5SUlLUECuEUKdm1apVC4888gheeeUVtGvXTj0h54n5rVV8Hnfs2IHvvvsOu3btQllZmToV0PL8abVa9OjRA9OmTUNERAScnJyg0+msjkdERHcXAw+RHbnTwJOVlYXAwEAoimJ1u+XPR8WTYb1ej507d6JTp04VKqkqWV6XgoICdRTn8OHDSEhIUKerWbi6uqJHjx7o2rUrOnfujODgYHh5eXH61R2q2PcTFxeHmJgYHDhwANHR0erzbgmXvr6+6Ny5Mzp37oxu3bqhR48eXO2NiKgSMPAQ2ZE7DTylpaWIiopSA48QAvv27cMXX3yB5557Do888ohaq9PpEBISAi8vrwpHoMpmmapWVlaG06dP47///S/WrFmDwsJCmM1mdRRHo9HAwcEBAQEBmDhxIsaNGwdXV1e768epKhX7fhYsWIDly5cjOzsbZWVl6vtJo9FAr9fD3d0dkydPxqRJk1C3bl04ODjUuIUgiIjuBQYeIjtyp4HHlqIoWLVqFSZMmIAvv/wSL7zwgtV+Ud4rYjmBFuX9DLYn1LYncpa6m/U2WI5Zcb/t8eyJ5flQFAVpaWmIjo5GbGwsoqKikJycrPbjWEYT/P390bFjR4SGhqJ3795o06aNXT9/90ppaSkSEhKwb98+xMbGIi4uDllZWervthACOp0OwcHB6NmzJ0JDQ9GhQwc0adJEHf2xfW8QEdGfY+AhsiNVFXiuXbuG//3vf+jYsSO6deuG2NhY7N27F0899RRcXV2RlJSEgIAANGjQQL2PEAJXr15FSkoKAgMDUb9+fat9OTk5WL58OWJjY+Hn54dBgwahW7dudnnSLsp7qlasWIHvv/8eSUlJaqO8Zb8kSXBxccHIkSMxdepUhISEqIsR4CZhk6qO5XWyTH/bvXs3vv76a+zcudMq1KPCqm+9e/fGCy+8gL59+8LR0ZGvHxHR38DAQ2RHqirwZGdnqw3Zer0eycnJqFu3LlauXInCwkIMHToUX331FSZMmKCeuCmKgg0bNmDcuHH44YcfMG7cOEiShLKyMixevBhffvklSktL0aJFC1y7dg1paWkYPnw4Pv/8c9SuXbtGnwAKIVBYWIiYmBi1Hyc6Olqdrmbh5uaGzp07o2vXrujUqRO6dOkCLy8vaLVauwyG9wtFUWA2m5GTk6Ou+BYbG4v4+HiYTCagPKDqdDrUrVsXXbp0QWhoqLqx34qI6M/xE5CI7jonJyc4OzvjyJEjKC4uRlRUFGJiYtCuXTvIsgyz2Wx1IUsLSw+KZZ8QAjExMXjvvffg7++P2NhYbNiwAXv27MGUKVPwyy+/YPPmzWovRE1hOQE2GAw4fvw4XnzxRbRr1w4jRozArFmzEBkZiby8PAgh4OTkhFatWuHLL79EUlISNm7ciJkzZ2LIkCGoU6cOe3PuA5a+qoYNG2LUqFGYPXs2tm3bhlOnTuHtt99Gs2bN4ODgAFmWcfHiRfz666948803MXDgQPj7+2PWrFlIT09HaWmp1UgfERH9f/wUJKJKIUkSXF1dMW/ePLRt2xaenp5/+5toIQS++eYb6PV6/PDDD/D19YWjoyNcXV3x+uuvo169eli9evV9H3hEeT+O2WzGmTNnsGbNGrz++usICwtDcHAw5s2bhwsXLsBgMECj0cDf3x8jRozAZ599hoMHDyIxMRHTp09HkyZN4OrqCq1Wa/sQdB/R6XRwd3dHs2bN8PHHHyMlJQW7du3Cu+++i4cffhgNGjSAJEkoKSlBZmYmZs6ciYCAAPTp0wczZ87E5s2bcf78efXisQxARGTvGHiIqNL4+PigXr16tjf/LVFRUbh8+TJCQkJQp04ddQsMDMTFixdx4sSJ+zrwWPpxli5dim7duiEkJATjxo3Dt99+i4SEBHXxAVdXVzz++OPYu3cvjh49iuXLl2P69Ol48MEHOYJTwzk5OaFr16547733sGbNGiQmJuKXX35Bnz591C8RFEXBoUOH8Mknn+DRRx9F+/btMXz4cERGRsJoNDL0EJFd46ckEVUaV1dXODk5Wd2m1WohhEBZWZnV7TdTUFCAvLw8BAYGIiIiAgMGDFC3gQMH4tFHH0WvXr3umxENUb4KV0FBAfbt24fZs2djxIgR8Pf3x7PPPou4uDhcv34dZrMZLi4u6NmzJ1577TWsWbMGp0+fxk8//YSuXbvC3d0dDg4O6qpdVPNJ5asSOjo6wtPTE8OGDcPmzZtx+vRp/O9//8OUKVPQsWNH6HQ6mEwmFBQUIDIyEiNHjkRgYCCeeuopfPfdd4iJiWEAIiK7w0ULiOxIVS1akJeXh4EDB6K0tBRbt261WnEtLS0NQUFBmDJlCubMmaOesMuyjGXLluGZZ57BggULMH78eMiyDF9fX4SFhWHVqlXQ6/UVHuX/VOdVq4QQat/SyZMnsXz5cmzatAlXrlxBYWGheuKp1Wqh0+ng7++PJ554AiNHjkTdunXh7u5+3wQ6undMJhMKCwtx6dIlLFu2DEuXLsW1a9dgMpnUEVCtVotatWqhfv36GDt2LJ5++mn4+PiofV7V9T1ERPRPcYSHiKpUvXr14Obmhl27dqG4uFgd9TAYDPj9998hhIDRaATKm7m7dOmC6OhonDhxAg4ODnB0dFQ3BwcHODg42D7EPVWxHyctLQ0bN27Eu+++i7CwMHTs2BGzZ8/G6dOnUVhYCI1GgyZNmuCRRx7B+++/j/379yMxMRHvvPMOWrRoAU9PT4Ydui16vR4+Pj5o06YNPv30U6SlpWHbtm1444030LdvX9SvXx9CCOTn5yMlJQX/+te/0KRJE0REROCTTz7B9u3bkZWVBVmW2fdDRDUOAw8RVSkHBwdEREQgJSUFs2fPhslkQlpaGsaOHYv169dDURRcvnwZovxaJDNmzAAAjBo1CitXroTRaISiKMjKysK3336L7777rtr08AghYDabsXz5cvTr1w+hoaEYM2YMvvjiCxw9ehSyLFv142zfvh2HDx/GL7/8gnfeeQcdO3ZkPw7dFQ4ODujRowc+/PBDrF+/HvHx8Vi5ciV69+4NvV4PSZIghEBUVBRmzpyJESNGICQkBCNHjsT27ds57Y2IahROaSOyI3dzStsvv/yCiRMn4ssvv8TUqVOt9ufl5WHw4MEoLS1FZGSk1cIFQggcOnQI06dPx7Fjx6DVaiFJEtq1a4cZM2bgueeeQ2BgIPbs2QOdToeysjKrC2xK5VeaF0KgVq1amDp1Kt55550qHwmx/OksKCjAiRMnEBcXhwMHDmDPnj0oKCiA2WxWa9zc3NCmTRuEhIQgLCwMDz30EHx8fKDT6RhwqEpYRlJNJhOys7Oxc+dOREVFISkpCceOHVO/NJDKr/fToEEDPPTQQ+jevTsefPBBtG7dulpPHSUi+jMMPER25G4FHlHeeJ+dnY06derAx8fHar/JZMLFixchhECjRo1umHYmyzKuXbuG+Ph4xMfHo0ePHmjRogXq1q2LX3/9FU2bNkWHDh3UEKMoCnJycpCeno7o6GgoioIGDRqoK7fVqlWrSk7ERIV+nFOnTmHlypX4/fffkZWVhdzcXKteCZ1Oh2bNmuGJJ57AoEGD0LhxY3h5eUGn09ketsaRZRlGoxGOjo5VHkQBwGw2Q5KkP33silO3LCudVcXvUHVSVlaG3NxcZGVlYenSpVizZg2uXr2qLmeN8qly3t7e6jWCRo0ahbp166ph3d6eMyK6PzHwENmRuxV47IXlW3EhBLKysnDixAkcPHgQ27ZtQ1xcnDpFzbLVq1cPbdq0QWhoKAYPHoxOnTrZ3QiOEALLli3D5MmTMWvWLLz++utVdlIshMD169cxZ84cuLm54bXXXrMtAcpH5dasWYNdu3ZBkiT07NkTI0eOhK+vb5X9rNWRyWTCvn378NtvvyEhIQEnT57EtWvX1PAjhIBGo0Hv3r0xePBgBAcHo02bNvDx8VF/z+35+SOi6ouBh8iOMPDcPlHej/Prr7/if//7H1JSUpCXl4fS0lJ1ZECSJDg5OWHgwIGYOHEi2rVrB29vbzg5Odntt9+KouDtt9/GF198gdGjR+Pnn3+uklEtIQSuXr2KkSNHIiYmBl5eXrh06ZJtGUpKSjB+/Hhs2rQJ9evXh06nQ0ZGBh5//HEsXLgQzs7OtnexK6J80Y3i4mLk5uZi//79+Pnnn3Hw4EF1MRGULyji4uICb29vdOnSBePHj8dDDz0EBwcHu/y9J6LqjYGHyI4w8NyaEAJFRUVITU3F0aNHsW/fPmzfvv2GfhxXV1e0bNkS7dq1Q8+ePdGvXz/4+vqyH6ecEAKnT5/GkiVLMHLkSISEhPzl86IoCq5cuQJXV1e4ubn97RNmIQROnTqFF198EQcPHlSD6LVr16zqFEXBxo0b8cQTT2Dq1Kl4//33IUkSZs+ejTlz5mDevHkYN26c1X3smSX8mM1mXLhwAdu3b8f+/fuRlJSE1NRUmM1moHxUR6/Xo1GjRujfvz+6d++Otm3bonnz5uz7IaJqgYGHyI4w8PwfUd6PI8syUlNTsXbtWmzduhUXLlzAlStX1Gk8Go0GOp0Ofn5+GD16NPr3749mzZqhdu3aVTJycT9SFAWlpaV/2cOjKApKSkqwYsUKzJ8/H4sWLUJwcPDfPkEWQmDbtm145plnMHfuXLz//vvIysq6IfCYTCYMGDAAJ0+eRGJiIry9vQEABoMBPXv2RE5ODlJTU2/oOaP/YzQacfnyZZw7dw7r1q3DypUrUVhYeEPfT926deHv749HHnkEo0ePtvpS4O++vkRE/xQDD5EdsefAY/lTJ4TApUuXkJqaioMHD2Lz5s2Ii4tTG91R/o11nTp10Lx5c3Tp0gVDhgxBWFgYT9Ru04YNG/Doo49i7ty5N6zghwq9Nvv378ecOXNw8OBBtG/fHqtWrUKzZs0gla/C91cqvh6KoiA9PR1NmzZFly5dkJaWdkPgOXXqFFq1aoUpU6Zg7ty56oVshRB49dVX8cMPP2D37t3o2rUrX+vbJMsydu7ciY0bN+LIkSPq8y7Ke99Q/qVBeHg4hg4dio4dO6J58+bw8vKCZIcLRRDRvfHn8wyIiGoAy7Sc1atXY+jQoejZsyeGDBmC999/HzExMTCbzdBoNHBycsKwYcPw66+/IioqCps3b8ann37KsHMXybKM3bt3IyIiAmPGjEFaWhp++uknbN68WQ07sizjyJEjOHz48C23lJQUq+NqNBr4+fnd8nUSQuD8+fMAgFatWllNs5MkCY0bN1bDMN0+rVaLfv36Ye7cuYiMjMT+/fuxYMEC9OjRQ53OJoTA7t278corr2DQoEHo3r07JkyYgN27d/N6P0RUJTjCQ2RHbEd40tLSauQIjxACxcXFOHfuHJKTk7Fjxw5ERkYiLy/vhn4cf39/tG7dGv369UNERIQ6Ve2v+k7o1mxHeET5AhCxsbGYN2+eem2m0aNHY+rUqfD29raaHmg0GuHv74/8/Hyr41YUEhKCqKgo25uhKApCQ0NvGOERQmDp0qUYP348fvnlF4wcOdLqNV60aBFeeOEFzJkzB88///wtgxP9OVGh7yc9PR2RkZHYu3cvUlNTkZaWBpPJBFTo+2nSpAkGDBiAXr16oXXr1vDz82PfDxHddQw8RHakYuBxcHDAp59+ilq1atmW3deuX7+OrKwsxMTEID09HZmZmery0ZZ+nKZNm2L48OHo168fAgIC0LBhQ/bj3EW2gefKlSuYNm0a9u7dC5PJhFdffRVjxoyBv7//TXt8jEYjYmNj1ab4m/Hw8EBISIjtzX8aeH766SdMnDiRgacKCSFQWlqKzMxMnDlzBps2bcL69euRm5urXgsJABwdHdGgQQM0b94cgwcPxqhRo1CnTh3bwxER3REGHiI7UjHw2BNHR0cEBQWhW7dueOyxx9C1a1cGnEpkG3iOHTuGfv364dq1a3jxxRfx8ssvq9PXbqZi/8et3Kr/488Cz86dOxEREYHvvvsOU6ZMsQpbX3/9Nd58800sX74cI0eOvOmx6e5QFAVbt27F2rVrER0djZMnT1q93hqNBiEhITh8+LDV/YiI7hTnbBDZEZ1Od9Nv1Gs6IQRcXFwQEhKCBx98EBqN5i9PqOnuad26NbZv344nn3wSCxYsQP/+/fH++++joKDgpq9DaWkpBg8ejJ49e95069WrFyZPnmx7tz8lSRKaNGkCAEhMTFRHFlD++5GRkQFJklC/fv0K96K7zRJmQ0JC0KZNGzg5Od30dyA3N9f2JiKiO8YRHiI7kp2djUmTJuHs2bO2u2qUhg0b4tq1a0hPT8f169ehKIo6nc3Z2RmDBg3C0KFD0apVKzRt2hTu7u63HDGgv892hMeirKwMUVFRmD17NqKjo9GwYUO8/vrrGDBgAOrWras+/2VlZXj44YdRVFRU4ajWWrZsiSVLltjefMsRHpQft0+fPkhPT0dCQgJ8fHwghIDBYECvXr2Qm5uL48ePw9XV1ep+dOcsAScvLw/p6emIi4tTFzcoLi6GLMsQ5Rfx9fDwgJ+fH4KDgzF16tSbTlkkIroTDDxEdsRy4nH16lXbXTWKr68vrl+/jtOnT2PPnj3YvHkzTp48qV53RwgBjUaDhg0bIiAgAL169cLgwYPRtm1baLVadRSMAejO3CrwWOTn5yMqKgqffvopkpKS0KpVK0ybNg1jxoyBXq+HoijIz8+/6Tf/FjqdDh4eHur/WxrlFUVBWFgYzp49i8uXL0OSJHURClmWsXHjRowdOxYvvvgiPvjgA2i1Wnz88cf4+uuvMWfOHDzzzDNWj0N/jyXgKIoCWZYRExODdevW4fDhw0hLS8OVK1fU19XyXuvUqROGDh2KLl264IEHHkC9evX43iOiu4qBh4jsQlxcHFauXIm9e/fi4sWLyMnJAcpP0FAebtq1a4cxY8YgPDwcTZo0ga+vLy+UeAc2bNiAxx57DN98881NA09F8+fPx7fffou0tDTs3bsXnTt3vqPn22g0YsyYMcjIyMCpU6dgNBrRvn17eHp6Yt26deriHEVFRZg4cSI2bdqEoKAgODg4IC4uDiNGjMCSJUvg4uJie2i6DUIImEwm5OTk4Pz589iwYQNWrVqFCxcuWL3HdDod6tSpAz8/PwwYMACPP/44mjdvbns4IqK7ioGHiOyCoihQFAXFxcXIyMhAYmIifvvtN2zatEm9FohUvpKbq6srmjRpgqCgIAwePBgjRoxQl8q9k5NxexMfH4/vvvsOTzzxBPr27Wu724osy8jKylIv+Nm8efM7eo7NZjPeffddXLp0SX0tJUmCm5sb/vOf/1gFmdzcXKxcuRLbtm2DJEno27cvHn/8cdSpU+eOHtteWUZyrly5go0bN2Lr1q04ffo0zp8/j9LSUrVPSpIk+Pj4YMiQIRg8eDBatmyJRo0awcXFhV8oEFGVYOAhIrtkmQJVXFyMdevWYdOmTTh16hQuXrwIg8GgnjTrdDq4uLhg+PDhGDp0KFq2bImGDRvCxcWFAegWLN/2/53rGVUcBbgTlilUth9pltfQ9rgVpzdafk7bGrImyqerFRQUIDMzE0eOHMG6desQFRWFoqIiq34cd3d3NGrUCG3btsXIkSMRHh4Od3d3aLXa2/6dICK6Wxh4iIjKT4AzMjKQnJyMAwcOIDIyEqdPn1b7QkR530/Tpk3RqlUrhIWFYdCgQWjdujU0Gg20Wi1PmKlGsQQcS5g8cuQINmzYgLi4OJw8eVIdTUOFfpyOHTti4MCBCA0NRatWrdCgQQO+L4jonmPgISK6hejoaKxcuRI7duzA5cuXkZeXZzWCIEkSgoODMXbsWPTv3x8NGzaEp6cnv8Gm+57JZEJeXh4yMzOxfv16LFu2DOnp6Va//zqdDl5eXmjYsCGGDx+O0aNH3/GURCKiysTAQ0R0C5a+n8LCQqSlpSExMRFbtmxBZGTkDX0/7u7uCAgIQJs2bTBo0CAMGjQIzs7OnPZG9wXLSM7Vq1exadMm7Ny5EydPnkRaWhoMBsMN/TiDBw9Gv3790KZNG/j5+cHV1ZXTAomo2mLgISK6TYqiwGQyoaioCGvXrsXq1avVpXZLS0ut+n48PT3x8MMPY8yYMXjggQdQp04dBiCqNizT1a5fv44rV67gyJEjWLlyJfbv339DP46bmxvq1KmDtm3bYvTo0ejbty/c3Nz+Vo8WEdG9xMBDRHSHZFnG2bNncfz4cURFRWH37t037fvx9/dH27ZtERYWhj59+qB169Zq8zbDD1WFiv04iqLg6NGj2Lp1K2JjY5GcnIzMzEx1FMfyu9m2bVsMHDgQXbt2RVBQEBo3bszfVyK6LzHwEBHdJYqiIDY2Fj///DO2bduGq1evoqio6KZ9P5MmTUL//v1Rp04duLm58ZtyqjSyLKOgoABXrlzB6tWrsXjxYpw/f97q91Kr1aJWrVqoV68ehg0bhvHjx7Mfh4hqDAYeIqK7yPINen5+Pk6dOoX4+Hjs2rULW7dutZompNFo4OnpicDAQAQHB6NPnz7o168fl7umf8wykpOTk4Pt27dj9+7dSExMxOnTp2EwGCDLMlAevr29vTFw4ED07t0b7dq1Q/PmzeHq6spVB4moRmHgISKqRJa+n+LiYqxYsQIrVqxARkYG8vLyrBY+sPT9DBs2DE8++SQeeOABeHt7w8HBgQGI/pRlulpJSQny8vJw9OhRrFixAjt37kRhYaFV0HZ2doaXlxcefPBBjBo1CoMGDWI/DhHVeAw8RERVSFEUnDp1CkeOHMHBgwexf/9+pKamqiNDlr6f5s2bo2PHjggNDUX//v3h7+8PjUbDvh9Sp6Ip5dfHOX78OLZt24a4uDgcPXoUFy9eVPtxLL8zbdu2Rd++fdG5c2cEBwejWbNmDDhEZDcYeIiI7oGKJ63R0dH48ccfsX37duTl5cFgMKjfyKN86lFISAieeeYZDBo0CN7e3urUN7IviqKguLgYhYWFWLJkCZYsWWJ1fRxLYHZxcYG3tzfGjBmD8ePHIzAw0Or3iYjInjDwEBHdY5Zv6nNzc5GcnIz4+Hjs27cPO3fuhMlkUsOPVquFl5cXWrdujZCQEPTs2RPh4eFwdXXltLcaytKPk5ubi927d6v9OElJSTf043h5eaFPnz5qP05QUBD7cYiIGHiIiKofS9/P9evXsXTpUixduhQZGRm4fv26VQCy9P089thjmDBhApo1awY3Nzfo9XoGoPuUJeAYjUZcv34dCQkJWLx4MXbs2KG+/igPOI6OjnBzc0ObNm0wadIkREREwMPDg/04REQ2GHiIiKo5RVGQnJyM6OhoHDp0CAcPHkRaWpp6cmyZxtS6dWt07twZoaGh6N27N/z8/Nj3cx+wvI6KoiApKQn79u1DdHQ04uLikJ6eDlmWIZWv7KfRaNCqVSv06tULXbp0QYcOHdC8eXMGHCKiP8HAQ0R0H6j4p1qWZURHR2PBggWIjIxEUVGR+s2/hUajQYcOHfDss89i+PDhcHd3V0d+qHoQQsBoNMJgMGDx4sX47rvvrK6PYxnJc3R0RK1atTBmzBhMnToVAQEB7MchIvobGHiIiO5Dlr6fa9eu4ciRIzhy5Aj279+PAwcOWC13ben7CQ4ORseOHdG9e3eEhYWx7+ceEOXLR1+9ehV//PEH9u3bh/j4eBw/fhzFxcU3XB8nLCwM3bt3R8eOHREcHAwXFxfodDq+ZkREfxMDDxFRDWDp+8nNzcXy5cuxcOFCZGdno7S01Oo6LHq9Hj4+Phg5ciQmT56Mpk2bwsnJSW1s58n03WMJOCaTCUajEXFxcVi8eDEiIyNRXFxs1Y+j0+ng5OSEdu3aYcKECRgyZAhq1arFfhwioruAgYeIqAZSFAUJCQk4dOiQup0/f17t+RHlfT/t27dHaGgounbtirCwMDRt2lTt+WH4+ftEeT+OLMs4deoU/vjjD7Xv6ty5c1b9OJIkoUWLFujevbv6GjRv3hxardb2sERE9A8w8BAR1VCWYIPyABQbG4uvvvoKv//+OwwGA5Tyi1NW7AcJDg7GK6+8gmHDhqkjP/TXLEGnrKwMCxcuxLx583D27FmrfhyU91bp9XpMmjQJU6dORYsWLayef4ZMIqK7j4GHiMhOWEYecnJycPjwYcTGxuLQoUOIiYlBaWmpVd+Pr68vOnTogNDQUHTr1g0dO3aEm5sbT8rLWcLk1atXERsbiwMHDuDw4cOIi4uDwWCA2WwGKvTjdOrUCWFhYejUqRM6deoENzc3aLVaTlcjIqoCDDxERHZKlmWUlZXh2rVr+Pnnn7F48WJkZmbCbDarU9+k8lXCfHx8MHr0aEycOBF+fn5qb4m9BCBLwJFlGWazGcnJyfj222+xZcsWFBcXw2g0AuUBR6vVQqfToV27dnjmmWfw8MMPw9PTEw4ODgw4RET3AAMPEREB5SNAcXFx2Lt3L+Li4hATE4PMzEz1ZF8IoZ7IW64D06lTJzRp0kQNPjUp/Fj+zWazGWfOnEFcXBwOHDiAqKgonD59Wu3Hkcp7ch544AF07twZXbt2xUMPPcR+HCKiaoKBh4iIVBVHMkwmE2JjYzFv3jxs3rwZZWVlai+KZSTDwcEBHTp0wOTJk/HYY4/VmFXFFEWBwWDA//73P8yfPx9nz56F2WxWV7xDhdXVJkyYoF4fxzKKU9PCHxHR/YyBh4iIbklRFJjNZly5cgUHDx5EbGwsYmNjcfToURgMBnXam06ng4+PD7p166auONa2bVu4u7tX+5N/S8jLz89HfHw8oqOj1dXVSkpKrPpxPD090aFDB3Tp0gWhoaHqNY14fRwiouqLgYeIiG6b2WxGSUkJsrKysHbtWvz444/Izs626vvRaDRwc3NDvXr1MHToUEyYMAHNmjWrNn0/loBjCXOJiYlYuHAhNm/ejOvXr+P69etAecDRaDTQ6XQICgrC008/jUceeQQ+Pj5wcXGpESNZRET2gIGHiIjumGW56507d6qrlF2+fPmGvp+OHTuid+/e6Nq1K4KDg9GgQQM1+FRF+LH8LGazGenp6Th69CiioqKwZ88enDx5EoqiWP08fn5+CAkJQbdu3RAeHo5WrVpBp9PZHpaIiO4DDDxERPSPWEZLTCYTiouLcfjwYcyfPx/bt2+H0WhUe14s16BxdXVF+/btMWXKFAwbNqzS+34URUFxcTFWrVqF+fPnIy0tDQaDASaT6YZ+nKeeegrPPfcc/P394eLiAr1eX2WhjIiIKgcDDxER3VWWqWKXLl1CVFQUDh48iKNHjyIxMfGmfT+9evVSe39atWoFV1fXOw4ZlpGc/Px8JCYmIjY2Fvv378ehQ4dQWFho1Y/j4eGBoKAgdOrUCb169UL37t3h7u7OfhwiohqGgYeIiCqVyWRCQUEBLl68iI0bN+Lnn39Wr/djCSgajQbe3t6oX78+hg8fjjFjxqBZs2bqxTlvFYAs97eErFOnTmHhwoWIjIxEfn4+8vLy1Pta+nFatWqFp556CgMHDkTt2rXh6elZqSNMRER0bzHwEBFRlTKZTIiOjsbvv/+Ow4cPIykpSe37QXmIsSx3HRERgdDQULRt2xb169e3Cj1msxnnz59HSkoK9u3bh61bt+LEiRPqCBIAaLVaNG7cGEFBQQgLC8PAgQPRpk0bXh+HiMiOMPAQEVGVs4zKGAwGFBQUID4+HosXL75p34+TkxM8PDzQtm1bTJo0CX369MHGjRuxZMkSpKamoqioCEajEYqiAOXT1fR6PUaNGoUJEyagZcuWqFWrFhwdHdXRIiIish8MPEREdM9ZpqRlZ2dj79692LdvH44dO4ZTp07d0PcjSRJE+Yprltvd3d3RunVrBAcHo3fv3ujTpw/c3NzURQeIiMh+MfAQEVG1YzKZcPXqVaSlpWHLli1YuXIlsrKy1JXVJEmCVqtFy5YtMX78ePTr1w/16tVD7dq1GXCIiMgKAw8REVV7JpMJO3bswKRJk3Dp0iXodDp8/PHHePXVV3l9HCIi+lNcloaIiKo9y8VLPT09gfI+nfr163N1NSIi+kv8pCAiomrPsqy07W1ERER/hYGHiIiIiIhqLAYeIiIiIiKqsRh4iIiIiIioxmLgISIiIiKiGouBh4iIiIiIaiwGHiIiIiIiqrEYeIiI6L4ghICiKOr/38my1JZj3Gr7O9fivnjxIt577z0sW7YMsizb7iYiompCEn/nrzsREdE9kp2dja5duyIjIwMODg747bff0Ldv3xuuz3Mrsixj2bJlOHjwIIQQNwQmjUaDJ554At27d79h380cPXoUgwYNQr9+/bB48WLodDrbEiIiqgZu71OCiIiompEk6baCiYWiKIiKisLixYvxxx9/IC4uzmqLj49HTk6O7d1uyTJaxNEdIqLqjYGHiIjsikajQWRkJI4cOWK1HT58GCNGjPhbIYqIiKo/Bh4iIiIbsiyjrKwMZ8+eRUJCAnJzcyHL8m33+AghYDabceHCBWRlZcFsNt9wX1mWkZubi0OHDuHQoUMwmUxWPUpERHR3MPAQERFVIMsyXnvtNTRt2hTBwcHo0aMHmjVrhhEjRuD06dO25TeQZRm7d+9G586d0bZtW7Rp0wYPPvgg4uLi1Glw2dnZeOONN9CsWTMMHToUgwYNgq+vL1asWIGysjLbQxIR0T/AwENERHbHbDajrKzMarOMwgghkJ+fjzFjxmDevHn44YcfMHnyZOzYsQOTJk2CyWSyPZxKCIH4+HiMHDkStWrVwty5czF//nyEhoaqxzcajZg8eTIWLlyI559/HkuWLMH333+PkJAQvPTSS9i+fbvtYYmI6B/gKm1ERHRfsF2lbfPmzejbt+9t99yYTCY1YNzso8/Z2RmJiYnw8/Oz3QVFUfDSSy9h0aJF2LJlC8LDw5GQkICBAweib9+++Omnn6DT6aAoCubPn4/p06djxYoVGDFihHoMSZKgKArmzp2Ld955B8uXL8eQIUPUVebKysrQrVs3mEwmxMbGwsnJqcJPQEREd4ojPEREZFc0Gg1efPFF/Pvf/7ba3nrrLXh5eakBymw248iRI/juu+/w0Ucf4cSJE1AUBampqbaHVEmShGbNmkFRFHz99dfYsGEDSkpK1P0GgwErV65E7dq1kZubi19//RVr1qzBmjVrsH79etSpUwfZ2dk4d+7cTUMZERH9fRzhISKi+8LdGuH5+eefcerUKTRp0sRqf8VlrhMSEvDqq68iPj4ezs7O0Ov1MBgMKCwsxGeffYZXXnkFx48fx8CBAxEeHo6ffvoJer0eKO/hmTFjBlatWoWCggK0bdsW7733Hvr06YOcnBz07dsXaWlpcHd3v+EaQmazGS4uLli9ejW6det22/82IiK6NY7wEBHRfemfhAGNRgOtVmu1WcKHyWTCxIkTkZycjHfeeQcrVqzAhg0b8Omnn1odw8XFBTqdDoWFhVajMVqtFl988QV+++03vP3228jKysKoUaOwadMmmM1mKIqCwMBA/Pe//8WSJUustqVLl+LHH39EQEDAP/r3ERHR/2HgISKiak8IAZPJhNLSUqA87NSpU8e27B8TQmD79u04ceIE3nvvPbz55psIDw9Hhw4d1N4eS7jx8vKCo6MjLl26dMPFR7VaLUJCQvDOO+9g/fr1KCkpwYIFC+Du7g5vb28YDAZ06dIFgwcPvmGLiIhA3bp1rY5HRER3joGHiIiogmvXrgEA8vPzIcsyZFnG2bNn8dVXX0EIgUuXLkEIAS8vL/Tq1QuJiYlYuHAhiouLIcsy0tPTcf78eciyDEVR4OrqCq1WC0dHR7i6uuK5555DZmYmpk+fjjNnzkBRFCiKAlmWcfHiRezcudP2RyIion+APTxERFQtCSHUaV1CCFy4cAGdO3fG5cuX4ejoiNjYWLRt2xaSJKmjLn82DcxsNmPq1Kn4+eefkZqaekMPD8ofp6CgAO3bt0dubi4iIiKQm5uLI0eOQK/Xo7i4GP369cPatWuh1Wpx+fJldO/eHVlZWWjcuDESEhIwc+ZMLFq0CD169ICPjw9+//13FBYWYvHixRgxYoS64tuKFSvg6uqKli1bolGjRsjMzMSxY8dQu3ZtpKSk/Om/hYiIbp925syZM21vJCIiupeKi4vVkQ7LymmFhYXqSIpOp8Ozzz6LunXrQgiBvLw8JCYmon79+laLD1QkhEBxcTEaNGiAvn37wsXFxbYEkiTB0dERrVu3RlFREVJTU+Hu7o5hw4bhzTffhNFoRKtWrdC9e3fodDq4urpiwIABAABHR0cMHToU7u7u6kjPuXPn0L59e7zxxhsYMmQIHB0dodVq0adPH7Ru3RqyLOPKlSvIyMiAj48PwsPDMWHCBAQGBt6woAEREd0ZjvAQEVG1oigKvvnmG8yYMQO1a9fG9u3bERQUdMsRnhMnTmDo0KHIyMjA8uXLMWLECGi1WtvDAuWhxzJydLNQZGGpq6jiaFPFMFKxtmJNRTd7vJs9Bm5RS0REd45fHxERUbWiKAr2798PWZZx+fJlPPfcc8jNzbUtA8prZ8+ejXPnzkGWZUyfPv2GBQQqkiQJGo3mLwOFpa7iZgkitiMvFWsr1tje19bN6m5VS0REd46Bh4iIqhVJktRr0AghcPToUezatcu2DEIIREVFYfny5ZBlGZIkYfTo0TcEEiIism/8VCAiompFq9Vi7NixaNCgASRJgsFgwOeffw6DwWA1Bezq1auYMWMGTCYTJElCy5Yt8e9//xs6nc7qeEREZN8YeIiIqNqpX78+lixZAr1eDwBISEjAl19+qU5XUxQF27dvR0JCAoQQ0Gq1mDhxItzd3W2ORERE9o6LFhARUbUjhIDZbMbDDz+MHTt2AOWroMmyDJPJBI1GAw8PD+Tn5wMAQkNDERkZCS8vL5sjERGRveMIDxERVTuSJEGv12Py5MnQ6/UQQqC0tBQmkwkoH+HJy8uDEALu7u6YP38+ww4REd0UAw8REVVbQ4cOxZAhQ265cpkkSRgxYgQCAwNtdxEREQGc0kZERNXdhQsX0KFDB+Tk5Njugk6nQ3JyMpo3b37LUERERPaNIzxERFSt1alTB2PGjLG9GXq9HrNnz4a/vz/DDhER3RJHeIiIqNq7dOkSAgICUFJSAiEENBoN2rZti507d8LX19e2nIiISMXAQ0RUjn8Oqy9ZlrFgwQJMnz4dZWVl0Ov1WLBgAcaNG8cLjdZAHLEjoruJgYeIqHzVL8tG1Y8QArm5uYiIiEBiYiKGDBmCFStWQKfT8eS4hpEkCRqNBlqt1nYXEdEdYeAhIgKwdu1azJgxA5cuXbLdRdWEEAJlZWVQFAVarRYODg62JVQDODo64sknn8S3335ru4uI6I4w8BCR3RNCoEOHDkhISAA4nYbonrGckuh0OpSVldnuJiK6Iww8RGTXhBDIzMxEQEAAysrK0KJFC/To0cO2jIgqmcFgwObNm1FQUIAOHTrg8OHDtiVERHeEgYeI7JqiKFi1ahXGjx8PIQQ+++wzvPzyy7ZlRFSJhBDIyMhAWFgYrl27htdffx2fffaZbRkR0R1h4CEiu2Y2m/HSSy9hwYIF0Ov1iImJQbt27WzLiKgSCSEQGRmJ4cOHQ6vVYs2aNXj44Ydty4iI7gjX8iQiu1ZaWoqUlBQIIdC4cWO0bNnStoSIqsBvv/0GRVHg5eWFZs2a2e4mIrpjDDxEZNdKSkqQnp4OIQR69OjBpXCJ7gGz2YytW7dCURT4+PigYcOGtiVERHeMgYeI7JYQAleuXEFmZiYAoGfPnryIJVEVE0IgNTUV2dnZkCQJrVq1gqenp20ZEdEd4yc7EdktWZYRGRkJWZbh4eGB5s2bc0lqoiqmKApiYmKgKAo0Gg369+/P9yER3VUMPERkt2RZxoYNGwAAtWvXRqNGjWxLiKiSKYqC2NhYAIBWq0X//v1tS4iI/hEGHiKyWzk5OYiLi1MXLKhbt65tCRFVMqPRiJMnT0IIgaCgIL4PieiuY+AhIrsVHx8PRVEAAA899BD0er1tCRFVMqPRiNTUVAghEBYWBp1OZ1tCRPSPMPAQkV0SQuDIkSNQFAWSJLFvgOgeEELg7NmzuHTpEjQaDUJDQ7lwCBHddfyrQkR2qaysDMnJyQCAevXqISgoiIGHqIrJsoz169dDCAF3d3f4+/vzfUhEdx0DDxHZJYPBgFOnTkGSJHTv3p3T2YjuAZPJhI0bN0KSJHh4eKBJkya2JURE/xgDDxHZpdzcXJw9exaSJPH6O0T3SEZGBs6dOwcAaNmyJXx9fW1LiIj+MX7CE5FdioyMRFlZGZycnNC6dWtOoyG6BxISEmA2mwEAgwcPhlartS0hIvrHGHiIyO4IIbB+/XooigJXV1c0a9aMgYeoigkhcOzYMciyDEmS8Mgjj3CklYgqBf+yEJHdyc/Px6FDhwAA3t7eaNy4MQMPURWTZRkpKSkAgICAADRs2JDvQyKqFAw8RGRXLMtRy7IMjUaDAQMG8LofRPeA2WxGSkoKNBoNunTpwrBDRJWGgYeI7ErF6+/odDoMGzbMtoSIqsD58+dx/vx5aDQadO7cmYGHiCoNAw8R2RVL34CiKPDx8UGnTp14onWfEEKoG93/Vq1aBUVR4ODggFatWvF9SESVhoGHiOxOcnIyhBAIDg6Go6Oj7W6qhoQQyMnJwdmzZ1FaWmq7m+4zQgisXr0asizD0dERgYGBDDxEVGkYeIjIbgghcP36daSmpgIAQkJCuCrULVy/fh3Hjx/Hr7/+irlz5+K9997DzJkzsXjxYpw5cwayLN8w0rJkyRJ89NFHyM3Ntbr9blAUBd988w3Cw8Nx8uRJ2910HxFCIDMzE6dPn4YkSfDz80P9+vUZeIio0vCTnojshqIoiIyMRGlpKfR6PYKCgniSdQtJSUno1asXxo8fjw8//BCLFy/GDz/8gFdeeQUdO3bE5MmTkZWVBUVRAABlZWV455138Mknn2Djxo22h/vHhBAoKChAdnY2jEaj7W66jwghkJSUBCEEJEnCkCFDeP0dIqpUDDxEZDcURcHKlSshhICzszNatGhhW0LlzGYzTCYTunTpgqVLl2LDhg345ZdfsGDBAgwYMADLly/HqFGjkJmZCQDQarUICwtDq1at0KZNG9vDEamEEEhMTIQQAlqtFiNGjLAtISK6qxh4iMhuFBUVYdeuXQCAWrVqoXnz5rYlZKN+/fqIiIhAhw4d0KtXL4waNQpLly7Fv/71L8TGxmLp0qVAeeBZvXo1Dh8+jE6dOtkeBkIIyLJse/MNDAYDysrKbG++LYqiwGAw3Nbj0L0jKqyU2KRJEwQEBNiWEBHdVQw8RGQ3Tp06BbPZDCEEBgwYwAULbpMkSVabXq/Hiy++iAcffBBff/01srKyAADr16/HnDlzkJeXp963tLQUs2fPxtNPP40nn3wS7777Ls6fPw8hBPbt24dnnnkGR44cwa5du/DMM89g5MiRGD16NGbNmoWCggJ1ytytCCGwY8cOvPvuuxg3bhxGjhyJJ598Ep988gkKCgoAAKmpqfjiiy+wbds227tDCIFTp07h888/x969e213A+WjXcuXL8fs2bNx9uzZG/Zt2rQJ//nPfxAfH2+1j25OURQcOXIEQgg8+OCDvA4WEVU6Bh4isgtCCJw8eRJmsxmSJGHEiBFcsOAf8PT0xKBBg1BYWIiTJ09CCIGVK1figw8+wLVr1wAAJSUleOyxx/DRRx/h4MGDiIuLw5IlS7B8+XIAwJkzZ7B06VJMmDABw4cPx/bt23H16lUcP34cc+bMQUhICFJTUyH+YhnqpUuX4scff0R0dDTOnj2LP/74Ax9//DFeeOEFyLKM2rVrY+7cuXjhhRdQXFxsdTxZlvHRRx/h448/Rq1atayOa6HT6eDk5IRPPvkEkyZNQn5+vjpiFRsbi6effhrLli1DkyZNbO9KNoQQuHLlCk6fPg0AaN++Pft3iKjS8dOeiOyCoihITEyEoijw8PBAt27duGDBPxQQEABFUXDmzBmg/DlWFEUNFLt378bOnTsxceJEJCQkICkpCZs2bcJTTz2lHkMIgeTkZIwbNw4HDhxATEwMjh49io8//hjp6en45JNPYDab1fqbefHFF7F582YcPXoUJ0+exKFDhzBkyBCsW7cOcXFx8PDwwL///W9cuHABixYtUkeNhBA4d+4ctm7dii5duqBly5a2h1YNHz4cH3zwAY4cOYKXXnoJRUVFSElJwfjx41GnTh2sXbsWvr6+tncjG4qiYP369RDl/Ttt2rTh+5CIKh0DDxHZBbPZjPj4eEiShPbt23M6213g5OQElE9bu9kozLVr1yCEQK1atSBJEhwcHBASEoIGDRqoNZIkITQ0FN9++y0aN24MSZLg5uaGyZMnY8iQIfjll19w6dIlq+NWJEkSOnbsiJCQEDg7O6OoqAh6vR4zZsxAWVkZfvvtNyiKgoiICDRu3BiLFi1Sp7opioLt27ejsLAQY8aMgbOzs+3hVRqNBpMmTcLQoUOxatUq/PTTT5g+fTqys7Px2WefISAggCfut0GWZaxbtw4o7/tq1aqVbQkR0V3HwENEdsFyXRlJkhASEsJpNHdBeno6NBoNmjdvftOT/X79+qFbt26YPXs2hg4dii+//BJXr169IRwNHToUGo1GPYYkSdBqtZg2bRoA4I8//lBvv5mSkhKsWbMGEydOxMCBA9GjRw8MGzYMAJCWlgYAqFevHgYOHKhOeVMUBaWlpVi8eDEaNGiAgQMH3vL4Fs7Ozvjqq68wcOBAvPnmm4iJicHHH3+Mhx9+mNMjb1NOTg6Sk5MBAI0bN0bTpk1tS4iI7jr+hSYiu7B3714UFRWpIzw8Qf1nFEXBoUOHoNVqb7nKVoMGDbBlyxZMmzYNiYmJeO+999C9e3ecOHHCqs7Dw8Pq/y3q1asHSZJgNBohSRLq1KkDSZKsFkUQQmDx4sV45plnsHXrVkiShAEDBmDChAlwcHCA0WiEEAIODg54+eWXIYTA999/D6PRiD179uD48eP44IMP4OPjY/XYNyNJEmrVqoWBAwdCURR4e3sjIiKCTfd/w5kzZ1BSUgIAGDlyJPR6vW0JEdFdx098IrILmzZtUkcW2DfwzwghcPToUezevRu9evWCv7//LZ9PZ2dnfPbZZzhy5AimT5+OtLQ0zJw506rm8uXLN4z6CCGwZ88eAEDnzp0hSZLaY3PhwgW1Pj8/Hx988AEefPBB7Nu3D1FRUfj666/xyiuvWE1blCQJTZs2xeTJk7Fnzx78/vvvmDNnDvz9/fHII4/cVmhRFAW//fYb3nnnHXTr1g0mkwlPPfWU1c9DtyaEQGpqKkpLSwEAo0eP5kgrEVUJBh4iqvEMBgN2794NIQR0Oh1at259yxN0+nOyLOPixYsYN24cZFnGjBkzbnnSKssyZFmGJElo2LAh3n//fTRu3BgJCQlqjRACy5YtQ2FhoRoahBC4evUq3nrrLTz44IPw8/ODJElo3rw5nJycsHr1apSVlUEIgaioKBQXF2PgwIHq66ooCjIyMm5Y1lqr1eKZZ56Bs7Mzpk2bhoSEBPTt2/eWI0wVCSGQkpKCV199FbVr18ZPP/2EL7/8EikpKXjllVdgNBpt70I2LMtRK4qCevXq8X1IRFWGgYeIajTLt8olJSXQaDQYPHiw2mxPfy01NRXff/89vv/+e3zzzTeYNm0ahg0bhgsXLuCNN9646UVGLdavX48pU6Zg2bJl2LJlCz744ANkZ2cjPDzcqu7cuXMYOnQovv/+e0RGRmL+/Pl4/PHHoSgK/vWvf0Gn00GSJAQGBqJnz56Ii4vDc889hy1btqBt27aoVasWfvzxRyxevBgrV67Em2++iQEDBkCSJKSkpKihR5IkBAQEoEuXLrhy5QokScJLL710W9MbMzIyMHnyZBiNRsybNw8NGzbEkCFD8NJLL2Hr1q2YOXMmDAaD7d2oArPZjMOHD0OSJAQFBTHsEFHVEURENZiiKGL16tXCyclJ6PV6sXr1aiHLsm0Z2YiOjha1a9cWrq6uwt3dXbi7uwtXV1fh5uYmWrRoIaKiokRZWZnVfUaNGiW8vLzE6dOnhRBCvPfee8LDw0O4ubmp92/Xrp04c+aMUBRFLFq0SDg4OIinnnpK+Pn5CTc3N3Vr2rSpiIqKEmaz2eoxrl69KsLDw4W7u7t4/PHHhclkEvPmzROenp7CxcVF/XmnT58uevbsKRo1aiSuXLmi3l9RFPHdd98JvV4vJk+ebHXsWyktLRUjRowQPj4+YvXq1UJRFHWf0WgUY8aMER4eHuLHH3+02kfWsrOzhZOTk9BqtWL69OnCZDLZlhARVQpJcOIxEdVgiqLg3//+N/7zn//Aw8MDZ86cgaenJ79d/gulpaW4ePEiLl68aHV73bp1b7mUcFJSEvLy8tCxY0d1iefTp0/j2LFjKC4uhq+vL3r16gU3NzeI8sUGpk6dirlz52L48OGIiYlBbm6u+hi3WsGrpKQEx48fh9lsRlhYGIQQSEpKwrFjx6AoCoKDg9G6dWvExsbCbDYjNDQUjo6OEEIgPz8fAwYMQHZ2NjZv3ox27drZHv4GRqMR8fHx0Ol0aNeundUIoWX63YkTJ+Dj44NWrVrd1oiRPVq4cCGmTZsGIQSWLFmCsWPH8rkioirBwENENZqiKBgwYAB27tyJTp06ISoqCg4ODrZldBNCiBua8SVJumVYtNRW3G97DMv9bQPPlClTrPptbudxhBDqCXPFx7G9n+X/TSYTZs+ejffffx/PPfcc5syZc1uLFeAW/7aK/mo/AUOGDMGWLVug0+lw9OhRtGrVis8XEVUJfrVCRDWWEAJGoxFHjhwBALRo0eK2T3Dp/5+8azQaq+3PTlBvFlJsj2G7v6LbrbM8TsXRgYqPY9lv2UT5im+TJk3Chx9+iNGjR2PWrFl/63fhZv+2iv5qvz0TQiAvLw+JiYkQQqBOnTq3vHYTEVFlYOAhohpLCIE//vgDBQUF0Gg0aNu2LafQVCMajQZ6vf5vBY879fPPP+PXX3/FhAkT8P3339/Wymx096Snp6OoqAia8oVDeP0dIqpK/OQnohpLURRs2rQJiqJAp9OhQ4cOtiV0j0iShP79+2Pjxo2IiIiw3X1XSZKEGTNmICYmBvPmzYObmxtHF6qQEAJnz55FcXExNBoNRowYYVtCRFSpGHiIqMYyGo3YsWMHRPn1dxh4qpcGDRogPDwcDRs2tN1117Vq1QpBQUG2N1MVEEIgNjYWJpMJPj4+ePDBB21LiIgqFQMPEdVYmZmZyMvLAwA89NBDcHV1tS2he6hin01lq6rHoRuJ8gvECiEQEBAAFxcX2xIiokrFwENENdbFixdRUFAAABg6dCj7d4iqmBACRUVFiI+PhxACzZs3V5csJyKqKvz0J6IaSVEUJCUlwWAwwNHREb1792bgIapiQgjs2LEDZrMZGo0GwcHB0Gq1tmVERJWKn/5EVCOZzWbs378fkiQhICAAXl5etiVEVMkURcG2bdsAAFqtFp06dbItISKqdAw8RFQjlZaW4o8//gAABAYGsm+A6B64fv26eh0sHx8ftGnTxraEiKjSMfAQUY109OhR5OTkQJIktGvXDg4ODrYlRFTJsrOzkZOTAyEE+vfvDycnJ9sSIqJKx8BDRDXSzp07oSgKAKBz585coYvoHrh48SKuXr0KAHjkkUfYv0NE9wQDDxHVOCaTSV0GV5IkdO7cmQsWEFUxWZYRFxeHsrIyeHh4IDg4mO9DIron+JeHiGqcS5cuITs7G5IkoVu3bvDw8LAtIaJKpigK9u7dCwBo1qwZatWqZVtCRFQlGHiIqMbJzMxETk4ONBoNhgwZwulsRPdAUVERoqOjIUkS/Pz84ObmZltCRFQlGHiIqMZJTk5GYWEhHB0d0bdvX06jIboHoqKiUFpaCkmS0KlTJ+j1etsSIqIqwbMAIqpx9uzZAyEE6tevj7p169ruJqIqsGfPHpjNZkiShB49enCklYjuGQYeIqpRTCYT9u/fDyEEGjVqBA8PD55oEVUxg8GAI0eOQAgBd3d3dOjQge9DIrpnGHiIqMYQQiApKQmXLl2CJElo3bo1nJ2dbcuIqBIJIXD16lX1fdirVy84Ozsz8BDRPcPAQ0Q1hqIo2LVrF4QQ0Ol0nEZDdI9cunQJly9fhkajQUREhO1uIqIqxcBDRDWG2WzG/v37oSgKtFotevbsaVtCRJVMCIGYmBiUlJTA1dUVnTp1si0hIqpSDDxEVGMUFBQgPT0dQggEBwejdu3atiVEVMmEENi2bRsURUG9evVQt25djrQS0T3FwENENUZeXh4yMzMBAH369IFWq7UtIaJKVlpain379kEIgQYNGsDX19e2hIioSjHwEFGNIITAmTNnkJubq05n4/V3iKqWoig4fPgwSkpKIEkSOnToACcnJ9syIqIqJQkhhO2NRET3G5PJhOnTp2PevHnQarXo2LEjatWqZVtGRJUsOzsbycnJ0Ol0WL9+PQYPHmxbQkRUpRh4iKhGKCsrQ/fu3XH48GHbXUR0D3h7e+PMmTPw8vKy3UVEVKUYeIioRjCbzZg9ezY++ugjlJWV2e6m+5wQArIsw/KRpdFo2KNVjen1erz22mt47733oNPpbHcTEVUpBh4iqjGEEOoJMdUsZWVl6NmzJ+Li4gAAn3/+OV599VXbMqpGJEni6mxEVC0w8BARUbVXVlaGHj16qFMWv/jiC7z22mu2ZURERDfgEkZERERERFRjMfAQEREREVGNxcBDREREREQ1FgMPERERERHVWAw8RERERERUYzHwEBERERFRjcXAQ0RERERENRYDDxERERER1VgMPEREREREVGMx8BARERERUY3FwENERERERDUWAw8REVUrZWVlmDt3Lt566y1kZ2dDCGFbohJC4NixY3jrrbewf//+P60lIiL7xMBDRETVys6dO/Haa6/h888/x7vvvguTyWRbApSHnYKCAgwdOhRffvklpk+fDqPRaFtGRER2joGHiIiqlStXrkCWZQghsGLFCuzZs8e2BABgMpnw2muv4eLFizCbzbh8+TIURbEtIyIiO8fAQ0RE1cro0aPRvHlzAEBpaSlefPFFFBYWorS0VK3R6XRITEzEhg0boCgKNBoNevXqBQcHhwpHIiIiYuAhIqJqRq/X44UXXoAkSQCAixcvYvXq1cjNzVVrnJ2d8Z///Af5+fkQQsDDwwOvvfYatFpthSMREREBkmCHJxERVTP5+fkIDAzEtWvXoCgKGjVqBEVRkJWVBUmS8PDDD2PLli1QFAVarRYffvgh3nrrLTUkERERWTDwEBFRtaMoCvbs2YMRI0agsLDQdje0Wi1kWQYAhISE4Pfff0ft2rVty4iIiDiljYiIqh9LT07Pnj1vOmpjCTsajQbPPvssfHx8bEuIiIgABh4iIqqudDodpk+fDmdnZ9tdAABJktC7d2888cQT0Gj4cUZERDfHTwgiIqq2evXqhbFjx94QaCRJgoeHB7755hu4urpa7SMiIqqIgYeIiKotrVaLf/3rX2jatKnV7ZIkYdCgQXjggQduCENEREQV8VOCiIiqtUaNGmHs2LFWt7m6uuLzzz+Hk5OT1e1ERES2GHiIiKha0+l0eP755+Hn5wdJkuDo6IgPP/wQDRo0uOmCBkRERBVxWWoiovuMEOKmW00myzK2bduGxx57DAEBAYiMjETDhg1ty2oUSZJuuhER0d/DwENEdJ8pLi5GcnIyUlJScPr0aZw9exZnz5696fVqahJZlnHhwgW4ubnB19fXdneNotPp8MADD6BRo0Zo2rQpWrdujTZt2qBp06bQarW25URE9CcYeIiIqjlFUWAymRAfH49ly5YhMjISRUVFKC4uhizLdjPKg/LRLXsZ5ag4quPo6Ag3NzcEBATgsccew+jRo+Hj4wOtVms3zwcR0Z1i4CEiqoaEEFAUBRkZGdiyZQsWLlyI1NRUmM1mNdjodDp4e3ujTp068PX1hYuLCwDAw8PjlteuoepLCIH8/HwYjUYAQE5ODq5du4acnBw13EqSBK1WC61Wi2HDhuGpp55CWFgY3NzcuFodEdEtMPAQEVUjlqBTVFSEb7/9FosWLUJWVhZkWYZGo4FGo4GjoyOGDRuGkSNHom3btnBxcYGzszP0ej0AwNHRETqdzvbQdB8oLS2FLMsAgJKSEhgMBhQUFGDXrl1YtWoVEhISIMsyFEWBEALu7u4IDQ3F7Nmz0bp1a474EBHdBAMPEVE1UlJSgvXr1+Ojjz7CqVOn1ClcDzzwAIYOHYrw8HD06tVLHc3hya19sHxUnz59Gnv37sVvv/2G/fv3o6ioCEII6HQ6PP3003jrrbfwwAMP8PeCiKgCBh4iompACIGSkhJMnz4dK1asgMFggBACXl5eeO211zBu3DjUr18fGo2Gq3XZMcsIYElJCRITE/Huu+/iwIED6ghg06ZNMX/+fPTu3ZujfERE5Rh4iIjuMVmWcfz4ccyYMQN79+6FEAI+Pj4YOXIkXnrpJTRv3pwnr3QDIQTKysqwceNGzJs3D9HR0TCZTPD29sZ7772HcePGwdPTk+GYiOweAw8R0T2kKAoiIyMxbdo0XLhwAZIkwdfXF0uXLkXfvn3ZiE5/SQiB3NxczJo1Cz/88APMZjOcnJwwZMgQLFmyBE5OTgw9RGTXGHiIiO6huLg4jBo1CufOnYMQAgMGDMC8efPg5+fHk1S6bUIImM1mLFmyBB9++CEyMzOh0WgwduxYfPvtt/Dw8LC9CxGR3WDgISK6B4QQOHHiBEaMGIHTp09Dq9Xi7bffxgsvvAAfHx+O7NAdMZvNOHbsGB5//HGcO3cOjo6OePnllzFr1iw4ODjYlhMR2QUGHiKiKqYoCq5cuYKxY8di//79kCQJo0ePxrx58+Du7s6RHfpHFEXBsWPH8NhjjyEtLQ16vR5ffPEFpkyZAkdHR9tyIqIaj4GHiKiKlZaW4oknnsDGjRshhMCwYcOwcOFCeHt725YS3RGz2Yzdu3dj2LBhKC0thZeXFzZu3IiwsDAGaiKyO5wzQURUhYQQWL9+PTZu3AhZltGxY0fMmTMHXl5etqVEd0yn06FPnz5YsmQJatWqhby8PLz88svqdXuIiOwJAw8RURW6fv06vv32WyiKAldXV3z77bdo3Lgxv3Wnu06j0WDo0KEYOHAgNBoNjh8/ju+//x6yLNuWEhHVaAw8RERVRJZl/Pe//0VsbCw0Gg2mTJmC4OBgLlBAlUKSJDg5OeGTTz5BnTp1oCgKFi9ejOzsbI7yEJFd4acsEVEVEEIgJSUFn376KRRFgbe3N6ZOncoLilYRRVGgKIrtzXahadOmePvtt6HVanHmzBl88cUXHOUhIrvCwENEVAWEEPj1119RUFAAvV6Pd999126vtVNaWoqCgoJbbnf7ZFwIgVWrVuH5559HQUGB7e4aT6PRYMSIEWjTpg2EEFiyZAkuXLhgW0ZEVGMx8BARVZHff/8diqKgdevWmDRpkl2GHQBYvnw5Bg0adNNt8ODBOHv2rO1d/rGYmBgsXboUJSUldjmdq169enj66acBAAaDAb/++qtdPg9EZJ8YeIiIKpkQAhkZGTh27Bg0Gg2GDRsGFxcXuww8QghcuHAB0dHRuH79OoQQN2yVwZ6ntKF8lGf8+PHw8fGBoijYv38/jEajbRkRUY3EwENEVMlkWcaiRYtgNpvh6OiI7t2722XYqcjR0RGLFy/GH3/8YbUdPHgQgYGBQHk4sgSgvxOKbGv/qt4eSJIENzc3DBs2DBqNBikpKSguLrYtIyKqkRh4iIgqWVlZGX788UcoigJ3d3e0b9/etoRsKIqC1NRUXLp0CWazGZcvX8aJEyeQnJyMCxcuwGQy2d4FKL9feno6jh49ioSEBJw5cwYGg8G2zC5pNBr0798fOp0OFy5cQEpKim0JEVGNxMBDRFTJLl26pDbLt2/fnhcZvQ2yLGPkyJF49dVXsXTpUgwePBj9+vVDeHg4BgwYgE8++QTFxcVWI0C5ubmYMWMGIiIi0KtXL4SHh6N///6YNm0asrKybB/C7kiSBH9/f7i4uKjT2oiI7AEDDxFRJbt06RJkWYYQAr1797b76WwoH4k5ffo0jh8/brVlZWWpIcbb2xtr167F1KlTUbduXcyZMweff/45fH198cUXX2D+/PlqX44sy/jqq68wb948tGjRAlu3bkVUVBRef/117NmzB5s2bbL5CexTvXr14OTkBCEEDhw4YLubiKhGYuAhIqpkly9fVk/M27dvz8ADwGg04oknnkBISIjVNmvWLPW5kiQJsixj6NChWLp0KUaNGoXx48dj+fLl8PPzw7Jly9SRs1OnTuGHH35AeHg4/ve//6F79+4ICgrC1KlTsWLFCnh4eNj8BPZHkiT4+vqqgSctLc22hIioRmLgISKqZGazWR21aNy4se1uu+To6IhFixYhKirKanvjjTeg0fzfR5NOp8PXX38Nb29v9bYGDRrA398fV65cUVd6i4qKQmFhIRYuXGhVK0kSunTpgr59+6q32TMnJyfodDoIIXD+/Hnb3URENRIDDxFRJavYNO/g4MARnvIG+qCgIISGhlptthdj9fDwgJubm9VtGo0GHh4eKCsrg9lsBgAkJyfD2dkZnp6eNzy/kiShdu3aVrfZM19f3xueIyKimoyBh4ioknFZ5JvTaDQ3bLYn4rb/fyv169eH0WhEaWnpTZ/vm91mr273OSUiqikYeIiIKpmrq6t6kpmfn8+T73J383kICwsDAHz//feQZVm93XIdnnPnzlWotm+XL1+GEALu7u62u4iIaiQGHiKiSqbX69X/vnjxotU+eyWEwPXr15Gfn2+1FRQUqNPUbpckSejatSsGDx6MDz/8EDt27EBBQQEMBgPy8/OxaNEi7NixAyhfHc6elZSUQJZlSJJk1etERFSTMfAQEVWy+vXrQ6vVAgBiYmLu6sjG/UaSJEiSBLPZjOnTp+Phhx++YTt37hwkSVKnuN1sClbF/Shf3OD9999H+/btMWHCBAwePBhjxozBoEGD8PHHH6Nr166QJAnXrl2zPZTdEELg0qVLMBgMkCQJHTp0sC0hIqqRGHiIiCpZ48aNodVqIUkSYmJi7H6UoUWLFhg8eDCaNm0KX1/fGzZLkOnWrRsiIiKg0+lsD4Hg4GBERETAxcUFKO8Hatu2LaKiojBp0iSUlpYiOTkZjRs3xtq1a/H2229j8ODBcHV1tT2U3RBCICsrCwaDARqNBh07drQtISKqkSRhz181EhFVgdLSUnTp0gXHjx+Hl5cX4uPj0axZM9syokolyzJ+/PFHvPDCC9DpdIiNjUVQUJBtGRFRjcMRHiKiSqbX6zF58mRoNBoUFxfj6NGjtiVElU5RFPz++++QZRkBAQFo1KiRbQkRUY3EwENEVMk0Gg0ee+wxuLq6wmQyYdeuXXY/rY2qlhACmZmZ2LNnDwAgKChInQ5IRFTTMfAQEVUySZLg4+ODrl27QgiBtWvXoqyszK4XL6CqJcsyvvvuO+Tn50OSJAwYMAAODg62ZURENRIDDxFRFenXrx+0Wi1ycnLw+uuv/+3ll4nu1JkzZ7BmzRqgfNXAiIgI2xIiohqLgYeIqApoNBqMHz8ebm5uUBQFy5Ytw9GjRznKQ5XObDbjxx9/xMWLFyFJEv7973/D19fXtoyIqMZi4CEiqiLe3t5YvHgxXF1dUVRUhNmzZ8NkMtmWEd1VBw8exMKFCwEAoaGhePTRR6HR8OOfiOwH/+IREVURS+9Enz591F6e9evXQ5Zl21Kif0wIgaKiIvzrX/9CUVERtFotXnnlFXh4eNz0Yq5ERDUVAw8RURVydnbG9OnTodfroSgKXn/9dfzxxx+2ZUT/mNFoxKeffoq4uDgAwMMPP4xHH30UWq3WtpSIqEZj4CEiqmJhYWH48MMPodVqkZWVhfHjx+P8+fPs56G7xmQy4auvvlKnTTZt2hT/+c9/GHaIyC4x8BARVTGtVotp06bhmWeegUajQUZGBh5//HGkp6fz+jz0j5nNZqxcuRJffvklzGYz6tWrh6+//hoPPPCAbSkRkV2QBL9SJCKqckIIGAwGjB49GpGRkQCAtm3bYs2aNfDz8+M38fS3CSFgNpvx/fff491330VxcTHc3NywbNkyDBo0CDqdzvYuRER2gSM8RET3gCRJcHFxwYIFC9CzZ08oioKEhAT0798fv/76K1dvo79FCIELFy7glVdewVtvvYXr16/D1dUVM2fOREREBMMOEdk1jvAQEd1DiqIgJycHTz/9NHbs2AGUL2zw3HPPYdasWXB2duaKWvSnzGYzLl68iGHDhiEpKQlCCLi7u2Pu3LkYPXo09Ho9f4eIyK5pZ86cOdP2RiIiqhqWkZ5BgwbBbDYjJSUFxcXFOHz4MA4ePAi9Xo/GjRtDr9fz2imkskxfS0pKwg8//IApU6YgIyMDGo0GnTp1wg8//IAhQ4Yw7BARcYSHiKj6MJlM2Lp1KyZOnIj8/HwoigInJyc0adIEs2fPRkREBDQaDSRJUjeyH0IIKIqi9n/NnDkTy5cvx7Vr16AoCjQaDQYNGoT//ve/qFu3Ln8/iIjKMfAQEVUjQgjEx8fjq6++wubNm1FUVAQA0Ol06NGjB/r06YPOnTujdevWaNCgge3dqYYqKSnB2bNnkZKSgn379mHDhg24dOkShBDQ6XRo164dnn76aUybNo0LXhAR2WDgISKqZhRFgcFgwIULFzBr1iysW7dOXcRAo9HA1dUVHh4eCAwMRHh4OHr37o0WLVrAyclJreG3+/cnIYS6XbhwAYmJiYiNjcXWrVuRk5ODwsJClJWVqdds8vHxwaeffopHHnkE3t7eXJyAiOgmGHiIiKoxk8mEAwcOYNGiRUhKSsK5c+dgMBjUqU1arRYajcaqv6dhw4Zwc3OzOg7dH2RZxtmzZ9XQoyiKukmSBK1WC19fXwQEBKBv3754/vnn4e3tzVEdIqI/wcBDRHQfMBqNuHbtGi5cuIAtW7Zg3bp1SE1NVU+MqWayjNRpNBoMGDAAo0aNQqdOneDj4wMvLy+O5BER3QYGHiKi+4Tlz7Ul5KSmpiIlJQXJyclIT0+HwWCwvQvdx+rVq4fAwEA0adIEPXr0gJubmxpwGHSIiG4fAw8R0X2qYr8HR3pqnoqr8XFVPiKiO8fAQ0RERERENRavYkdERERERDXW/wMTmD98LCQS7AAAAABJRU5ErkJggg==;" vertex="1" parent="WIyWlLk6GJQsqaUBKTNV-1">
          <mxGeometry x="1096" y="930" width="408" height="340.99" as="geometry" />
        </mxCell>
      </root>
    </mxGraphModel>
  </diagram>
</mxfile>
